<?xml version="1.0" encoding="UTF-8"?>
<svg xmlns="http://www.w3.org/2000/svg" height="1224" width="1224" class="pyqrcode"><path transform="scale(8)" stroke="#000" class="pyqrline" d="M4 4.5h7m2 0h3m2 0h2m1 0h1m1 0h1m2 0h2m3 0h1m1 0h2m2 0h1m4 0h2m2 0h4m5 0h3m2 0h1m2 0h1m1 0h3m2 0h2m1 0h5m7 0h1m2 0h1m1 0h4m3 0h2m1 0h3m1 0h1m3 0h2m6 0h1m1 0h1m2 0h7m2 0h1m1 0h1m2 0h1m1 0h2m1 0h1m1 0h7m-145 1h1m5 0h1m1 0h1m1 0h2m1 0h1m1 0h8m1 0h2m1 0h1m1 0h1m2 0h1m5 0h1m6 0h2m1 0h1m3 0h1m2 0h2m2 0h2m1 0h8m2 0h3m1 0h1m2 0h3m6 0h1m1 0h1m1 0h2m1 0h1m1 0h1m1 0h1m4 0h7m4 0h1m3 0h1m1 0h4m2 0h1m2 0h2m1 0h1m1 0h1m2 0h1m5 0h1m-145 1h1m1 0h3m1 0h1m4 0h1m1 0h4m1 0h1m4 0h2m1 0h1m2 0h1m1 0h4m1 0h1m1 0h1m2 0h1m1 0h1m2 0h3m1 0h2m1 0h1m1 0h1m4 0h3m3 0h2m2 0h1m2 0h2m1 0h2m5 0h1m3 0h4m4 0h1m5 0h1m2 0h1m1 0h1m2 0h1m1 0h1m1 0h2m3 0h2m1 0h3m1 0h2m1 0h1m1 0h2m1 0h4m1 0h1m1 0h3m1 0h1m-145 1h1m1 0h3m1 0h1m2 0h2m1 0h2m1 0h2m1 0h1m1 0h2m2 0h1m3 0h1m2 0h7m3 0h2m1 0h1m1 0h1m1 0h1m4 0h1m1 0h1m1 0h2m4 0h3m2 0h1m1 0h1m4 0h1m3 0h1m1 0h1m1 0h3m2 0h1m1 0h1m1 0h4m1 0h2m3 0h1m1 0h1m1 0h1m3 0h1m2 0h1m1 0h1m1 0h1m1 0h3m3 0h1m10 0h1m1 0h1m1 0h3m1 0h1m-145 1h1m1 0h3m1 0h1m2 0h1m3 0h2m2 0h2m1 0h2m2 0h1m4 0h1m1 0h7m3 0h2m1 0h2m1 0h6m2 0h9m1 0h3m1 0h2m1 0h1m2 0h2m1 0h2m2 0h8m2 0h2m4 0h3m4 0h1m2 0h1m1 0h6m2 0h1m1 0h2m2 0h2m2 0h1m3 0h1m5 0h1m1 0h3m1 0h1m-145 1h1m5 0h1m1 0h2m1 0h2m3 0h2m3 0h2m2 0h1m3 0h1m2 0h1m3 0h3m1 0h2m1 0h1m2 0h6m3 0h1m2 0h1m3 0h2m1 0h1m3 0h1m3 0h3m1 0h4m3 0h1m3 0h1m2 0h1m1 0h1m1 0h3m1 0h1m1 0h8m1 0h1m3 0h1m1 0h1m4 0h4m2 0h1m2 0h2m1 0h1m2 0h1m1 0h1m5 0h1m-145 1h7m1 0h1m1 0h1m1 0h1m1 0h1m1 0h1m1 0h1m1 0h1m1 0h1m1 0h1m1 0h1m1 0h1m1 0h1m1 0h1m1 0h1m1 0h1m1 0h1m1 0h1m1 0h1m1 0h1m1 0h1m1 0h1m1 0h1m1 0h1m1 0h1m1 0h1m1 0h1m1 0h1m1 0h1m1 0h1m1 0h1m1 0h1m1 0h1m1 0h1m1 0h1m1 0h1m1 0h1m1 0h1m1 0h1m1 0h1m1 0h1m1 0h1m1 0h1m1 0h1m1 0h1m1 0h1m1 0h1m1 0h1m1 0h1m1 0h1m1 0h1m1 0h1m1 0h1m1 0h1m1 0h1m1 0h1m1 0h1m1 0h1m1 0h1m1 0h1m1 0h1m1 0h1m1 0h1m1 0h1m1 0h1m1 0h1m1 0h7m-137 1h1m2 0h2m1 0h2m2 0h1m1 0h2m1 0h1m3 0h2m2 0h2m3 0h1m1 0h1m1 0h1m3 0h3m1 0h1m1 0h2m3 0h4m3 0h2m2 0h1m1 0h4m1 0h4m1 0h2m2 0h1m1 0h1m3 0h1m1 0h2m1 0h1m1 0h1m1 0h1m1 0h2m3 0h1m1 0h2m2 0h1m3 0h1m1 0h2m1 0h1m1 0h4m1 0h1m1 0h1m2 0h1m1 0h2m-131 1h4m7 0h1m2 0h5m1 0h2m2 0h1m3 0h5m1 0h2m1 0h1m4 0h2m1 0h3m3 0h1m2 0h5m1 0h3m5 0h4m1 0h3m1 0h1m2 0h5m2 0h1m1 0h1m1 0h1m3 0h1m2 0h3m1 0h1m3 0h5m5 0h1m1 0h2m4 0h2m2 0h3m1 0h1m1 0h2m3 0h1m-141 1h1m1 0h1m1 0h1m1 0h1m2 0h1m3 0h2m11 0h1m1 0h1m1 0h3m4 0h1m2 0h3m1 0h2m1 0h2m4 0h1m5 0h2m1 0h4m1 0h1m3 0h1m1 0h3m1 0h2m1 0h1m1 0h1m3 0h2m2 0h5m1 0h2m4 0h2m1 0h2m3 0h4m1 0h1m3 0h1m1 0h2m1 0h2m3 0h2m2 0h1m1 0h1m1 0h1m1 0h1m-143 1h8m1 0h3m4 0h2m1 0h5m1 0h4m1 0h3m1 0h1m1 0h2m3 0h1m2 0h3m1 0h5m3 0h6m1 0h1m3 0h1m1 0h2m1 0h3m1 0h1m3 0h1m2 0h2m1 0h4m3 0h2m2 0h1m2 0h1m4 0h1m4 0h1m1 0h2m2 0h2m1 0h2m3 0h3m1 0h5m2 0h2m2 0h2m1 0h1m-143 1h1m2 0h2m3 0h2m2 0h1m4 0h3m2 0h1m1 0h9m1 0h1m1 0h1m6 0h1m4 0h1m1 0h3m1 0h3m3 0h1m1 0h1m1 0h5m1 0h1m3 0h1m1 0h1m3 0h1m3 0h2m1 0h2m1 0h1m1 0h4m1 0h1m1 0h1m3 0h2m1 0h1m2 0h3m1 0h2m1 0h1m2 0h1m1 0h1m1 0h2m1 0h1m2 0h1m1 0h1m1 0h2m3 0h2m2 0h1m1 0h1m-145 1h1m2 0h4m1 0h1m2 0h1m1 0h2m1 0h1m6 0h1m1 0h6m2 0h3m2 0h5m2 0h2m1 0h2m5 0h1m2 0h1m1 0h2m1 0h1m1 0h2m2 0h1m1 0h3m1 0h3m2 0h1m1 0h6m3 0h2m1 0h1m1 0h1m4 0h2m1 0h1m4 0h4m3 0h1m2 0h2m2 0h1m2 0h3m2 0h3m3 0h5m2 0h1m-145 1h2m1 0h3m1 0h1m1 0h2m1 0h1m3 0h3m3 0h1m1 0h1m1 0h3m1 0h2m2 0h2m1 0h1m1 0h2m1 0h3m1 0h3m1 0h3m4 0h6m1 0h1m3 0h1m1 0h1m1 0h1m6 0h1m1 0h1m1 0h1m1 0h1m1 0h2m3 0h3m1 0h1m1 0h5m3 0h1m1 0h1m4 0h3m1 0h5m1 0h3m3 0h2m1 0h3m1 0h1m3 0h1m3 0h1m-144 1h2m2 0h5m1 0h1m2 0h1m2 0h1m1 0h1m1 0h3m1 0h1m1 0h1m2 0h1m1 0h1m1 0h1m1 0h1m1 0h2m1 0h1m1 0h1m5 0h1m4 0h1m1 0h2m1 0h3m1 0h7m3 0h1m3 0h1m1 0h2m2 0h4m2 0h1m3 0h4m1 0h3m1 0h2m1 0h2m6 0h3m1 0h4m1 0h1m2 0h3m1 0h2m1 0h1m1 0h1m3 0h4m-142 1h2m1 0h1m4 0h1m2 0h1m3 0h1m3 0h1m1 0h1m1 0h1m1 0h2m1 0h6m1 0h1m4 0h7m1 0h2m1 0h1m1 0h3m2 0h2m4 0h1m3 0h2m1 0h1m2 0h3m3 0h1m1 0h1m2 0h3m2 0h3m4 0h1m1 0h1m5 0h2m1 0h7m1 0h1m2 0h2m1 0h3m1 0h1m1 0h1m2 0h4m2 0h2m3 0h3m-144 1h1m1 0h4m7 0h2m1 0h1m3 0h1m1 0h2m1 0h6m1 0h4m4 0h1m3 0h4m1 0h1m2 0h1m2 0h6m1 0h1m2 0h2m1 0h1m2 0h1m2 0h4m1 0h2m2 0h1m2 0h1m1 0h2m3 0h1m1 0h1m8 0h2m2 0h1m1 0h4m3 0h2m1 0h1m1 0h1m1 0h2m3 0h2m1 0h1m4 0h2m2 0h1m-140 1h3m1 0h2m3 0h5m1 0h1m1 0h3m2 0h2m2 0h1m4 0h2m1 0h1m1 0h1m2 0h3m2 0h1m3 0h1m1 0h1m1 0h3m1 0h1m1 0h3m1 0h2m1 0h4m1 0h1m1 0h1m1 0h1m1 0h5m3 0h1m8 0h1m3 0h4m3 0h2m1 0h1m3 0h5m1 0h3m3 0h4m7 0h1m2 0h1m3 0h1m-143 1h1m1 0h4m4 0h1m1 0h1m2 0h1m1 0h2m1 0h1m2 0h5m1 0h1m1 0h6m2 0h2m3 0h1m2 0h2m2 0h3m2 0h3m1 0h1m3 0h2m2 0h1m2 0h4m1 0h1m2 0h3m2 0h2m3 0h1m1 0h1m1 0h1m2 0h1m1 0h1m2 0h1m8 0h2m1 0h3m2 0h1m4 0h2m1 0h2m2 0h1m1 0h1m4 0h2m-140 1h2m4 0h2m2 0h1m1 0h2m3 0h2m2 0h1m3 0h2m3 0h2m3 0h5m2 0h5m1 0h1m1 0h1m2 0h1m3 0h2m5 0h5m1 0h2m1 0h2m1 0h2m1 0h1m1 0h4m2 0h2m3 0h5m1 0h1m6 0h1m1 0h4m1 0h2m3 0h9m1 0h2m1 0h1m2 0h1m3 0h2m2 0h3m-145 1h1m1 0h3m1 0h1m3 0h3m2 0h1m1 0h1m2 0h1m3 0h2m1 0h1m3 0h2m4 0h1m1 0h1m2 0h4m1 0h1m1 0h1m2 0h3m1 0h2m1 0h2m1 0h2m2 0h2m4 0h1m2 0h1m1 0h1m1 0h1m1 0h1m5 0h8m1 0h2m1 0h2m2 0h2m3 0h6m1 0h2m1 0h1m1 0h4m1 0h2m4 0h1m2 0h1m2 0h2m1 0h1m3 0h1m-145 1h2m2 0h2m9 0h1m1 0h1m2 0h2m2 0h1m1 0h2m1 0h2m1 0h1m3 0h1m4 0h3m3 0h1m2 0h3m1 0h1m2 0h2m5 0h1m4 0h1m2 0h3m1 0h1m2 0h2m2 0h1m1 0h4m1 0h2m3 0h1m3 0h2m1 0h2m1 0h6m3 0h1m1 0h2m1 0h4m1 0h2m1 0h2m3 0h3m5 0h1m1 0h2m-144 1h1m1 0h2m1 0h3m5 0h1m4 0h1m2 0h3m2 0h3m2 0h2m4 0h1m3 0h1m4 0h1m1 0h6m2 0h2m5 0h1m1 0h1m3 0h1m2 0h4m1 0h3m1 0h2m2 0h1m1 0h3m3 0h1m3 0h1m2 0h1m1 0h2m1 0h1m4 0h1m2 0h1m2 0h2m2 0h1m1 0h1m1 0h2m2 0h2m2 0h1m1 0h3m3 0h1m1 0h2m-142 1h2m3 0h2m1 0h2m4 0h3m1 0h1m2 0h3m1 0h3m1 0h5m1 0h1m1 0h2m1 0h1m1 0h4m5 0h1m1 0h1m1 0h2m2 0h2m1 0h1m1 0h1m1 0h1m1 0h1m4 0h1m1 0h1m2 0h2m1 0h7m5 0h1m1 0h1m1 0h3m1 0h2m2 0h6m1 0h1m1 0h1m1 0h2m3 0h1m1 0h2m2 0h1m1 0h1m1 0h2m3 0h3m1 0h1m-141 1h7m3 0h4m1 0h1m1 0h1m1 0h1m1 0h2m1 0h2m1 0h1m1 0h1m2 0h1m1 0h1m2 0h6m1 0h4m1 0h4m1 0h1m4 0h1m3 0h1m1 0h1m1 0h3m2 0h3m3 0h2m2 0h2m2 0h2m2 0h1m1 0h1m1 0h2m1 0h3m7 0h1m1 0h3m1 0h4m1 0h3m1 0h2m1 0h3m1 0h1m1 0h1m3 0h4m-141 1h3m2 0h1m1 0h1m1 0h6m3 0h1m1 0h3m5 0h2m1 0h2m2 0h1m2 0h2m1 0h2m4 0h1m1 0h1m1 0h2m1 0h2m1 0h1m2 0h4m1 0h3m1 0h2m1 0h2m2 0h1m3 0h1m4 0h2m1 0h1m2 0h1m2 0h2m3 0h2m1 0h1m2 0h2m2 0h1m2 0h1m1 0h1m4 0h4m3 0h1m4 0h4m1 0h1m3 0h1m1 0h1m1 0h1m-145 1h1m1 0h2m2 0h1m1 0h2m1 0h1m1 0h1m2 0h1m2 0h1m2 0h3m2 0h1m4 0h3m1 0h6m1 0h3m2 0h4m1 0h1m3 0h2m2 0h1m6 0h2m2 0h1m2 0h1m2 0h2m1 0h4m2 0h2m6 0h2m1 0h3m1 0h1m2 0h1m5 0h1m1 0h1m1 0h1m1 0h1m1 0h2m1 0h1m2 0h1m2 0h2m2 0h1m1 0h2m1 0h1m4 0h1m-142 1h3m7 0h1m3 0h5m5 0h1m1 0h3m5 0h1m2 0h1m3 0h1m5 0h1m1 0h2m1 0h1m3 0h3m2 0h1m1 0h1m2 0h2m1 0h3m2 0h1m4 0h2m1 0h1m1 0h2m1 0h5m1 0h2m1 0h1m1 0h2m2 0h1m4 0h4m1 0h2m1 0h1m2 0h2m2 0h1m1 0h2m1 0h2m1 0h2m3 0h3m1 0h1m1 0h1m1 0h1m-143 1h2m1 0h3m1 0h1m1 0h5m4 0h1m1 0h3m1 0h3m1 0h2m1 0h2m2 0h1m3 0h3m1 0h2m1 0h3m2 0h2m4 0h1m1 0h2m1 0h1m1 0h1m1 0h3m3 0h5m2 0h1m1 0h1m1 0h4m2 0h2m3 0h2m2 0h1m2 0h1m3 0h2m1 0h3m1 0h4m2 0h2m2 0h4m3 0h1m1 0h1m3 0h2m1 0h1m1 0h1m1 0h1m-144 1h2m5 0h7m1 0h1m1 0h5m1 0h1m2 0h1m3 0h1m1 0h5m1 0h1m1 0h3m2 0h1m1 0h1m2 0h2m1 0h1m2 0h1m1 0h1m1 0h2m2 0h2m2 0h3m2 0h5m1 0h1m6 0h1m1 0h2m1 0h1m1 0h13m3 0h1m2 0h2m3 0h5m6 0h1m2 0h7m1 0h1m1 0h1m1 0h1m-144 1h1m3 0h2m1 0h1m3 0h1m2 0h2m4 0h1m2 0h1m2 0h1m2 0h1m1 0h1m1 0h1m1 0h2m2 0h1m1 0h1m3 0h2m1 0h3m1 0h1m2 0h7m3 0h3m1 0h2m2 0h4m1 0h1m3 0h1m2 0h2m1 0h3m1 0h1m1 0h1m1 0h1m1 0h2m1 0h2m1 0h1m6 0h2m1 0h1m1 0h1m1 0h2m1 0h1m2 0h6m1 0h1m1 0h2m3 0h2m1 0h1m-142 1h1m1 0h2m2 0h1m1 0h1m3 0h3m1 0h2m4 0h2m2 0h2m1 0h2m1 0h2m1 0h1m1 0h4m1 0h3m2 0h1m2 0h2m2 0h5m1 0h2m1 0h2m1 0h2m1 0h2m2 0h1m3 0h2m3 0h4m1 0h1m2 0h3m1 0h3m1 0h2m2 0h1m3 0h1m1 0h1m1 0h4m1 0h1m2 0h1m3 0h1m1 0h2m1 0h1m2 0h2m5 0h2m2 0h2m-143 1h2m1 0h5m2 0h3m4 0h3m2 0h2m2 0h2m1 0h10m3 0h2m1 0h1m3 0h13m3 0h3m1 0h1m1 0h1m3 0h1m1 0h3m1 0h1m1 0h8m4 0h2m2 0h4m4 0h1m1 0h5m4 0h2m5 0h1m2 0h1m2 0h1m3 0h5m2 0h2m-145 1h1m1 0h3m3 0h3m2 0h4m1 0h3m1 0h2m2 0h1m1 0h1m2 0h2m3 0h2m2 0h1m1 0h1m3 0h1m4 0h2m1 0h5m3 0h4m2 0h1m4 0h1m1 0h2m1 0h1m1 0h2m2 0h1m3 0h1m3 0h1m1 0h1m1 0h2m2 0h2m8 0h1m3 0h2m1 0h1m1 0h2m1 0h4m1 0h2m4 0h2m1 0h1m3 0h1m-139 1h1m1 0h1m1 0h1m1 0h5m2 0h1m1 0h1m2 0h1m1 0h2m3 0h4m1 0h1m1 0h1m1 0h2m1 0h1m1 0h1m1 0h1m3 0h2m3 0h1m2 0h1m1 0h2m1 0h1m1 0h1m2 0h1m1 0h1m2 0h1m1 0h4m1 0h3m1 0h1m2 0h1m1 0h1m1 0h1m1 0h2m3 0h1m4 0h4m5 0h2m1 0h1m1 0h1m1 0h3m6 0h2m1 0h3m5 0h1m1 0h1m1 0h2m-142 1h1m3 0h1m3 0h3m1 0h2m1 0h3m1 0h1m3 0h1m1 0h1m1 0h1m1 0h1m1 0h2m3 0h1m2 0h1m2 0h2m1 0h2m2 0h1m2 0h1m1 0h1m3 0h1m3 0h3m3 0h1m1 0h1m4 0h1m4 0h5m3 0h1m3 0h1m1 0h1m1 0h1m3 0h1m2 0h1m2 0h1m3 0h1m3 0h1m2 0h1m1 0h1m1 0h1m1 0h1m2 0h1m1 0h2m1 0h1m1 0h4m3 0h1m1 0h1m-143 1h1m1 0h1m1 0h5m1 0h2m4 0h1m1 0h3m1 0h1m1 0h3m2 0h9m3 0h2m7 0h3m4 0h7m2 0h4m5 0h1m1 0h1m2 0h2m2 0h7m1 0h1m2 0h1m8 0h1m1 0h1m2 0h9m2 0h3m2 0h1m1 0h1m3 0h3m2 0h5m-141 1h4m3 0h2m1 0h1m1 0h4m1 0h3m4 0h1m1 0h3m3 0h1m1 0h2m1 0h2m4 0h2m2 0h1m4 0h4m1 0h4m1 0h2m1 0h1m1 0h2m3 0h1m2 0h1m1 0h1m1 0h1m1 0h3m2 0h1m1 0h1m1 0h2m3 0h3m2 0h1m2 0h1m1 0h4m1 0h5m5 0h3m6 0h1m1 0h1m1 0h1m1 0h4m1 0h1m2 0h2m-144 1h3m1 0h2m2 0h2m1 0h1m2 0h1m4 0h1m2 0h1m1 0h2m2 0h2m1 0h1m1 0h1m1 0h1m1 0h2m1 0h1m1 0h1m4 0h1m2 0h2m1 0h3m2 0h3m5 0h3m2 0h1m1 0h3m2 0h1m1 0h1m1 0h1m1 0h2m1 0h1m1 0h1m1 0h2m1 0h2m3 0h2m1 0h1m5 0h3m1 0h1m1 0h3m7 0h6m1 0h1m3 0h1m2 0h1m2 0h1m-142 1h2m1 0h1m5 0h2m3 0h2m2 0h1m1 0h1m1 0h3m2 0h5m5 0h3m2 0h1m3 0h4m1 0h1m2 0h1m4 0h1m4 0h2m1 0h1m2 0h1m2 0h3m2 0h1m1 0h2m2 0h1m1 0h3m1 0h1m3 0h1m3 0h2m2 0h1m2 0h2m1 0h1m1 0h1m1 0h1m3 0h1m1 0h3m1 0h4m4 0h1m1 0h1m1 0h3m2 0h1m1 0h1m-142 1h1m1 0h2m1 0h1m5 0h2m1 0h1m1 0h4m2 0h1m2 0h1m3 0h1m1 0h1m1 0h2m1 0h1m1 0h1m2 0h1m2 0h4m1 0h3m1 0h2m1 0h3m4 0h3m5 0h2m4 0h1m1 0h5m1 0h1m4 0h1m1 0h1m2 0h1m2 0h6m1 0h1m1 0h1m1 0h1m1 0h1m4 0h1m1 0h1m5 0h1m2 0h1m6 0h3m6 0h1m-145 1h3m1 0h1m6 0h1m4 0h1m3 0h1m2 0h1m3 0h2m3 0h2m4 0h1m2 0h3m1 0h1m3 0h3m1 0h1m2 0h1m2 0h1m4 0h1m4 0h2m1 0h1m4 0h1m4 0h6m1 0h2m2 0h1m5 0h1m2 0h1m1 0h1m2 0h2m1 0h3m2 0h2m2 0h5m2 0h4m2 0h5m1 0h3m3 0h1m-145 1h4m1 0h3m2 0h1m6 0h4m1 0h3m3 0h2m7 0h1m1 0h3m2 0h3m1 0h3m1 0h3m2 0h1m2 0h1m4 0h3m4 0h1m1 0h1m3 0h1m1 0h1m1 0h1m2 0h1m1 0h3m1 0h6m3 0h3m3 0h1m3 0h3m1 0h4m1 0h2m1 0h1m2 0h1m1 0h3m1 0h2m3 0h1m1 0h2m2 0h1m-141 1h3m8 0h5m1 0h9m1 0h2m1 0h1m4 0h2m1 0h2m6 0h4m2 0h1m1 0h1m1 0h1m2 0h1m1 0h2m3 0h1m2 0h2m1 0h4m1 0h1m1 0h4m1 0h1m1 0h2m6 0h2m2 0h1m2 0h1m2 0h1m1 0h1m2 0h1m1 0h2m1 0h2m4 0h5m1 0h2m4 0h2m3 0h2m1 0h1m-143 1h1m4 0h3m1 0h1m4 0h1m2 0h6m1 0h3m2 0h1m2 0h1m1 0h2m1 0h1m1 0h1m1 0h1m2 0h10m2 0h2m1 0h1m5 0h1m1 0h1m1 0h1m3 0h1m3 0h3m1 0h1m1 0h1m1 0h3m4 0h1m1 0h3m3 0h1m2 0h2m1 0h2m1 0h1m1 0h4m2 0h1m1 0h1m2 0h3m1 0h1m4 0h1m1 0h3m1 0h5m2 0h1m-145 1h1m3 0h2m6 0h3m2 0h7m2 0h1m1 0h2m3 0h1m2 0h1m3 0h2m2 0h3m1 0h3m1 0h2m3 0h2m1 0h3m5 0h1m1 0h2m2 0h1m1 0h2m2 0h3m2 0h1m1 0h2m1 0h1m2 0h2m1 0h1m5 0h1m1 0h1m1 0h1m1 0h1m1 0h2m1 0h1m1 0h1m2 0h3m2 0h3m2 0h2m1 0h2m1 0h1m1 0h5m1 0h1m1 0h1m-144 1h1m4 0h5m1 0h1m1 0h1m1 0h1m4 0h1m2 0h1m1 0h2m4 0h2m1 0h2m1 0h1m1 0h8m2 0h3m4 0h1m1 0h1m2 0h5m2 0h2m3 0h2m3 0h2m1 0h2m2 0h1m1 0h2m4 0h1m1 0h1m1 0h1m1 0h1m1 0h1m2 0h1m3 0h5m2 0h5m1 0h1m2 0h2m1 0h5m3 0h1m1 0h2m2 0h1m-142 1h2m1 0h1m6 0h1m3 0h1m2 0h3m1 0h4m1 0h1m1 0h1m2 0h1m4 0h2m1 0h4m2 0h2m2 0h1m1 0h3m1 0h3m2 0h1m3 0h1m3 0h1m1 0h2m3 0h2m2 0h2m1 0h1m2 0h1m6 0h5m2 0h1m2 0h1m2 0h1m1 0h2m2 0h3m6 0h6m7 0h2m3 0h1m2 0h3m-144 1h1m1 0h1m1 0h3m1 0h2m3 0h1m1 0h4m1 0h1m2 0h1m2 0h1m1 0h1m1 0h4m3 0h2m3 0h1m1 0h3m1 0h8m1 0h1m1 0h1m3 0h1m1 0h1m2 0h1m1 0h1m2 0h2m2 0h1m2 0h1m1 0h1m1 0h2m1 0h2m3 0h1m1 0h1m1 0h1m2 0h2m1 0h2m3 0h1m1 0h2m1 0h3m1 0h1m1 0h1m2 0h2m2 0h2m1 0h1m1 0h1m2 0h3m1 0h2m2 0h1m1 0h1m-144 1h1m3 0h1m2 0h1m3 0h2m1 0h3m1 0h3m1 0h1m1 0h2m1 0h6m3 0h2m1 0h1m1 0h4m1 0h2m1 0h1m1 0h1m1 0h1m1 0h2m2 0h1m1 0h2m1 0h1m2 0h1m11 0h1m1 0h4m1 0h3m2 0h1m1 0h1m1 0h7m1 0h1m1 0h1m3 0h4m1 0h1m1 0h4m1 0h1m2 0h1m3 0h1m1 0h1m1 0h4m1 0h1m2 0h1m2 0h1m-145 1h1m4 0h5m2 0h1m9 0h1m1 0h2m1 0h1m2 0h3m2 0h4m1 0h1m1 0h1m4 0h1m1 0h1m1 0h3m1 0h5m6 0h1m2 0h1m1 0h1m4 0h2m1 0h2m1 0h2m2 0h3m1 0h4m2 0h1m1 0h1m1 0h1m1 0h1m3 0h1m3 0h4m2 0h2m1 0h2m4 0h2m1 0h3m1 0h1m1 0h1m1 0h1m1 0h1m2 0h2m-141 1h1m2 0h1m5 0h4m1 0h1m3 0h2m1 0h1m1 0h3m1 0h5m2 0h1m1 0h1m1 0h1m5 0h1m2 0h1m2 0h2m2 0h2m3 0h1m7 0h1m3 0h5m2 0h1m2 0h1m1 0h1m3 0h1m1 0h6m2 0h2m2 0h1m2 0h1m1 0h2m1 0h1m1 0h2m6 0h4m4 0h1m1 0h1m1 0h1m1 0h1m1 0h1m1 0h2m1 0h1m-143 1h1m1 0h1m1 0h1m1 0h1m1 0h1m1 0h2m4 0h2m2 0h1m1 0h2m1 0h5m1 0h4m4 0h4m1 0h2m2 0h2m7 0h2m1 0h2m1 0h4m1 0h2m2 0h4m2 0h1m3 0h1m1 0h2m3 0h3m2 0h2m3 0h1m3 0h2m2 0h3m2 0h1m3 0h1m2 0h1m2 0h2m1 0h1m1 0h6m1 0h2m1 0h4m-141 1h1m1 0h3m2 0h3m2 0h1m2 0h1m1 0h1m4 0h1m3 0h2m3 0h1m1 0h1m1 0h2m1 0h1m1 0h1m1 0h2m6 0h1m1 0h1m1 0h3m3 0h2m2 0h2m4 0h1m5 0h3m4 0h3m4 0h1m5 0h3m1 0h5m1 0h1m3 0h6m2 0h5m1 0h1m1 0h1m4 0h2m3 0h3m1 0h1m-140 1h4m1 0h3m1 0h1m2 0h1m2 0h1m2 0h2m1 0h1m2 0h2m2 0h2m3 0h3m1 0h1m1 0h1m2 0h2m3 0h2m3 0h1m2 0h2m1 0h3m5 0h3m1 0h1m1 0h1m1 0h1m1 0h1m3 0h1m3 0h1m1 0h1m1 0h5m2 0h1m1 0h1m1 0h1m1 0h2m1 0h1m3 0h3m1 0h1m1 0h4m1 0h1m3 0h2m1 0h3m2 0h1m3 0h2m1 0h1m-139 1h1m1 0h2m4 0h2m2 0h2m3 0h8m1 0h1m2 0h1m3 0h2m4 0h3m4 0h4m1 0h5m1 0h1m1 0h4m3 0h1m1 0h1m3 0h1m1 0h3m5 0h3m3 0h1m2 0h6m5 0h1m1 0h2m4 0h3m2 0h2m1 0h1m2 0h5m2 0h1m1 0h2m1 0h2m2 0h3m1 0h1m-143 1h2m4 0h2m1 0h2m1 0h1m1 0h2m1 0h1m6 0h1m1 0h4m1 0h2m2 0h1m3 0h1m1 0h2m2 0h1m2 0h2m1 0h3m1 0h3m1 0h2m3 0h1m2 0h1m2 0h4m1 0h2m2 0h1m1 0h7m1 0h1m1 0h1m2 0h2m3 0h1m2 0h5m2 0h1m3 0h1m1 0h3m1 0h1m2 0h2m2 0h1m1 0h2m1 0h2m7 0h1m-141 1h1m1 0h2m1 0h1m1 0h1m2 0h1m1 0h1m2 0h1m2 0h2m3 0h1m1 0h1m3 0h1m6 0h1m3 0h2m3 0h4m1 0h2m3 0h1m2 0h3m1 0h2m2 0h4m4 0h2m1 0h1m1 0h2m1 0h3m1 0h1m4 0h3m1 0h1m2 0h1m3 0h2m2 0h1m3 0h3m1 0h1m2 0h1m1 0h1m1 0h3m1 0h5m3 0h5m2 0h1m1 0h1m1 0h1m-145 1h1m3 0h5m3 0h3m2 0h2m1 0h4m1 0h2m1 0h9m2 0h6m5 0h3m3 0h1m1 0h6m3 0h1m8 0h5m2 0h6m2 0h1m8 0h1m1 0h2m1 0h2m2 0h6m1 0h3m1 0h1m1 0h1m2 0h6m1 0h1m1 0h7m1 0h1m-143 1h1m3 0h1m3 0h2m1 0h1m1 0h2m3 0h2m2 0h1m1 0h2m1 0h1m2 0h1m1 0h1m3 0h1m1 0h2m1 0h4m1 0h1m1 0h2m1 0h1m1 0h1m2 0h3m3 0h1m4 0h2m2 0h1m1 0h1m1 0h1m4 0h2m2 0h1m3 0h4m1 0h2m2 0h1m1 0h2m5 0h1m1 0h1m1 0h1m3 0h1m1 0h2m1 0h2m1 0h5m1 0h2m1 0h2m1 0h3m3 0h3m-142 1h4m1 0h1m1 0h1m1 0h1m1 0h3m2 0h3m3 0h1m2 0h3m2 0h2m1 0h1m1 0h2m4 0h1m1 0h2m1 0h2m2 0h1m2 0h2m2 0h1m1 0h1m1 0h1m2 0h2m9 0h1m2 0h3m1 0h2m1 0h1m1 0h4m4 0h1m2 0h1m2 0h2m2 0h5m1 0h1m1 0h2m2 0h2m2 0h1m1 0h4m1 0h3m2 0h1m1 0h1m1 0h1m1 0h3m-143 1h1m2 0h2m3 0h2m2 0h2m1 0h1m3 0h4m3 0h1m2 0h1m1 0h2m3 0h2m2 0h1m2 0h1m1 0h2m4 0h1m1 0h6m3 0h1m2 0h1m1 0h1m3 0h3m2 0h1m1 0h1m2 0h2m1 0h1m3 0h1m2 0h4m4 0h2m1 0h1m1 0h1m1 0h3m1 0h1m3 0h4m4 0h2m2 0h3m3 0h5m3 0h1m3 0h1m-145 1h3m1 0h6m3 0h2m2 0h1m1 0h1m1 0h7m2 0h1m1 0h5m1 0h1m2 0h1m3 0h1m1 0h1m2 0h4m3 0h7m2 0h1m1 0h2m3 0h1m2 0h2m2 0h1m1 0h1m1 0h6m1 0h1m1 0h1m3 0h2m1 0h1m1 0h2m1 0h1m3 0h6m1 0h5m4 0h2m1 0h2m1 0h2m2 0h7m-142 1h2m2 0h1m2 0h4m1 0h1m1 0h2m1 0h1m1 0h2m1 0h1m1 0h4m3 0h2m1 0h1m1 0h1m1 0h2m1 0h1m2 0h3m3 0h2m1 0h2m1 0h1m1 0h1m2 0h1m1 0h1m2 0h3m5 0h2m2 0h1m2 0h1m9 0h2m1 0h2m1 0h1m5 0h1m2 0h1m1 0h1m2 0h2m1 0h1m1 0h1m1 0h3m1 0h5m1 0h2m1 0h5m1 0h1m1 0h1m2 0h1m1 0h1m-143 1h2m1 0h2m1 0h2m2 0h2m1 0h1m3 0h2m1 0h4m1 0h3m1 0h4m2 0h2m1 0h1m1 0h3m1 0h1m2 0h2m1 0h2m5 0h2m1 0h4m2 0h2m1 0h1m1 0h2m2 0h1m1 0h1m2 0h2m2 0h2m1 0h1m1 0h1m5 0h1m1 0h1m2 0h1m1 0h2m1 0h2m2 0h1m4 0h3m1 0h2m3 0h4m4 0h3m1 0h1m1 0h1m4 0h1m-143 1h4m1 0h3m2 0h2m1 0h1m1 0h1m1 0h2m4 0h1m1 0h1m1 0h2m1 0h3m1 0h2m1 0h2m1 0h4m5 0h3m2 0h4m1 0h2m1 0h2m3 0h5m1 0h4m4 0h1m4 0h2m1 0h3m3 0h4m4 0h2m2 0h1m3 0h5m1 0h2m2 0h1m2 0h1m1 0h1m1 0h1m1 0h1m1 0h1m1 0h1m2 0h2m1 0h1m-140 1h4m3 0h1m2 0h2m4 0h2m2 0h2m3 0h1m1 0h2m1 0h1m1 0h1m1 0h2m1 0h1m1 0h3m2 0h1m1 0h2m2 0h2m2 0h1m4 0h1m1 0h1m1 0h1m1 0h1m1 0h2m5 0h3m4 0h3m2 0h1m4 0h1m3 0h1m1 0h1m4 0h2m2 0h1m1 0h1m1 0h6m1 0h1m4 0h6m1 0h1m2 0h2m1 0h1m1 0h2m-142 1h4m1 0h1m2 0h2m1 0h3m1 0h2m1 0h2m1 0h1m1 0h2m4 0h1m2 0h2m4 0h1m1 0h4m2 0h3m1 0h1m2 0h1m1 0h1m1 0h1m1 0h3m5 0h2m1 0h1m2 0h4m2 0h1m1 0h1m1 0h4m2 0h3m4 0h1m2 0h1m1 0h1m1 0h2m1 0h1m4 0h1m4 0h2m1 0h1m1 0h1m1 0h1m1 0h2m2 0h1m1 0h3m3 0h1m1 0h1m2 0h3m-139 1h1m1 0h2m1 0h1m1 0h2m2 0h1m1 0h2m1 0h6m1 0h2m1 0h4m3 0h1m3 0h1m1 0h1m1 0h2m3 0h1m3 0h2m1 0h1m2 0h2m1 0h1m1 0h2m1 0h5m1 0h1m5 0h1m3 0h4m2 0h3m6 0h1m1 0h2m1 0h3m2 0h1m6 0h2m1 0h1m1 0h2m1 0h1m1 0h1m2 0h1m1 0h1m1 0h2m1 0h1m5 0h1m-143 1h1m2 0h1m3 0h1m2 0h1m1 0h1m2 0h2m6 0h2m2 0h1m2 0h7m1 0h3m1 0h2m1 0h3m3 0h1m1 0h4m1 0h2m1 0h2m1 0h2m1 0h1m2 0h1m2 0h1m3 0h1m3 0h1m3 0h3m3 0h1m1 0h2m1 0h1m1 0h1m3 0h1m3 0h2m2 0h1m2 0h1m1 0h1m1 0h2m3 0h2m4 0h1m1 0h1m1 0h1m2 0h2m1 0h1m3 0h1m-141 1h4m1 0h2m1 0h2m1 0h1m2 0h1m1 0h1m2 0h2m1 0h3m1 0h1m6 0h6m1 0h2m1 0h1m3 0h1m1 0h1m2 0h1m1 0h1m1 0h2m3 0h1m1 0h2m2 0h2m3 0h3m3 0h1m2 0h3m1 0h2m2 0h1m4 0h1m1 0h4m1 0h1m5 0h1m1 0h1m1 0h3m2 0h1m1 0h1m2 0h5m2 0h1m1 0h2m4 0h2m-142 1h1m1 0h1m1 0h1m3 0h2m2 0h4m2 0h1m1 0h3m3 0h3m2 0h2m2 0h1m1 0h2m1 0h2m2 0h3m1 0h10m4 0h4m1 0h5m1 0h5m2 0h1m1 0h1m2 0h4m1 0h1m2 0h2m2 0h1m2 0h1m3 0h1m1 0h2m2 0h2m2 0h1m3 0h2m1 0h4m1 0h1m4 0h2m1 0h6m2 0h1m1 0h1m-141 1h6m1 0h2m1 0h2m2 0h2m1 0h1m2 0h2m2 0h1m2 0h4m2 0h1m2 0h1m1 0h1m3 0h1m8 0h1m1 0h1m3 0h1m2 0h2m2 0h1m1 0h1m1 0h3m1 0h1m2 0h1m4 0h1m1 0h2m3 0h1m2 0h3m6 0h1m1 0h2m8 0h2m1 0h1m1 0h1m1 0h2m3 0h1m2 0h2m2 0h3m1 0h1m3 0h1m1 0h1m-142 1h3m2 0h1m1 0h1m1 0h3m1 0h2m2 0h2m3 0h1m3 0h1m1 0h1m1 0h3m3 0h1m1 0h5m1 0h4m1 0h1m3 0h2m1 0h1m2 0h3m1 0h2m6 0h1m1 0h1m1 0h4m3 0h1m2 0h4m1 0h2m2 0h1m1 0h1m3 0h2m1 0h1m1 0h3m2 0h5m1 0h4m1 0h2m1 0h3m3 0h1m2 0h2m2 0h1m1 0h2m-144 1h2m1 0h1m2 0h1m2 0h1m1 0h2m1 0h1m1 0h2m1 0h2m1 0h3m2 0h2m1 0h3m3 0h1m1 0h1m1 0h1m1 0h1m1 0h5m2 0h4m1 0h3m2 0h1m3 0h4m1 0h1m1 0h6m4 0h2m2 0h2m1 0h1m1 0h2m1 0h1m2 0h1m2 0h2m1 0h1m2 0h1m4 0h1m1 0h5m2 0h1m1 0h1m1 0h6m1 0h2m2 0h1m3 0h3m1 0h1m-144 1h1m1 0h1m2 0h1m2 0h1m1 0h2m1 0h1m3 0h2m2 0h2m3 0h5m1 0h2m2 0h3m2 0h1m1 0h1m3 0h1m2 0h7m1 0h1m1 0h1m3 0h1m1 0h4m4 0h5m1 0h1m2 0h2m3 0h1m1 0h1m3 0h1m1 0h2m1 0h1m6 0h1m4 0h2m3 0h1m2 0h6m1 0h1m4 0h1m1 0h4m1 0h1m3 0h1m-143 1h1m1 0h1m2 0h2m1 0h2m3 0h1m2 0h1m2 0h2m1 0h1m1 0h2m1 0h4m2 0h2m3 0h1m6 0h2m1 0h1m4 0h1m1 0h1m1 0h2m5 0h5m1 0h4m1 0h1m1 0h2m1 0h1m2 0h4m5 0h1m1 0h3m3 0h3m1 0h1m5 0h1m3 0h1m3 0h2m2 0h2m2 0h2m1 0h4m1 0h6m1 0h1m-142 1h3m1 0h1m2 0h3m3 0h2m1 0h6m1 0h1m1 0h1m1 0h2m1 0h1m1 0h1m1 0h1m2 0h1m2 0h5m1 0h4m2 0h1m1 0h1m3 0h3m3 0h2m1 0h2m1 0h1m1 0h2m2 0h1m1 0h1m1 0h2m1 0h7m2 0h2m1 0h2m1 0h1m2 0h4m3 0h5m3 0h2m2 0h6m1 0h2m2 0h4m1 0h3m5 0h1m-144 1h1m3 0h4m1 0h2m2 0h1m2 0h1m2 0h2m1 0h5m1 0h2m1 0h2m5 0h2m2 0h1m2 0h4m1 0h1m4 0h2m1 0h3m2 0h1m1 0h1m2 0h2m2 0h1m2 0h4m1 0h1m2 0h1m1 0h1m1 0h2m2 0h2m4 0h1m1 0h1m1 0h2m10 0h1m1 0h2m2 0h1m1 0h1m2 0h2m1 0h2m2 0h1m1 0h2m4 0h1m1 0h1m-143 1h6m2 0h3m1 0h1m1 0h2m3 0h4m1 0h1m1 0h1m1 0h1m3 0h1m1 0h1m1 0h2m1 0h1m1 0h1m1 0h2m1 0h2m3 0h3m1 0h1m1 0h2m1 0h1m3 0h3m1 0h2m1 0h1m1 0h1m1 0h1m2 0h3m2 0h2m8 0h2m2 0h1m5 0h1m2 0h1m1 0h1m1 0h4m2 0h1m1 0h2m1 0h4m1 0h1m1 0h2m1 0h1m2 0h3m2 0h1m2 0h1m-142 1h1m3 0h2m3 0h1m2 0h1m1 0h1m1 0h1m1 0h5m2 0h3m3 0h1m2 0h1m1 0h5m5 0h5m1 0h2m1 0h4m2 0h2m1 0h1m1 0h1m1 0h2m1 0h4m1 0h1m1 0h2m2 0h1m1 0h2m1 0h1m1 0h1m2 0h1m1 0h2m4 0h3m1 0h2m2 0h1m1 0h2m2 0h2m1 0h1m1 0h4m1 0h4m1 0h1m1 0h5m6 0h2m-142 1h2m3 0h3m2 0h4m1 0h6m6 0h1m4 0h3m3 0h8m2 0h1m1 0h4m1 0h2m4 0h1m3 0h1m2 0h1m1 0h1m4 0h1m1 0h1m1 0h3m1 0h1m2 0h2m1 0h3m3 0h1m1 0h4m2 0h3m1 0h1m7 0h1m1 0h1m1 0h1m3 0h3m1 0h1m1 0h1m1 0h1m3 0h1m1 0h1m2 0h2m-141 1h1m1 0h1m1 0h2m2 0h3m3 0h4m1 0h2m2 0h5m1 0h2m1 0h1m2 0h3m6 0h1m1 0h1m2 0h1m1 0h1m1 0h2m1 0h1m3 0h1m1 0h1m2 0h1m4 0h3m1 0h1m1 0h3m1 0h1m1 0h1m1 0h2m1 0h2m7 0h1m1 0h2m1 0h1m3 0h2m2 0h1m1 0h1m1 0h2m1 0h1m4 0h2m1 0h3m1 0h1m2 0h1m6 0h1m-142 1h1m2 0h1m3 0h4m1 0h1m4 0h1m4 0h1m3 0h1m1 0h1m6 0h3m1 0h1m2 0h2m1 0h2m1 0h3m5 0h3m1 0h1m2 0h5m1 0h3m3 0h1m1 0h2m2 0h3m1 0h3m1 0h2m1 0h2m2 0h1m2 0h2m1 0h1m2 0h1m1 0h1m1 0h2m4 0h2m1 0h3m1 0h4m1 0h2m1 0h4m2 0h3m1 0h4m-145 1h1m1 0h1m1 0h8m1 0h3m1 0h1m1 0h1m3 0h1m3 0h1m1 0h1m2 0h6m1 0h1m1 0h1m1 0h2m1 0h2m3 0h4m1 0h7m1 0h3m5 0h1m6 0h1m1 0h10m2 0h7m1 0h1m1 0h1m1 0h1m2 0h1m1 0h5m5 0h2m1 0h1m2 0h1m1 0h1m2 0h11m2 0h1m-145 1h2m2 0h1m3 0h2m1 0h1m3 0h1m2 0h2m1 0h1m1 0h5m1 0h4m3 0h3m2 0h1m1 0h1m2 0h1m1 0h2m8 0h1m3 0h1m1 0h4m2 0h1m1 0h2m5 0h4m1 0h1m3 0h1m2 0h2m1 0h1m2 0h1m2 0h1m1 0h2m1 0h1m1 0h4m3 0h3m7 0h4m1 0h1m2 0h1m1 0h3m3 0h1m-141 1h1m1 0h3m1 0h1m1 0h4m1 0h2m2 0h3m1 0h2m3 0h4m1 0h2m1 0h1m1 0h1m3 0h1m1 0h1m3 0h1m1 0h2m2 0h1m3 0h3m1 0h1m1 0h1m3 0h2m2 0h1m1 0h1m1 0h1m2 0h2m1 0h1m1 0h3m1 0h1m1 0h1m3 0h1m4 0h2m1 0h4m2 0h1m3 0h1m1 0h1m1 0h4m1 0h2m1 0h1m1 0h2m1 0h4m1 0h1m2 0h2m1 0h1m1 0h1m1 0h1m-141 1h3m3 0h3m2 0h2m1 0h1m6 0h1m2 0h4m1 0h2m3 0h1m2 0h3m2 0h7m1 0h2m1 0h1m2 0h1m3 0h2m1 0h1m2 0h2m8 0h1m2 0h4m3 0h2m4 0h1m2 0h1m8 0h3m1 0h1m3 0h1m1 0h2m1 0h1m2 0h2m1 0h2m2 0h1m1 0h2m1 0h3m3 0h3m1 0h1m-142 1h6m1 0h1m1 0h1m2 0h1m3 0h1m3 0h1m1 0h3m1 0h1m1 0h8m2 0h4m5 0h1m5 0h12m3 0h1m1 0h1m3 0h1m2 0h2m1 0h8m1 0h2m3 0h1m1 0h1m1 0h2m3 0h1m2 0h7m1 0h1m1 0h2m3 0h4m1 0h3m1 0h1m2 0h6m1 0h2m-145 1h2m5 0h2m8 0h1m1 0h3m2 0h2m2 0h1m4 0h1m1 0h1m1 0h1m1 0h1m2 0h1m2 0h3m1 0h1m1 0h1m3 0h1m1 0h1m4 0h1m1 0h2m2 0h1m3 0h2m2 0h1m2 0h1m3 0h2m1 0h1m2 0h2m1 0h3m1 0h2m6 0h2m4 0h3m1 0h3m1 0h3m1 0h1m3 0h1m3 0h4m2 0h1m-137 1h1m1 0h1m1 0h1m1 0h1m3 0h1m2 0h2m1 0h5m1 0h6m1 0h1m1 0h1m2 0h1m1 0h1m1 0h2m2 0h3m1 0h2m1 0h1m1 0h2m1 0h1m2 0h1m1 0h2m1 0h1m1 0h1m4 0h2m1 0h1m2 0h1m1 0h2m2 0h1m1 0h1m1 0h4m2 0h1m1 0h2m2 0h1m2 0h2m1 0h1m7 0h1m1 0h2m1 0h3m1 0h1m4 0h1m2 0h5m4 0h3m-139 1h1m1 0h1m3 0h3m1 0h1m3 0h2m1 0h2m1 0h1m2 0h2m1 0h2m2 0h2m2 0h1m1 0h2m2 0h2m2 0h1m2 0h1m2 0h4m7 0h1m2 0h2m1 0h1m1 0h3m1 0h7m1 0h1m5 0h3m1 0h1m4 0h1m2 0h1m3 0h1m1 0h1m1 0h2m2 0h3m1 0h2m1 0h1m2 0h2m1 0h2m4 0h1m2 0h1m1 0h2m3 0h2m1 0h1m-143 1h1m1 0h4m2 0h4m1 0h1m1 0h5m1 0h1m3 0h2m1 0h1m3 0h1m1 0h8m1 0h2m4 0h2m4 0h2m1 0h5m2 0h2m4 0h5m1 0h2m2 0h1m3 0h3m2 0h2m1 0h4m3 0h2m1 0h1m1 0h4m1 0h5m4 0h1m2 0h1m3 0h2m2 0h1m1 0h1m2 0h1m2 0h1m1 0h3m-144 1h2m1 0h1m4 0h1m1 0h2m1 0h1m1 0h1m2 0h1m5 0h1m1 0h1m5 0h1m1 0h1m1 0h2m3 0h2m2 0h3m1 0h4m3 0h1m2 0h1m1 0h1m3 0h1m2 0h3m1 0h2m1 0h1m1 0h1m2 0h3m2 0h3m1 0h1m2 0h2m2 0h4m3 0h1m1 0h1m3 0h1m5 0h1m2 0h1m5 0h2m14 0h2m-142 1h1m1 0h1m2 0h3m3 0h1m1 0h4m1 0h1m5 0h1m1 0h1m1 0h5m2 0h1m2 0h1m2 0h1m2 0h7m4 0h2m2 0h1m5 0h6m1 0h1m2 0h3m2 0h1m1 0h1m3 0h1m1 0h1m1 0h1m1 0h1m3 0h1m2 0h2m1 0h1m1 0h1m6 0h6m1 0h2m1 0h1m2 0h5m1 0h2m2 0h1m-135 1h2m4 0h1m3 0h1m3 0h1m1 0h3m7 0h2m1 0h3m4 0h1m1 0h1m1 0h4m2 0h2m4 0h4m2 0h1m2 0h2m1 0h3m3 0h1m1 0h1m1 0h4m1 0h3m2 0h1m2 0h2m1 0h1m1 0h3m3 0h2m3 0h1m1 0h2m1 0h1m6 0h2m1 0h1m1 0h3m1 0h2m1 0h1m2 0h1m1 0h2m1 0h1m3 0h1m1 0h2m-143 1h2m1 0h3m1 0h4m2 0h1m2 0h6m1 0h2m1 0h4m3 0h3m1 0h1m1 0h1m1 0h3m1 0h1m1 0h5m1 0h6m1 0h4m3 0h3m1 0h4m1 0h2m1 0h1m1 0h1m1 0h1m2 0h1m2 0h2m2 0h3m1 0h3m1 0h2m4 0h3m1 0h1m1 0h1m1 0h3m1 0h3m2 0h3m3 0h2m1 0h1m5 0h3m1 0h1m-145 1h1m2 0h1m3 0h1m1 0h1m2 0h1m2 0h4m2 0h1m3 0h1m2 0h1m1 0h1m5 0h1m1 0h3m4 0h1m3 0h1m3 0h1m1 0h2m3 0h1m1 0h1m1 0h3m1 0h2m3 0h1m1 0h1m2 0h1m2 0h1m1 0h3m2 0h1m1 0h1m3 0h1m2 0h2m5 0h3m3 0h3m1 0h3m3 0h1m1 0h4m1 0h2m1 0h3m1 0h2m7 0h1m-142 1h1m3 0h1m1 0h2m1 0h1m1 0h3m1 0h3m3 0h2m2 0h3m2 0h1m4 0h1m1 0h1m1 0h3m1 0h4m3 0h1m2 0h1m2 0h3m1 0h4m1 0h1m4 0h2m3 0h2m1 0h1m1 0h1m2 0h2m1 0h2m1 0h1m5 0h1m2 0h2m1 0h1m1 0h2m4 0h1m1 0h2m1 0h2m2 0h1m1 0h1m4 0h3m1 0h2m4 0h3m1 0h3m-144 1h1m2 0h1m1 0h1m3 0h2m3 0h5m4 0h2m2 0h1m2 0h5m7 0h2m3 0h3m8 0h1m1 0h1m2 0h2m2 0h1m5 0h1m6 0h1m1 0h3m1 0h1m2 0h1m2 0h1m1 0h2m4 0h1m2 0h1m2 0h1m2 0h1m4 0h1m3 0h6m1 0h2m1 0h2m1 0h1m1 0h1m1 0h2m2 0h1m2 0h1m1 0h1m-145 1h1m3 0h3m1 0h1m1 0h3m1 0h1m1 0h3m1 0h1m1 0h2m1 0h2m2 0h4m2 0h1m1 0h1m1 0h1m6 0h3m1 0h3m5 0h6m2 0h1m1 0h2m3 0h2m1 0h2m1 0h3m1 0h3m1 0h2m1 0h2m4 0h1m1 0h1m3 0h3m1 0h1m7 0h1m1 0h4m2 0h1m2 0h2m1 0h1m1 0h3m3 0h1m1 0h1m1 0h1m1 0h1m1 0h1m-145 1h2m2 0h1m3 0h1m1 0h6m1 0h2m1 0h1m2 0h3m1 0h2m1 0h5m1 0h3m1 0h1m1 0h4m1 0h1m3 0h1m2 0h2m1 0h1m2 0h2m2 0h2m1 0h4m1 0h2m2 0h2m1 0h1m3 0h2m4 0h1m2 0h1m4 0h2m4 0h6m5 0h1m5 0h3m2 0h1m1 0h3m1 0h1m3 0h1m1 0h1m1 0h1m2 0h2m-143 1h2m3 0h6m1 0h3m2 0h3m12 0h2m3 0h1m3 0h2m1 0h1m2 0h1m4 0h1m1 0h3m1 0h6m7 0h1m1 0h1m7 0h2m2 0h3m2 0h1m1 0h1m3 0h1m2 0h2m1 0h1m2 0h1m2 0h1m2 0h1m3 0h2m1 0h2m7 0h5m4 0h5m1 0h1m-143 1h3m4 0h1m1 0h1m1 0h2m1 0h4m1 0h2m3 0h2m1 0h1m1 0h2m1 0h1m1 0h1m2 0h3m1 0h2m1 0h1m1 0h5m3 0h1m3 0h2m1 0h2m1 0h4m2 0h1m1 0h2m1 0h1m2 0h3m3 0h1m1 0h2m2 0h2m2 0h1m3 0h2m2 0h1m2 0h2m2 0h1m2 0h2m1 0h2m1 0h2m1 0h5m1 0h1m2 0h1m2 0h1m1 0h1m5 0h1m1 0h1m-144 1h3m1 0h3m3 0h2m2 0h1m4 0h1m5 0h1m2 0h1m2 0h1m2 0h1m1 0h1m8 0h1m3 0h1m1 0h1m2 0h1m2 0h1m1 0h1m3 0h3m1 0h2m2 0h1m2 0h1m2 0h3m1 0h1m6 0h2m2 0h1m4 0h7m1 0h1m1 0h3m1 0h1m3 0h2m2 0h1m1 0h1m3 0h3m2 0h3m2 0h1m3 0h1m1 0h3m-145 1h2m2 0h2m1 0h2m3 0h2m2 0h2m1 0h1m4 0h1m1 0h5m1 0h1m2 0h1m2 0h1m2 0h1m1 0h1m1 0h2m1 0h6m2 0h2m1 0h2m3 0h1m2 0h1m2 0h1m1 0h1m1 0h1m1 0h2m2 0h1m3 0h1m2 0h4m1 0h2m2 0h1m1 0h1m3 0h1m1 0h1m1 0h4m1 0h1m4 0h1m2 0h5m2 0h1m2 0h1m1 0h3m4 0h3m1 0h2m-144 1h3m3 0h3m1 0h1m2 0h2m7 0h1m2 0h2m1 0h1m1 0h3m2 0h3m1 0h1m1 0h2m1 0h2m1 0h5m1 0h1m3 0h10m2 0h2m1 0h2m1 0h1m2 0h2m4 0h1m2 0h1m2 0h1m2 0h2m2 0h2m1 0h4m1 0h2m4 0h7m1 0h2m1 0h1m2 0h1m1 0h1m1 0h1m2 0h1m1 0h1m3 0h1m1 0h1m1 0h1m-141 1h3m3 0h1m2 0h1m1 0h1m1 0h3m1 0h4m1 0h1m1 0h2m1 0h2m1 0h1m4 0h3m2 0h1m3 0h2m1 0h3m1 0h2m1 0h2m2 0h1m1 0h3m4 0h1m1 0h2m3 0h2m4 0h2m1 0h1m1 0h2m1 0h2m3 0h3m2 0h1m3 0h1m1 0h1m1 0h1m1 0h2m1 0h1m2 0h2m1 0h3m1 0h2m3 0h2m1 0h1m2 0h1m1 0h1m2 0h1m2 0h3m-143 1h2m2 0h2m1 0h1m2 0h1m1 0h1m3 0h1m1 0h3m3 0h1m2 0h1m1 0h1m1 0h5m4 0h1m1 0h2m1 0h4m1 0h1m3 0h1m1 0h1m3 0h4m1 0h1m1 0h2m2 0h3m1 0h3m1 0h1m1 0h5m1 0h1m4 0h1m2 0h1m2 0h1m3 0h1m2 0h1m1 0h2m2 0h1m3 0h1m5 0h2m2 0h1m10 0h1m1 0h1m3 0h1m-145 1h2m1 0h2m2 0h2m5 0h1m3 0h6m1 0h2m1 0h4m1 0h1m5 0h1m2 0h1m1 0h2m1 0h1m1 0h6m2 0h1m1 0h1m1 0h1m1 0h2m3 0h1m2 0h1m1 0h5m5 0h2m1 0h3m1 0h1m2 0h2m1 0h3m1 0h1m1 0h1m3 0h1m1 0h1m1 0h1m1 0h1m1 0h1m1 0h1m1 0h1m1 0h2m1 0h2m1 0h2m1 0h1m1 0h3m1 0h2m4 0h1m1 0h2m-144 1h1m1 0h9m4 0h1m1 0h2m1 0h1m2 0h2m1 0h1m1 0h1m2 0h5m1 0h1m1 0h2m1 0h6m1 0h1m2 0h2m2 0h6m1 0h4m1 0h2m2 0h1m2 0h1m3 0h3m1 0h7m3 0h1m5 0h1m1 0h1m3 0h1m3 0h11m2 0h1m1 0h1m1 0h4m1 0h1m3 0h5m-141 1h5m3 0h1m2 0h1m2 0h3m1 0h2m2 0h1m2 0h1m1 0h6m3 0h3m1 0h1m2 0h1m1 0h3m2 0h1m3 0h1m1 0h1m1 0h1m3 0h2m1 0h1m3 0h1m1 0h3m2 0h2m1 0h2m2 0h2m3 0h7m1 0h2m1 0h2m3 0h1m1 0h1m2 0h2m3 0h1m1 0h1m2 0h1m2 0h3m6 0h1m1 0h2m1 0h1m3 0h1m1 0h3m-143 1h1m1 0h1m1 0h1m1 0h3m4 0h1m1 0h2m1 0h2m4 0h1m2 0h1m2 0h1m1 0h1m1 0h1m1 0h1m1 0h3m2 0h1m2 0h3m2 0h1m1 0h4m1 0h1m1 0h2m2 0h1m1 0h1m1 0h3m5 0h1m1 0h1m2 0h2m1 0h1m1 0h1m1 0h2m1 0h1m1 0h7m1 0h1m1 0h1m3 0h2m1 0h1m1 0h1m2 0h1m4 0h1m2 0h1m1 0h1m1 0h1m1 0h1m1 0h4m1 0h1m1 0h1m-139 1h1m1 0h1m3 0h1m2 0h1m1 0h1m1 0h2m1 0h1m2 0h1m1 0h3m2 0h3m1 0h1m3 0h4m3 0h3m1 0h2m1 0h3m1 0h1m1 0h3m3 0h4m1 0h1m1 0h1m1 0h1m1 0h1m1 0h2m2 0h3m2 0h1m3 0h1m1 0h3m1 0h1m1 0h1m1 0h1m2 0h2m1 0h1m1 0h1m1 0h1m1 0h1m3 0h1m2 0h5m2 0h2m1 0h1m1 0h1m2 0h1m3 0h1m3 0h5m-145 1h2m1 0h7m1 0h2m3 0h5m1 0h1m2 0h1m3 0h10m1 0h1m4 0h3m1 0h1m4 0h3m1 0h5m3 0h1m1 0h4m4 0h2m1 0h2m2 0h7m2 0h2m3 0h2m3 0h2m1 0h1m4 0h5m2 0h1m1 0h2m2 0h1m1 0h2m2 0h2m1 0h1m2 0h8m-143 1h1m1 0h1m1 0h1m2 0h1m3 0h1m3 0h1m2 0h1m2 0h1m3 0h5m3 0h4m1 0h3m2 0h1m2 0h4m1 0h1m2 0h4m2 0h3m7 0h2m3 0h3m3 0h1m2 0h3m3 0h1m2 0h3m1 0h1m1 0h1m3 0h1m1 0h3m2 0h5m1 0h1m2 0h1m2 0h2m2 0h1m1 0h2m1 0h1m1 0h2m2 0h3m2 0h1m-137 1h3m1 0h4m1 0h1m3 0h1m2 0h1m1 0h1m3 0h2m2 0h1m1 0h3m4 0h2m1 0h1m1 0h1m1 0h2m1 0h1m1 0h1m3 0h1m1 0h4m1 0h6m2 0h2m2 0h1m1 0h11m2 0h1m2 0h1m1 0h5m2 0h1m1 0h2m2 0h1m2 0h5m4 0h2m2 0h6m3 0h1m2 0h2m1 0h3m1 0h1m-145 1h2m2 0h1m4 0h1m1 0h5m6 0h4m7 0h1m1 0h2m1 0h1m3 0h3m1 0h2m2 0h1m1 0h1m2 0h3m1 0h2m4 0h1m4 0h2m1 0h2m2 0h2m1 0h1m1 0h3m2 0h1m2 0h2m5 0h1m3 0h5m7 0h1m1 0h1m2 0h2m1 0h1m2 0h1m1 0h2m3 0h3m1 0h4m1 0h2m-138 1h1m1 0h1m1 0h1m1 0h1m8 0h1m2 0h5m1 0h2m5 0h2m1 0h1m2 0h5m1 0h3m1 0h1m1 0h5m2 0h1m1 0h3m3 0h4m1 0h3m1 0h1m1 0h1m1 0h3m1 0h1m2 0h2m1 0h3m4 0h1m3 0h2m1 0h1m3 0h4m4 0h4m1 0h1m2 0h2m2 0h1m2 0h1m2 0h4m1 0h1m-138 1h1m1 0h1m1 0h4m1 0h2m2 0h1m1 0h2m1 0h2m1 0h2m5 0h3m2 0h1m2 0h1m1 0h2m1 0h2m1 0h8m1 0h1m1 0h1m1 0h2m7 0h4m2 0h1m1 0h1m1 0h2m1 0h5m2 0h1m1 0h4m1 0h2m1 0h1m3 0h1m2 0h3m4 0h2m1 0h2m1 0h1m2 0h5m1 0h2m1 0h1m1 0h2m3 0h3m1 0h1m1 0h1m-144 1h4m1 0h2m1 0h2m1 0h4m3 0h1m3 0h4m4 0h1m1 0h1m2 0h1m2 0h2m1 0h2m4 0h2m2 0h2m1 0h1m1 0h1m2 0h1m2 0h2m2 0h2m1 0h1m1 0h1m1 0h1m1 0h1m2 0h3m1 0h1m1 0h1m2 0h4m2 0h7m1 0h2m1 0h1m1 0h1m1 0h1m1 0h1m1 0h5m2 0h1m1 0h1m2 0h5m2 0h1m1 0h5m4 0h2m-145 1h1m1 0h3m3 0h1m1 0h2m2 0h3m1 0h1m4 0h1m1 0h1m3 0h8m3 0h1m1 0h4m1 0h1m2 0h1m1 0h1m2 0h5m6 0h1m2 0h1m1 0h1m5 0h1m2 0h1m3 0h1m1 0h2m1 0h1m1 0h1m1 0h1m3 0h1m4 0h1m1 0h1m2 0h2m3 0h2m1 0h1m1 0h1m2 0h4m2 0h4m2 0h1m1 0h3m1 0h3m1 0h2m-144 1h5m1 0h1m5 0h3m1 0h4m1 0h5m2 0h2m6 0h1m2 0h1m1 0h1m3 0h4m1 0h1m1 0h4m1 0h1m2 0h1m1 0h3m6 0h3m1 0h1m1 0h2m4 0h1m2 0h1m2 0h1m1 0h2m9 0h2m2 0h1m2 0h1m1 0h1m5 0h2m1 0h1m1 0h1m2 0h8m2 0h2m3 0h2m1 0h1m-144 1h2m1 0h2m2 0h3m1 0h2m2 0h1m1 0h4m1 0h2m1 0h1m3 0h1m2 0h2m2 0h1m1 0h1m3 0h1m4 0h3m1 0h2m1 0h2m3 0h3m5 0h6m1 0h2m4 0h4m1 0h1m3 0h1m1 0h5m1 0h1m1 0h1m3 0h1m2 0h1m4 0h4m1 0h2m1 0h2m1 0h2m1 0h2m2 0h1m1 0h1m2 0h1m2 0h2m3 0h2m-142 1h1m1 0h3m1 0h1m1 0h1m1 0h1m1 0h2m1 0h1m2 0h1m2 0h1m2 0h1m1 0h1m1 0h1m2 0h1m1 0h3m1 0h2m3 0h1m1 0h1m6 0h6m1 0h1m2 0h1m1 0h3m4 0h2m6 0h1m1 0h1m1 0h1m4 0h1m1 0h1m3 0h1m1 0h1m1 0h2m1 0h3m2 0h3m1 0h6m1 0h2m1 0h2m2 0h2m1 0h4m5 0h5m1 0h2m-145 1h3m1 0h2m1 0h1m1 0h1m4 0h3m4 0h3m5 0h1m2 0h1m1 0h4m1 0h5m1 0h1m1 0h1m3 0h1m1 0h1m1 0h1m3 0h1m1 0h1m2 0h2m1 0h3m3 0h4m1 0h2m4 0h4m2 0h1m2 0h7m2 0h1m1 0h1m3 0h2m2 0h2m1 0h1m1 0h1m1 0h2m3 0h3m5 0h1m1 0h4m2 0h1m-139 1h3m1 0h4m3 0h1m1 0h3m1 0h4m3 0h2m3 0h2m2 0h1m2 0h2m2 0h1m5 0h1m1 0h2m2 0h3m4 0h1m1 0h1m2 0h1m3 0h1m1 0h2m2 0h2m1 0h1m1 0h1m1 0h4m1 0h4m1 0h1m6 0h1m1 0h2m2 0h1m9 0h5m1 0h2m1 0h1m2 0h2m1 0h2m2 0h4m1 0h1m-138 1h2m3 0h3m1 0h1m3 0h2m1 0h2m1 0h2m2 0h3m6 0h2m1 0h1m2 0h4m2 0h2m1 0h1m4 0h1m4 0h1m2 0h2m1 0h1m1 0h1m1 0h1m2 0h4m1 0h1m1 0h2m1 0h1m1 0h2m1 0h3m1 0h1m1 0h1m1 0h2m8 0h3m1 0h5m1 0h1m1 0h6m1 0h2m2 0h1m1 0h2m1 0h1m1 0h1m2 0h1m2 0h3m-144 1h1m1 0h1m1 0h5m1 0h4m1 0h3m1 0h1m1 0h1m2 0h1m1 0h1m2 0h1m1 0h2m3 0h3m1 0h1m1 0h1m2 0h1m2 0h3m2 0h3m3 0h6m3 0h1m4 0h1m1 0h2m3 0h2m1 0h3m1 0h1m1 0h1m4 0h3m1 0h1m2 0h1m1 0h2m2 0h8m1 0h2m1 0h6m1 0h2m5 0h1m2 0h3m1 0h1m1 0h1m-144 1h5m2 0h1m1 0h1m2 0h1m2 0h6m3 0h3m1 0h1m3 0h3m1 0h2m2 0h1m2 0h1m1 0h1m1 0h1m5 0h1m1 0h1m4 0h2m1 0h3m1 0h3m1 0h5m1 0h2m1 0h2m1 0h1m1 0h4m1 0h1m1 0h2m4 0h1m7 0h4m2 0h1m3 0h2m1 0h4m2 0h2m3 0h1m1 0h1m1 0h3m1 0h1m1 0h2m2 0h1m-140 1h2m1 0h1m1 0h1m1 0h1m5 0h2m3 0h1m1 0h1m1 0h1m3 0h1m1 0h1m1 0h1m1 0h3m1 0h3m2 0h1m2 0h3m2 0h1m4 0h1m4 0h1m1 0h2m2 0h2m2 0h2m1 0h2m2 0h1m1 0h1m4 0h1m1 0h3m1 0h1m5 0h1m4 0h1m7 0h1m1 0h4m1 0h1m2 0h1m1 0h1m1 0h4m1 0h1m2 0h3m4 0h1m-138 1h1m3 0h1m1 0h4m3 0h1m1 0h2m2 0h2m2 0h2m1 0h1m1 0h4m1 0h1m1 0h5m1 0h1m3 0h6m1 0h1m1 0h1m2 0h1m1 0h1m3 0h1m2 0h1m3 0h1m5 0h5m3 0h2m1 0h1m2 0h1m1 0h1m1 0h1m1 0h1m1 0h2m1 0h3m3 0h1m1 0h1m2 0h1m1 0h1m2 0h5m2 0h1m1 0h2m1 0h3m1 0h3m1 0h1m1 0h1m-145 1h3m1 0h1m1 0h1m1 0h2m1 0h1m2 0h2m2 0h1m3 0h4m1 0h1m2 0h1m1 0h2m1 0h2m2 0h1m2 0h2m2 0h1m1 0h1m3 0h2m1 0h1m4 0h1m2 0h1m1 0h1m1 0h4m1 0h1m1 0h3m4 0h2m3 0h1m2 0h1m2 0h4m1 0h1m2 0h2m1 0h3m2 0h3m1 0h3m3 0h2m4 0h1m1 0h2m3 0h1m1 0h1m4 0h2m2 0h1m1 0h1m-145 1h4m1 0h1m3 0h1m2 0h1m1 0h2m1 0h1m1 0h1m8 0h2m2 0h2m1 0h1m1 0h2m1 0h2m1 0h1m2 0h1m2 0h1m3 0h1m1 0h2m1 0h2m2 0h2m2 0h2m3 0h1m1 0h4m2 0h1m3 0h1m1 0h1m1 0h1m1 0h2m1 0h2m1 0h2m1 0h3m3 0h1m1 0h1m2 0h1m4 0h2m1 0h1m1 0h3m2 0h5m1 0h1m1 0h6m2 0h1m2 0h1m-144 1h1m1 0h1m3 0h1m2 0h2m1 0h1m2 0h1m1 0h2m4 0h4m3 0h2m1 0h8m1 0h5m4 0h1m1 0h1m2 0h3m1 0h1m1 0h4m1 0h3m4 0h1m1 0h3m5 0h2m1 0h1m1 0h5m3 0h1m2 0h4m1 0h1m4 0h1m2 0h1m2 0h2m2 0h1m2 0h1m1 0h1m1 0h3m2 0h1m2 0h1m1 0h5m1 0h1m-143 1h2m5 0h2m2 0h2m1 0h2m2 0h4m3 0h1m3 0h2m2 0h2m1 0h2m1 0h4m2 0h8m1 0h3m1 0h1m2 0h4m1 0h5m4 0h2m2 0h4m3 0h1m3 0h4m2 0h1m1 0h1m4 0h1m1 0h2m1 0h1m3 0h2m3 0h2m1 0h4m1 0h1m4 0h2m1 0h4m1 0h1m2 0h3m-145 1h1m1 0h2m1 0h2m2 0h1m1 0h3m3 0h1m3 0h1m2 0h3m1 0h2m1 0h7m2 0h3m1 0h2m2 0h1m4 0h3m1 0h6m2 0h1m2 0h2m4 0h1m4 0h1m2 0h7m5 0h6m3 0h1m1 0h1m1 0h1m1 0h8m1 0h1m1 0h1m1 0h1m4 0h1m2 0h2m2 0h8m-134 1h1m1 0h1m1 0h7m1 0h2m6 0h2m1 0h2m3 0h1m2 0h1m2 0h1m5 0h3m1 0h1m1 0h5m3 0h3m1 0h2m2 0h2m3 0h1m2 0h4m1 0h2m3 0h1m1 0h1m2 0h2m2 0h1m1 0h1m3 0h4m2 0h2m3 0h1m1 0h2m1 0h2m1 0h2m1 0h1m3 0h1m6 0h1m3 0h1m-141 1h7m1 0h2m1 0h3m1 0h1m4 0h1m1 0h3m2 0h1m4 0h1m1 0h1m1 0h1m1 0h1m1 0h2m1 0h1m1 0h4m2 0h2m3 0h1m1 0h1m1 0h1m1 0h1m2 0h5m2 0h1m1 0h2m1 0h1m3 0h2m1 0h1m1 0h1m1 0h2m1 0h2m1 0h1m2 0h1m2 0h2m1 0h1m1 0h2m2 0h2m1 0h1m1 0h1m1 0h2m2 0h1m4 0h2m1 0h2m1 0h2m1 0h3m1 0h1m1 0h1m-141 1h1m5 0h1m1 0h1m1 0h2m6 0h1m2 0h2m2 0h1m1 0h1m1 0h1m2 0h1m3 0h3m5 0h4m2 0h3m4 0h2m3 0h3m1 0h3m1 0h2m5 0h2m1 0h2m1 0h2m3 0h1m5 0h1m1 0h2m1 0h1m6 0h2m1 0h2m3 0h1m1 0h1m2 0h2m1 0h2m1 0h2m4 0h1m1 0h2m1 0h1m3 0h1m1 0h2m-144 1h1m1 0h3m1 0h1m1 0h2m10 0h1m1 0h1m1 0h1m1 0h3m1 0h1m1 0h5m1 0h1m3 0h2m10 0h2m1 0h7m1 0h4m1 0h4m1 0h4m1 0h1m3 0h6m2 0h1m1 0h4m3 0h2m1 0h1m1 0h1m1 0h9m1 0h2m1 0h1m1 0h2m1 0h1m1 0h7m1 0h7m-143 1h1m1 0h3m1 0h1m2 0h1m5 0h1m2 0h4m1 0h1m5 0h1m2 0h3m2 0h1m2 0h3m1 0h2m1 0h1m1 0h1m2 0h2m1 0h6m1 0h2m1 0h1m1 0h4m3 0h1m1 0h1m1 0h1m1 0h1m1 0h2m3 0h1m1 0h2m2 0h1m1 0h2m1 0h7m1 0h2m1 0h2m1 0h1m1 0h4m2 0h4m2 0h3m2 0h2m1 0h2m1 0h3m1 0h1m2 0h1m-145 1h1m1 0h3m1 0h1m3 0h2m3 0h2m1 0h4m1 0h2m2 0h1m2 0h1m2 0h2m1 0h1m2 0h2m2 0h1m4 0h2m1 0h1m1 0h2m5 0h2m1 0h1m2 0h1m4 0h1m5 0h3m2 0h2m1 0h1m2 0h1m1 0h1m2 0h1m3 0h1m1 0h2m1 0h2m2 0h1m2 0h3m2 0h1m1 0h2m2 0h1m1 0h2m1 0h2m1 0h2m2 0h1m1 0h2m1 0h3m3 0h1m-144 1h1m5 0h1m2 0h2m1 0h4m1 0h2m1 0h3m1 0h1m1 0h5m2 0h1m1 0h1m1 0h1m1 0h1m1 0h1m1 0h1m2 0h3m2 0h2m1 0h2m1 0h2m1 0h2m3 0h2m1 0h3m1 0h1m5 0h4m5 0h2m1 0h5m2 0h1m5 0h1m2 0h1m2 0h1m1 0h3m4 0h2m1 0h3m1 0h2m2 0h1m1 0h1m1 0h3m2 0h1m3 0h2m-144 1h7m3 0h1m2 0h1m2 0h1m1 0h1m2 0h3m3 0h1m2 0h1m2 0h2m2 0h4m1 0h1m1 0h1m2 0h1m1 0h3m1 0h2m1 0h1m1 0h1m3 0h1m1 0h2m1 0h1m1 0h1m3 0h2m2 0h1m1 0h3m8 0h1m2 0h1m1 0h3m1 0h1m1 0h3m2 0h10m2 0h1m1 0h3m1 0h1m2 0h1m2 0h1m1 0h4m2 0h2m2 0h3"/></svg>
