<?xml version="1.0" encoding="UTF-8"?>
<svg xmlns="http://www.w3.org/2000/svg" height="1480" width="1480" class="pyqrcode"><path transform="scale(8)" stroke="#000" class="pyqrline" d="M4 4.5h7m1 0h1m2 0h1m1 0h1m1 0h1m2 0h2m2 0h2m2 0h1m1 0h2m2 0h1m2 0h2m3 0h2m3 0h1m3 0h3m2 0h1m1 0h1m2 0h1m4 0h1m1 0h1m6 0h2m1 0h2m2 0h1m1 0h1m1 0h3m1 0h1m1 0h5m1 0h1m1 0h2m2 0h2m3 0h1m2 0h2m1 0h2m3 0h3m4 0h3m2 0h1m1 0h2m3 0h3m4 0h1m1 0h3m2 0h2m6 0h4m1 0h1m1 0h1m3 0h7m-177 1h1m5 0h1m1 0h3m1 0h2m2 0h5m3 0h2m1 0h3m4 0h4m1 0h3m1 0h1m1 0h5m1 0h3m1 0h1m1 0h3m1 0h2m1 0h3m1 0h3m1 0h1m1 0h1m3 0h2m3 0h1m3 0h1m4 0h2m3 0h1m1 0h1m1 0h1m1 0h1m1 0h12m2 0h4m3 0h3m1 0h1m3 0h2m2 0h1m1 0h3m3 0h1m3 0h1m4 0h4m4 0h1m1 0h2m1 0h1m1 0h1m5 0h1m-177 1h1m1 0h3m1 0h1m1 0h2m1 0h1m1 0h1m1 0h1m4 0h1m1 0h1m1 0h2m1 0h3m1 0h2m2 0h2m2 0h2m1 0h3m4 0h1m1 0h2m3 0h3m3 0h1m1 0h1m1 0h2m2 0h2m1 0h2m1 0h2m1 0h2m1 0h2m1 0h2m2 0h1m1 0h3m2 0h1m1 0h8m3 0h1m1 0h1m1 0h2m2 0h2m4 0h1m1 0h3m1 0h1m5 0h2m3 0h1m1 0h1m4 0h1m1 0h4m2 0h3m2 0h3m1 0h3m3 0h1m1 0h3m1 0h1m-177 1h1m1 0h3m1 0h1m2 0h3m1 0h4m4 0h1m1 0h2m1 0h2m1 0h1m1 0h1m5 0h1m1 0h1m1 0h1m2 0h1m1 0h3m2 0h5m1 0h2m3 0h3m1 0h3m1 0h5m2 0h1m3 0h1m1 0h1m1 0h1m3 0h2m1 0h2m3 0h1m2 0h4m3 0h3m5 0h1m3 0h1m1 0h1m1 0h1m2 0h1m1 0h1m4 0h1m1 0h1m2 0h1m2 0h6m1 0h1m1 0h2m6 0h1m1 0h2m3 0h1m1 0h2m1 0h1m1 0h3m1 0h1m-177 1h1m1 0h3m1 0h1m2 0h1m1 0h1m1 0h2m2 0h2m2 0h1m2 0h2m2 0h6m3 0h2m1 0h2m1 0h2m2 0h3m2 0h1m1 0h1m1 0h9m1 0h2m1 0h7m1 0h2m1 0h1m2 0h8m1 0h7m1 0h1m1 0h4m3 0h2m1 0h5m1 0h5m2 0h3m2 0h5m2 0h1m1 0h6m2 0h2m1 0h1m2 0h1m5 0h1m1 0h1m1 0h2m5 0h1m1 0h3m1 0h1m-177 1h1m5 0h1m1 0h1m1 0h3m2 0h1m1 0h2m1 0h4m1 0h2m1 0h1m3 0h2m1 0h1m4 0h1m3 0h2m1 0h2m1 0h1m1 0h2m1 0h2m3 0h2m1 0h1m1 0h3m1 0h1m2 0h1m1 0h3m2 0h1m1 0h1m1 0h2m3 0h2m1 0h1m1 0h2m1 0h4m2 0h1m2 0h1m1 0h1m1 0h1m2 0h1m3 0h1m1 0h1m4 0h1m2 0h3m3 0h1m1 0h1m1 0h1m3 0h1m3 0h1m1 0h1m2 0h1m1 0h1m1 0h4m8 0h2m1 0h1m1 0h1m5 0h1m-177 1h7m1 0h1m1 0h1m1 0h1m1 0h1m1 0h1m1 0h1m1 0h1m1 0h1m1 0h1m1 0h1m1 0h1m1 0h1m1 0h1m1 0h1m1 0h1m1 0h1m1 0h1m1 0h1m1 0h1m1 0h1m1 0h1m1 0h1m1 0h1m1 0h1m1 0h1m1 0h1m1 0h1m1 0h1m1 0h1m1 0h1m1 0h1m1 0h1m1 0h1m1 0h1m1 0h1m1 0h1m1 0h1m1 0h1m1 0h1m1 0h1m1 0h1m1 0h1m1 0h1m1 0h1m1 0h1m1 0h1m1 0h1m1 0h1m1 0h1m1 0h1m1 0h1m1 0h1m1 0h1m1 0h1m1 0h1m1 0h1m1 0h1m1 0h1m1 0h1m1 0h1m1 0h1m1 0h1m1 0h1m1 0h1m1 0h1m1 0h1m1 0h1m1 0h1m1 0h1m1 0h1m1 0h1m1 0h1m1 0h1m1 0h1m1 0h1m1 0h1m1 0h1m1 0h1m1 0h1m1 0h1m1 0h1m1 0h7m-169 1h1m7 0h2m3 0h1m3 0h2m1 0h1m3 0h2m1 0h4m1 0h3m5 0h2m1 0h1m3 0h2m3 0h1m3 0h1m1 0h2m1 0h1m1 0h7m5 0h2m3 0h2m1 0h1m1 0h3m1 0h7m1 0h2m1 0h1m2 0h2m3 0h6m2 0h4m3 0h2m2 0h1m4 0h1m3 0h2m1 0h1m1 0h4m3 0h2m1 0h1m1 0h2m1 0h1m2 0h2m-167 1h3m1 0h1m1 0h6m3 0h1m2 0h1m1 0h3m1 0h1m1 0h6m1 0h4m3 0h2m1 0h3m1 0h3m1 0h2m1 0h5m1 0h3m1 0h3m1 0h1m1 0h1m2 0h2m1 0h2m1 0h11m1 0h1m1 0h3m1 0h3m2 0h1m2 0h1m3 0h6m2 0h1m1 0h1m1 0h1m2 0h1m4 0h1m1 0h1m3 0h2m1 0h5m1 0h3m1 0h2m1 0h3m2 0h2m7 0h1m1 0h3m2 0h3m-177 1h1m1 0h4m1 0h2m8 0h2m1 0h2m1 0h2m4 0h1m5 0h3m4 0h1m2 0h3m2 0h1m2 0h3m1 0h1m2 0h4m2 0h1m1 0h2m2 0h1m1 0h1m2 0h1m2 0h1m1 0h3m2 0h3m2 0h2m1 0h4m6 0h2m2 0h5m2 0h3m1 0h1m4 0h3m1 0h4m4 0h3m3 0h1m3 0h2m4 0h1m1 0h2m1 0h1m2 0h4m2 0h3m3 0h2m1 0h1m-177 1h2m1 0h2m1 0h1m4 0h3m1 0h4m4 0h1m3 0h8m2 0h2m6 0h1m2 0h1m1 0h2m5 0h2m2 0h2m1 0h1m1 0h2m1 0h1m4 0h3m2 0h1m1 0h3m1 0h1m1 0h2m4 0h1m1 0h3m2 0h2m4 0h1m1 0h4m2 0h1m1 0h1m1 0h1m2 0h1m4 0h1m1 0h2m1 0h2m2 0h2m1 0h1m1 0h5m1 0h1m2 0h3m2 0h3m1 0h1m7 0h1m4 0h2m1 0h2m-176 1h2m1 0h3m1 0h1m1 0h2m1 0h5m1 0h1m2 0h2m2 0h2m1 0h1m2 0h2m1 0h1m2 0h1m1 0h2m2 0h2m1 0h1m7 0h1m2 0h2m1 0h1m3 0h1m3 0h2m1 0h2m3 0h1m1 0h1m1 0h2m1 0h1m2 0h5m4 0h2m1 0h1m1 0h4m1 0h1m1 0h1m3 0h2m2 0h1m4 0h7m1 0h3m1 0h1m1 0h2m1 0h1m1 0h1m1 0h2m2 0h1m2 0h3m6 0h1m1 0h5m3 0h2m1 0h2m1 0h2m-173 1h1m1 0h1m1 0h1m4 0h1m1 0h3m1 0h3m2 0h1m7 0h1m2 0h3m2 0h2m1 0h8m1 0h2m2 0h3m2 0h2m4 0h3m1 0h2m10 0h2m2 0h1m2 0h2m2 0h2m1 0h1m1 0h2m2 0h3m1 0h1m1 0h2m1 0h2m1 0h3m5 0h1m1 0h2m1 0h1m6 0h1m1 0h1m2 0h3m2 0h4m3 0h1m1 0h2m2 0h2m1 0h3m2 0h1m2 0h1m1 0h1m-170 1h1m1 0h2m3 0h2m1 0h2m4 0h2m4 0h3m1 0h2m2 0h1m1 0h2m2 0h1m4 0h2m3 0h3m2 0h2m2 0h5m5 0h1m4 0h1m2 0h1m1 0h1m3 0h1m1 0h1m1 0h2m3 0h3m2 0h3m4 0h1m6 0h3m2 0h2m1 0h6m1 0h1m2 0h3m2 0h3m4 0h1m1 0h2m3 0h3m1 0h1m2 0h1m1 0h1m2 0h2m1 0h1m1 0h1m1 0h3m1 0h3m2 0h3m1 0h1m-173 1h3m2 0h3m3 0h3m1 0h2m1 0h1m1 0h1m1 0h1m2 0h1m1 0h1m1 0h3m3 0h3m2 0h1m1 0h1m6 0h2m1 0h1m1 0h1m2 0h1m2 0h1m2 0h6m1 0h2m1 0h6m1 0h1m3 0h1m2 0h1m1 0h3m8 0h4m2 0h1m1 0h1m2 0h2m1 0h2m1 0h1m1 0h1m2 0h3m5 0h1m3 0h1m1 0h2m2 0h1m1 0h1m2 0h3m1 0h6m3 0h2m2 0h2m2 0h2m1 0h3m-176 1h3m6 0h3m3 0h4m1 0h1m1 0h1m1 0h4m3 0h5m3 0h1m2 0h2m1 0h3m4 0h4m1 0h1m2 0h2m1 0h5m1 0h4m2 0h3m1 0h3m2 0h2m1 0h3m2 0h1m1 0h1m1 0h2m7 0h2m1 0h6m1 0h1m1 0h3m1 0h1m2 0h3m1 0h1m3 0h1m2 0h3m1 0h1m2 0h1m2 0h1m1 0h5m4 0h2m1 0h4m2 0h1m2 0h1m1 0h5m-175 1h1m3 0h4m3 0h2m2 0h1m1 0h4m2 0h8m4 0h5m1 0h1m1 0h2m1 0h2m3 0h1m1 0h2m3 0h1m3 0h2m1 0h1m3 0h4m4 0h1m2 0h1m2 0h1m1 0h4m1 0h1m1 0h1m2 0h1m6 0h2m1 0h2m1 0h1m2 0h1m1 0h1m5 0h1m1 0h1m1 0h1m1 0h3m3 0h1m1 0h1m3 0h2m3 0h3m1 0h2m2 0h7m1 0h4m1 0h1m2 0h1m2 0h1m4 0h1m1 0h1m-175 1h3m2 0h3m4 0h4m6 0h2m1 0h1m2 0h1m1 0h2m1 0h1m2 0h4m1 0h2m2 0h1m1 0h2m1 0h1m1 0h1m1 0h4m1 0h1m3 0h2m1 0h1m1 0h1m2 0h3m1 0h1m1 0h6m7 0h1m2 0h1m5 0h1m1 0h5m3 0h2m2 0h6m1 0h1m1 0h1m2 0h1m1 0h5m3 0h1m1 0h2m2 0h2m1 0h1m1 0h10m4 0h1m1 0h4m1 0h1m1 0h2m-173 1h2m2 0h1m1 0h1m4 0h1m2 0h2m6 0h2m3 0h1m1 0h1m3 0h1m2 0h1m2 0h1m1 0h4m2 0h1m2 0h1m3 0h1m2 0h3m1 0h4m1 0h1m2 0h1m1 0h1m6 0h1m2 0h1m3 0h1m1 0h1m2 0h5m1 0h1m2 0h1m1 0h1m1 0h1m2 0h1m1 0h1m1 0h1m2 0h2m1 0h2m2 0h1m2 0h7m3 0h1m1 0h2m1 0h1m2 0h2m1 0h1m2 0h1m1 0h1m1 0h1m1 0h6m4 0h1m7 0h1m1 0h3m-176 1h3m1 0h1m4 0h3m4 0h1m1 0h2m1 0h1m2 0h1m4 0h1m2 0h1m2 0h3m3 0h1m1 0h2m1 0h1m3 0h1m1 0h3m3 0h1m2 0h5m1 0h7m1 0h1m3 0h2m2 0h1m1 0h4m1 0h1m1 0h3m4 0h3m2 0h1m1 0h2m1 0h7m3 0h4m1 0h3m4 0h5m1 0h1m1 0h1m1 0h1m1 0h3m1 0h6m2 0h3m1 0h5m3 0h2m4 0h2m1 0h1m-177 1h2m2 0h5m1 0h3m1 0h1m1 0h1m4 0h1m2 0h2m3 0h2m1 0h1m5 0h1m1 0h1m2 0h1m3 0h3m1 0h4m2 0h1m2 0h1m1 0h1m1 0h1m2 0h1m1 0h4m2 0h1m3 0h1m4 0h1m2 0h3m1 0h1m6 0h1m2 0h3m1 0h3m2 0h2m4 0h1m2 0h1m1 0h1m1 0h1m1 0h3m8 0h1m1 0h2m1 0h1m1 0h2m1 0h4m1 0h1m6 0h4m1 0h1m1 0h1m1 0h1m2 0h1m5 0h1m-177 1h3m2 0h1m2 0h1m4 0h1m2 0h2m2 0h4m1 0h1m2 0h1m6 0h1m1 0h2m3 0h3m1 0h1m1 0h1m1 0h1m3 0h3m1 0h2m2 0h1m2 0h1m1 0h1m2 0h3m1 0h1m2 0h4m1 0h3m2 0h1m2 0h2m2 0h1m1 0h1m4 0h1m2 0h4m4 0h2m1 0h1m1 0h4m3 0h2m1 0h1m1 0h7m1 0h1m2 0h1m7 0h3m2 0h3m1 0h1m1 0h4m1 0h2m1 0h3m3 0h2m-173 1h6m7 0h1m1 0h1m1 0h2m2 0h1m3 0h3m2 0h4m2 0h1m1 0h3m1 0h5m4 0h3m1 0h1m3 0h2m1 0h2m2 0h1m3 0h1m1 0h1m1 0h1m1 0h2m1 0h1m1 0h1m2 0h2m1 0h4m1 0h1m1 0h3m4 0h1m1 0h1m1 0h1m4 0h3m1 0h3m3 0h3m3 0h2m1 0h2m1 0h1m1 0h3m6 0h1m3 0h1m1 0h1m3 0h3m5 0h1m2 0h1m1 0h1m2 0h5m-173 1h2m2 0h1m1 0h1m1 0h2m1 0h1m2 0h1m1 0h1m1 0h3m1 0h2m3 0h1m1 0h1m1 0h1m2 0h1m1 0h5m1 0h3m4 0h1m2 0h1m2 0h1m2 0h5m1 0h7m3 0h1m1 0h2m4 0h1m1 0h4m2 0h3m1 0h1m2 0h2m4 0h2m1 0h3m2 0h1m2 0h1m2 0h1m1 0h1m1 0h3m1 0h1m2 0h1m1 0h1m4 0h2m2 0h1m2 0h1m1 0h5m3 0h1m1 0h1m1 0h1m2 0h2m3 0h2m2 0h6m-176 1h1m1 0h1m2 0h2m1 0h1m2 0h3m2 0h6m2 0h1m1 0h1m1 0h2m4 0h6m1 0h2m1 0h2m1 0h2m1 0h1m4 0h1m3 0h4m1 0h2m3 0h1m3 0h3m4 0h1m1 0h3m1 0h1m2 0h3m1 0h3m1 0h1m1 0h1m1 0h2m1 0h2m1 0h1m1 0h1m2 0h1m1 0h3m1 0h1m1 0h1m1 0h1m1 0h2m1 0h1m6 0h1m1 0h3m1 0h1m1 0h5m3 0h3m2 0h1m3 0h2m1 0h1m1 0h1m1 0h1m1 0h1m5 0h1m-176 1h3m1 0h2m4 0h1m1 0h3m3 0h6m2 0h1m1 0h3m1 0h1m2 0h2m1 0h3m1 0h3m2 0h4m5 0h1m2 0h1m2 0h1m4 0h1m1 0h2m1 0h1m1 0h5m1 0h1m7 0h1m2 0h1m3 0h5m6 0h1m1 0h1m3 0h2m1 0h1m2 0h1m1 0h2m2 0h1m1 0h2m1 0h1m1 0h4m3 0h1m1 0h1m3 0h1m1 0h5m2 0h3m1 0h1m1 0h4m1 0h1m1 0h4m2 0h3m-174 1h1m2 0h1m1 0h4m1 0h2m1 0h1m2 0h2m1 0h1m2 0h4m1 0h2m2 0h1m2 0h1m1 0h1m1 0h4m2 0h2m1 0h1m6 0h3m6 0h4m3 0h3m1 0h2m2 0h2m1 0h2m1 0h1m1 0h2m1 0h5m1 0h2m1 0h2m1 0h1m1 0h1m1 0h1m4 0h1m4 0h3m4 0h2m2 0h2m2 0h1m2 0h1m1 0h1m1 0h4m1 0h1m1 0h1m3 0h1m1 0h1m1 0h4m1 0h1m3 0h2m1 0h2m1 0h1m2 0h1m1 0h3m-175 1h2m9 0h1m1 0h1m1 0h1m1 0h2m1 0h1m3 0h1m2 0h3m1 0h3m1 0h1m3 0h3m1 0h2m1 0h1m2 0h1m1 0h1m1 0h2m1 0h2m4 0h2m1 0h1m2 0h1m1 0h2m2 0h1m1 0h1m1 0h3m1 0h1m1 0h1m1 0h4m1 0h1m1 0h1m1 0h1m1 0h4m1 0h2m1 0h1m1 0h1m2 0h1m5 0h1m2 0h2m2 0h4m1 0h1m2 0h2m1 0h1m1 0h2m3 0h4m1 0h4m4 0h3m1 0h4m4 0h2m2 0h1m1 0h2m-174 1h8m1 0h1m4 0h2m3 0h2m4 0h9m3 0h1m1 0h1m1 0h2m1 0h2m1 0h2m1 0h1m1 0h8m2 0h1m2 0h2m4 0h2m1 0h1m2 0h1m1 0h1m1 0h1m1 0h5m1 0h1m3 0h1m1 0h1m1 0h2m2 0h5m1 0h2m2 0h6m3 0h1m1 0h2m1 0h1m1 0h2m3 0h1m2 0h9m1 0h2m4 0h1m2 0h2m6 0h2m2 0h8m-174 1h2m1 0h1m3 0h1m1 0h5m3 0h1m1 0h1m2 0h2m1 0h3m3 0h2m1 0h1m1 0h1m3 0h2m1 0h1m1 0h2m1 0h1m2 0h1m1 0h3m3 0h1m1 0h1m3 0h2m1 0h2m3 0h1m1 0h1m2 0h1m1 0h1m1 0h2m3 0h4m4 0h1m1 0h2m1 0h1m1 0h1m1 0h1m1 0h1m1 0h1m2 0h1m3 0h1m1 0h3m1 0h1m2 0h1m1 0h1m2 0h3m2 0h1m2 0h1m1 0h1m3 0h2m2 0h1m2 0h1m1 0h2m1 0h1m2 0h2m1 0h3m2 0h2m3 0h3m1 0h1m-177 1h1m1 0h3m1 0h1m1 0h1m1 0h3m2 0h2m3 0h1m3 0h3m1 0h1m1 0h1m1 0h1m2 0h2m3 0h2m2 0h1m2 0h2m3 0h2m1 0h2m1 0h1m1 0h1m7 0h1m1 0h1m1 0h1m4 0h2m2 0h1m1 0h2m1 0h1m1 0h2m1 0h1m1 0h5m1 0h1m2 0h1m1 0h5m1 0h1m1 0h1m1 0h1m1 0h1m1 0h1m4 0h3m4 0h3m1 0h1m1 0h2m2 0h1m1 0h1m1 0h2m1 0h1m1 0h3m3 0h2m5 0h2m2 0h1m1 0h1m1 0h1m1 0h2m1 0h1m-172 1h1m3 0h1m3 0h2m3 0h1m2 0h1m2 0h6m3 0h3m1 0h7m1 0h2m2 0h3m1 0h1m2 0h2m3 0h2m1 0h2m1 0h1m1 0h1m1 0h1m2 0h1m2 0h2m1 0h1m1 0h1m1 0h2m3 0h3m1 0h1m1 0h2m1 0h1m2 0h9m2 0h2m3 0h2m1 0h1m2 0h2m1 0h1m3 0h2m1 0h1m5 0h3m3 0h2m3 0h2m1 0h1m3 0h2m1 0h1m1 0h2m5 0h1m3 0h5m-177 1h10m1 0h1m2 0h3m1 0h1m4 0h1m1 0h1m1 0h7m3 0h9m1 0h1m1 0h1m3 0h11m2 0h1m5 0h1m6 0h1m2 0h1m1 0h9m1 0h2m1 0h9m3 0h2m1 0h5m2 0h1m1 0h1m2 0h3m1 0h1m1 0h2m1 0h1m1 0h10m1 0h1m3 0h4m1 0h2m1 0h1m1 0h2m2 0h1m3 0h5m2 0h1m-176 1h1m1 0h3m2 0h1m2 0h1m1 0h1m1 0h3m1 0h1m3 0h3m1 0h4m1 0h4m1 0h1m1 0h2m1 0h2m1 0h1m3 0h1m2 0h3m8 0h3m2 0h1m1 0h3m1 0h1m1 0h1m1 0h2m1 0h2m3 0h1m1 0h1m1 0h1m1 0h1m2 0h2m2 0h1m1 0h2m1 0h1m1 0h2m1 0h2m2 0h4m2 0h6m3 0h1m1 0h1m1 0h2m1 0h1m3 0h1m1 0h2m1 0h3m1 0h3m6 0h5m2 0h5m1 0h1m3 0h2m1 0h1m-177 1h2m2 0h1m1 0h1m1 0h2m1 0h3m5 0h2m2 0h5m1 0h1m1 0h3m3 0h1m1 0h1m1 0h3m1 0h1m1 0h3m1 0h3m1 0h3m1 0h2m1 0h4m4 0h1m1 0h3m2 0h6m5 0h1m2 0h1m2 0h2m1 0h2m2 0h1m1 0h1m5 0h2m4 0h2m1 0h1m1 0h2m1 0h2m1 0h2m2 0h1m2 0h1m1 0h1m2 0h1m1 0h1m3 0h2m5 0h1m1 0h1m1 0h2m5 0h2m1 0h1m3 0h1m1 0h5m-176 1h1m1 0h1m1 0h1m2 0h1m3 0h1m2 0h2m4 0h2m1 0h2m1 0h1m1 0h5m2 0h3m2 0h1m3 0h1m2 0h6m4 0h1m1 0h3m2 0h1m2 0h2m1 0h2m1 0h1m1 0h1m2 0h2m4 0h1m1 0h7m19 0h2m1 0h5m1 0h2m3 0h1m1 0h3m1 0h7m2 0h1m2 0h1m4 0h3m3 0h3m1 0h1m1 0h2m4 0h1m1 0h1m1 0h4m-175 1h1m1 0h1m1 0h1m1 0h1m1 0h1m2 0h1m1 0h1m2 0h1m6 0h2m1 0h3m1 0h3m1 0h1m1 0h1m3 0h1m1 0h1m2 0h2m1 0h3m1 0h4m1 0h5m3 0h2m1 0h11m1 0h1m2 0h2m2 0h1m1 0h3m1 0h1m1 0h2m2 0h6m1 0h1m1 0h1m1 0h1m1 0h2m2 0h1m2 0h1m1 0h1m2 0h4m2 0h2m3 0h1m1 0h2m6 0h2m2 0h2m1 0h2m4 0h2m1 0h1m3 0h1m4 0h2m1 0h4m-177 1h4m5 0h3m2 0h2m4 0h3m1 0h2m2 0h3m1 0h3m2 0h3m2 0h4m1 0h4m1 0h3m4 0h3m1 0h1m2 0h1m3 0h2m9 0h1m3 0h1m1 0h1m2 0h1m2 0h1m1 0h1m3 0h3m3 0h1m3 0h2m2 0h1m1 0h4m1 0h4m3 0h1m1 0h1m1 0h4m2 0h2m1 0h1m2 0h2m2 0h2m3 0h1m2 0h3m1 0h1m1 0h1m2 0h1m1 0h1m2 0h1m3 0h1m1 0h1m-176 1h2m2 0h3m2 0h1m1 0h8m2 0h2m1 0h2m1 0h4m2 0h1m4 0h3m4 0h2m4 0h4m1 0h3m1 0h2m2 0h1m1 0h1m8 0h1m1 0h1m1 0h2m1 0h3m2 0h1m3 0h1m1 0h1m1 0h1m2 0h4m1 0h3m1 0h1m2 0h1m5 0h2m2 0h2m2 0h2m4 0h1m12 0h1m2 0h1m3 0h2m3 0h2m1 0h1m3 0h2m1 0h2m1 0h2m1 0h2m1 0h2m-176 1h1m6 0h2m3 0h2m1 0h2m2 0h1m3 0h2m3 0h2m4 0h3m2 0h1m2 0h3m4 0h1m1 0h2m3 0h1m1 0h2m1 0h3m1 0h2m2 0h1m1 0h1m2 0h1m2 0h1m2 0h3m1 0h2m1 0h1m1 0h1m3 0h1m4 0h1m6 0h3m1 0h2m2 0h1m1 0h4m4 0h2m1 0h1m2 0h10m1 0h2m1 0h3m3 0h4m4 0h1m1 0h4m4 0h1m2 0h2m1 0h4m-176 1h2m3 0h4m1 0h1m1 0h1m2 0h2m4 0h1m3 0h1m2 0h1m1 0h1m3 0h2m2 0h1m1 0h1m2 0h1m6 0h1m3 0h3m2 0h4m2 0h1m4 0h1m2 0h3m2 0h1m2 0h1m1 0h1m1 0h5m1 0h1m2 0h2m3 0h1m1 0h1m1 0h2m1 0h1m3 0h3m1 0h1m1 0h1m1 0h1m1 0h1m1 0h5m2 0h1m2 0h1m2 0h1m1 0h2m1 0h2m1 0h1m1 0h3m1 0h2m2 0h1m3 0h1m4 0h1m3 0h3m2 0h1m2 0h1m-175 1h2m1 0h1m4 0h1m2 0h2m2 0h2m1 0h1m1 0h2m2 0h1m2 0h1m2 0h2m2 0h2m1 0h2m6 0h1m1 0h3m3 0h2m5 0h1m6 0h5m1 0h3m1 0h1m1 0h1m1 0h1m3 0h4m5 0h1m1 0h6m2 0h1m3 0h5m1 0h2m1 0h1m1 0h1m4 0h1m1 0h1m1 0h1m1 0h2m2 0h1m1 0h1m2 0h1m2 0h2m3 0h2m2 0h2m2 0h4m1 0h4m6 0h1m1 0h2m1 0h1m-177 1h2m1 0h1m1 0h2m5 0h2m1 0h6m1 0h1m2 0h2m2 0h1m2 0h4m2 0h1m1 0h2m6 0h1m1 0h7m3 0h1m1 0h4m4 0h1m2 0h1m3 0h1m1 0h6m1 0h3m1 0h2m2 0h1m2 0h2m3 0h3m1 0h2m1 0h1m1 0h1m1 0h1m1 0h3m2 0h2m1 0h1m1 0h5m3 0h1m6 0h1m2 0h2m1 0h1m2 0h3m2 0h3m4 0h2m3 0h1m1 0h2m3 0h1m1 0h1m-176 1h2m2 0h2m2 0h5m2 0h1m1 0h1m1 0h2m1 0h3m3 0h5m1 0h1m2 0h2m3 0h2m1 0h1m3 0h1m3 0h2m2 0h5m3 0h1m1 0h1m1 0h2m1 0h1m2 0h4m7 0h4m1 0h1m1 0h1m1 0h1m1 0h1m2 0h3m1 0h1m1 0h1m6 0h6m2 0h2m1 0h2m1 0h2m1 0h1m1 0h7m2 0h1m3 0h1m3 0h4m2 0h3m3 0h2m1 0h1m3 0h1m2 0h4m-170 1h2m2 0h6m4 0h2m1 0h1m2 0h1m1 0h1m2 0h3m1 0h4m1 0h1m2 0h5m1 0h1m5 0h1m1 0h2m2 0h3m1 0h1m2 0h2m3 0h6m1 0h1m1 0h3m5 0h2m2 0h1m1 0h1m1 0h1m1 0h1m3 0h2m1 0h1m3 0h4m1 0h2m2 0h3m4 0h1m4 0h1m4 0h3m5 0h4m2 0h2m2 0h1m3 0h1m4 0h1m1 0h3m3 0h1m1 0h4m-176 1h1m1 0h2m6 0h1m1 0h4m1 0h1m1 0h2m2 0h1m1 0h1m3 0h2m1 0h8m1 0h2m1 0h3m1 0h2m1 0h1m1 0h1m1 0h5m2 0h1m2 0h2m1 0h1m3 0h1m1 0h1m1 0h2m1 0h1m1 0h1m1 0h1m2 0h1m1 0h9m1 0h5m2 0h2m3 0h2m3 0h1m1 0h1m1 0h1m1 0h1m2 0h1m1 0h1m1 0h7m2 0h1m1 0h1m1 0h15m1 0h8m3 0h2m2 0h1m1 0h1m-175 1h1m1 0h1m2 0h2m2 0h1m2 0h3m1 0h2m2 0h1m2 0h4m3 0h1m3 0h3m3 0h1m1 0h1m2 0h1m1 0h1m1 0h3m1 0h1m1 0h5m1 0h3m2 0h1m1 0h2m1 0h1m4 0h1m2 0h1m12 0h2m3 0h2m3 0h2m1 0h2m2 0h1m2 0h1m1 0h2m2 0h3m1 0h2m1 0h3m1 0h1m2 0h1m2 0h1m6 0h2m1 0h1m2 0h1m1 0h1m3 0h2m1 0h1m2 0h3m2 0h1m2 0h1m2 0h1m1 0h2m-176 1h2m6 0h1m1 0h3m2 0h2m1 0h1m1 0h1m1 0h2m1 0h1m3 0h1m3 0h1m2 0h1m2 0h2m1 0h1m5 0h1m2 0h2m1 0h1m5 0h1m1 0h1m1 0h2m3 0h2m4 0h1m2 0h1m2 0h1m2 0h1m2 0h1m1 0h1m3 0h1m5 0h1m1 0h5m2 0h3m4 0h3m2 0h1m2 0h2m5 0h4m3 0h2m1 0h6m1 0h1m1 0h4m4 0h1m2 0h3m1 0h1m2 0h1m3 0h1m1 0h3m-173 1h1m1 0h6m1 0h1m1 0h3m1 0h4m1 0h3m3 0h1m1 0h1m2 0h1m1 0h1m1 0h5m1 0h2m1 0h2m1 0h5m1 0h2m3 0h3m2 0h2m3 0h3m2 0h2m1 0h2m1 0h1m3 0h3m3 0h1m1 0h4m1 0h1m1 0h1m1 0h2m1 0h1m1 0h4m1 0h1m1 0h1m3 0h3m4 0h1m1 0h1m8 0h2m1 0h2m2 0h1m1 0h4m1 0h1m5 0h1m7 0h1m2 0h1m1 0h2m3 0h1m-168 1h1m2 0h2m2 0h1m1 0h1m1 0h1m3 0h2m3 0h2m1 0h2m2 0h2m2 0h1m2 0h3m1 0h3m1 0h1m2 0h1m3 0h3m2 0h3m3 0h1m6 0h1m3 0h5m1 0h3m6 0h4m1 0h1m1 0h2m2 0h1m1 0h1m1 0h5m1 0h2m1 0h1m1 0h3m2 0h1m1 0h1m1 0h6m3 0h2m1 0h1m1 0h2m2 0h3m8 0h7m2 0h1m1 0h1m3 0h2m1 0h1m-177 1h4m2 0h2m2 0h1m3 0h2m3 0h1m1 0h1m1 0h1m5 0h1m1 0h2m1 0h1m5 0h1m1 0h5m2 0h2m1 0h5m3 0h1m3 0h1m3 0h1m1 0h2m2 0h2m1 0h1m1 0h2m10 0h3m1 0h1m1 0h1m4 0h1m1 0h2m4 0h7m1 0h3m1 0h3m2 0h3m1 0h3m1 0h1m1 0h1m2 0h1m3 0h3m2 0h3m1 0h1m1 0h2m1 0h1m3 0h2m2 0h1m1 0h1m2 0h1m1 0h1m1 0h1m-173 1h3m4 0h1m3 0h2m1 0h1m1 0h3m1 0h1m2 0h3m2 0h1m2 0h1m3 0h11m1 0h2m2 0h1m3 0h1m2 0h2m1 0h1m5 0h1m1 0h6m1 0h1m2 0h1m1 0h1m1 0h1m2 0h2m1 0h1m1 0h1m2 0h1m1 0h1m4 0h1m1 0h1m1 0h1m2 0h2m1 0h1m3 0h1m1 0h2m1 0h2m2 0h1m3 0h3m1 0h2m1 0h2m3 0h1m1 0h1m1 0h5m5 0h1m2 0h3m4 0h4m2 0h4m-176 1h2m1 0h3m3 0h2m1 0h3m2 0h3m2 0h2m2 0h1m3 0h3m2 0h2m1 0h1m2 0h1m1 0h1m1 0h3m3 0h3m6 0h2m1 0h1m2 0h1m1 0h1m1 0h2m1 0h1m2 0h2m1 0h2m2 0h1m1 0h1m3 0h2m2 0h1m2 0h3m2 0h1m1 0h1m2 0h2m1 0h1m5 0h1m2 0h3m3 0h2m1 0h1m2 0h1m1 0h1m1 0h1m1 0h2m1 0h1m1 0h1m1 0h1m3 0h3m1 0h2m2 0h1m4 0h1m1 0h3m2 0h1m2 0h2m2 0h1m-174 1h1m4 0h2m1 0h3m3 0h4m1 0h5m1 0h2m2 0h1m2 0h1m4 0h2m1 0h1m1 0h8m1 0h3m4 0h1m3 0h1m2 0h4m1 0h4m2 0h1m1 0h2m1 0h1m1 0h3m3 0h2m1 0h1m1 0h2m2 0h4m3 0h1m1 0h3m1 0h2m1 0h3m1 0h1m4 0h3m1 0h5m5 0h3m1 0h3m2 0h1m4 0h1m2 0h1m1 0h1m4 0h2m2 0h1m2 0h1m3 0h2m-175 1h2m3 0h1m2 0h1m4 0h1m1 0h1m1 0h1m2 0h4m2 0h1m2 0h2m1 0h2m1 0h1m1 0h1m2 0h1m1 0h1m5 0h2m1 0h6m2 0h2m3 0h1m4 0h1m1 0h2m1 0h1m8 0h1m5 0h2m3 0h9m2 0h2m1 0h3m1 0h1m2 0h2m1 0h2m1 0h1m4 0h1m1 0h2m2 0h5m2 0h1m3 0h1m5 0h2m1 0h4m1 0h1m2 0h3m2 0h1m1 0h2m4 0h2m-176 1h3m2 0h1m1 0h1m3 0h2m1 0h1m3 0h2m2 0h4m7 0h2m2 0h1m1 0h1m1 0h8m1 0h1m1 0h13m1 0h4m2 0h1m1 0h5m1 0h3m1 0h1m1 0h1m3 0h1m1 0h1m3 0h3m3 0h4m1 0h1m6 0h1m2 0h2m1 0h2m1 0h1m4 0h3m1 0h4m1 0h1m1 0h1m1 0h3m1 0h1m1 0h5m3 0h1m1 0h1m1 0h2m1 0h1m1 0h1m3 0h1m2 0h5m-175 1h1m2 0h10m1 0h1m3 0h1m4 0h9m2 0h3m2 0h6m1 0h6m3 0h6m1 0h5m1 0h2m1 0h5m2 0h2m1 0h7m2 0h2m3 0h2m2 0h1m1 0h1m1 0h5m1 0h1m1 0h6m2 0h2m1 0h1m2 0h1m1 0h1m4 0h1m1 0h1m1 0h2m1 0h5m2 0h1m2 0h1m1 0h1m3 0h2m1 0h3m1 0h1m1 0h2m1 0h5m1 0h2m-176 1h1m1 0h1m1 0h1m3 0h1m4 0h1m5 0h2m5 0h3m3 0h1m3 0h2m3 0h3m1 0h3m1 0h1m1 0h1m3 0h2m3 0h5m1 0h1m3 0h2m3 0h1m1 0h2m3 0h1m1 0h1m3 0h4m4 0h1m1 0h1m4 0h2m1 0h3m3 0h1m3 0h1m1 0h4m3 0h1m1 0h1m1 0h1m1 0h4m4 0h2m3 0h7m3 0h1m4 0h2m1 0h1m1 0h1m1 0h1m1 0h1m3 0h3m1 0h1m-177 1h1m1 0h3m1 0h1m1 0h8m2 0h5m2 0h1m1 0h2m1 0h1m1 0h1m3 0h3m1 0h1m2 0h2m3 0h1m2 0h1m1 0h2m1 0h1m1 0h1m1 0h1m1 0h1m1 0h4m2 0h1m1 0h3m1 0h1m1 0h3m3 0h1m1 0h1m1 0h5m1 0h1m3 0h1m1 0h4m1 0h1m1 0h1m2 0h1m1 0h1m1 0h1m1 0h1m2 0h1m1 0h2m4 0h6m2 0h1m1 0h4m1 0h1m1 0h1m1 0h1m2 0h1m1 0h1m1 0h1m1 0h2m6 0h1m1 0h4m1 0h1m1 0h2m1 0h1m-174 1h3m3 0h1m2 0h1m3 0h1m3 0h1m2 0h2m1 0h4m3 0h1m1 0h2m1 0h2m1 0h2m1 0h5m1 0h2m2 0h1m1 0h2m3 0h1m4 0h4m3 0h7m1 0h1m1 0h1m1 0h1m3 0h6m6 0h1m1 0h1m3 0h1m4 0h2m3 0h3m4 0h1m1 0h3m3 0h3m1 0h2m1 0h1m1 0h1m3 0h9m4 0h1m1 0h1m2 0h1m1 0h2m1 0h2m3 0h4m-175 1h1m2 0h5m1 0h1m1 0h2m2 0h1m1 0h2m1 0h1m1 0h4m1 0h12m1 0h1m1 0h3m2 0h1m2 0h11m4 0h3m1 0h1m2 0h2m1 0h1m2 0h1m2 0h7m2 0h1m5 0h2m1 0h2m3 0h12m3 0h2m3 0h3m3 0h1m4 0h3m1 0h5m2 0h1m2 0h1m2 0h2m1 0h1m2 0h1m1 0h1m1 0h2m1 0h1m1 0h5m1 0h2m-176 1h2m2 0h1m2 0h1m2 0h1m3 0h1m1 0h1m1 0h1m1 0h1m3 0h1m6 0h1m1 0h2m1 0h1m6 0h4m2 0h1m2 0h4m2 0h1m1 0h1m3 0h8m4 0h1m1 0h3m1 0h1m1 0h1m2 0h2m2 0h1m1 0h2m1 0h3m2 0h3m3 0h1m1 0h1m5 0h1m2 0h3m1 0h1m3 0h2m1 0h1m1 0h3m4 0h9m1 0h3m2 0h8m1 0h3m2 0h2m1 0h1m5 0h1m-176 1h1m3 0h3m2 0h1m1 0h1m7 0h2m2 0h1m1 0h1m1 0h1m1 0h1m4 0h2m1 0h1m1 0h1m5 0h2m3 0h1m1 0h1m1 0h9m1 0h4m2 0h1m1 0h2m1 0h2m1 0h2m1 0h1m4 0h1m1 0h1m1 0h3m2 0h1m1 0h4m1 0h1m1 0h3m5 0h7m3 0h2m2 0h4m1 0h1m2 0h1m5 0h4m1 0h2m1 0h1m1 0h1m3 0h4m4 0h1m2 0h1m3 0h1m4 0h1m-176 1h2m2 0h1m2 0h1m1 0h1m3 0h2m2 0h1m1 0h1m1 0h1m4 0h1m1 0h1m3 0h1m5 0h5m2 0h2m1 0h2m5 0h3m1 0h1m4 0h1m5 0h1m2 0h6m3 0h2m2 0h2m4 0h3m1 0h1m4 0h4m3 0h1m1 0h3m3 0h1m2 0h3m3 0h3m1 0h3m1 0h1m1 0h2m2 0h1m4 0h5m1 0h1m4 0h3m2 0h3m1 0h1m3 0h2m3 0h3m-174 1h2m2 0h1m3 0h3m4 0h2m3 0h6m3 0h2m4 0h2m1 0h1m2 0h2m1 0h4m1 0h1m3 0h1m4 0h1m1 0h1m2 0h8m1 0h1m1 0h1m2 0h3m4 0h1m1 0h2m3 0h1m5 0h4m3 0h3m2 0h1m1 0h2m1 0h1m2 0h3m2 0h3m1 0h2m1 0h1m5 0h3m4 0h1m2 0h3m2 0h5m1 0h2m3 0h1m1 0h4m2 0h1m2 0h1m1 0h1m-177 1h2m1 0h3m1 0h1m3 0h1m1 0h1m1 0h1m2 0h2m2 0h3m1 0h1m1 0h1m1 0h3m2 0h2m2 0h1m2 0h3m1 0h4m1 0h1m1 0h1m1 0h1m1 0h1m2 0h2m1 0h1m2 0h1m2 0h1m3 0h1m2 0h2m2 0h1m1 0h3m5 0h5m1 0h1m1 0h2m2 0h2m3 0h2m1 0h1m1 0h1m2 0h2m1 0h3m1 0h2m1 0h3m2 0h1m1 0h2m3 0h2m1 0h1m1 0h1m2 0h4m2 0h2m6 0h4m1 0h1m2 0h2m2 0h1m-171 1h1m4 0h5m1 0h2m2 0h5m3 0h2m2 0h1m3 0h1m1 0h1m1 0h2m1 0h5m2 0h1m3 0h1m1 0h4m4 0h2m5 0h1m4 0h3m3 0h2m4 0h2m1 0h1m4 0h2m3 0h1m1 0h1m1 0h1m1 0h1m1 0h6m2 0h1m2 0h1m3 0h1m2 0h5m1 0h2m4 0h1m2 0h1m1 0h2m1 0h2m1 0h1m3 0h1m4 0h4m4 0h1m2 0h1m2 0h2m3 0h2m-176 1h5m4 0h1m1 0h1m1 0h1m1 0h1m4 0h1m1 0h1m1 0h2m4 0h1m1 0h1m6 0h3m1 0h1m1 0h1m4 0h1m1 0h1m2 0h1m2 0h3m1 0h1m4 0h1m2 0h2m2 0h1m1 0h2m1 0h2m1 0h3m1 0h1m1 0h6m2 0h1m1 0h8m3 0h1m2 0h1m1 0h1m2 0h4m1 0h4m1 0h1m1 0h1m3 0h1m1 0h2m2 0h3m1 0h1m1 0h3m1 0h4m2 0h3m2 0h3m6 0h1m3 0h3m-173 1h2m1 0h2m1 0h3m1 0h4m4 0h1m1 0h1m2 0h1m1 0h2m1 0h1m5 0h1m3 0h2m4 0h2m3 0h1m4 0h1m2 0h1m1 0h1m1 0h2m3 0h1m1 0h2m5 0h1m2 0h1m2 0h1m1 0h1m2 0h2m1 0h2m3 0h1m2 0h4m3 0h1m1 0h1m3 0h4m2 0h1m1 0h1m3 0h2m8 0h1m2 0h1m2 0h3m4 0h1m1 0h2m6 0h1m1 0h2m1 0h6m1 0h2m3 0h1m-175 1h4m2 0h3m1 0h1m1 0h2m2 0h2m2 0h1m3 0h1m3 0h2m2 0h1m1 0h4m1 0h2m1 0h1m3 0h1m4 0h2m3 0h1m1 0h1m2 0h2m3 0h1m3 0h3m1 0h1m2 0h1m1 0h1m2 0h1m1 0h3m2 0h1m1 0h7m1 0h1m1 0h4m1 0h4m1 0h2m4 0h1m1 0h1m1 0h1m4 0h1m1 0h5m3 0h1m2 0h3m1 0h5m1 0h1m2 0h1m5 0h1m1 0h1m1 0h1m1 0h1m2 0h1m1 0h2m2 0h1m1 0h1m-177 1h1m4 0h2m1 0h1m1 0h3m2 0h1m1 0h2m1 0h4m1 0h3m3 0h1m1 0h1m1 0h2m6 0h1m4 0h2m1 0h1m2 0h2m1 0h1m1 0h2m1 0h2m3 0h1m1 0h1m2 0h2m1 0h3m1 0h1m1 0h1m1 0h5m2 0h2m1 0h2m1 0h4m2 0h1m2 0h1m1 0h1m1 0h1m1 0h1m1 0h1m2 0h1m1 0h3m4 0h2m2 0h2m1 0h3m1 0h1m4 0h1m1 0h4m2 0h1m1 0h1m1 0h4m6 0h1m1 0h3m1 0h1m4 0h2m-176 1h1m3 0h2m1 0h2m7 0h2m3 0h1m1 0h1m1 0h2m1 0h1m1 0h1m2 0h1m2 0h3m1 0h6m1 0h1m1 0h2m1 0h1m8 0h1m1 0h1m1 0h1m5 0h2m1 0h3m1 0h1m4 0h1m1 0h2m2 0h1m1 0h1m1 0h3m1 0h10m1 0h1m2 0h4m2 0h2m2 0h6m1 0h8m3 0h1m1 0h1m1 0h2m2 0h1m1 0h4m3 0h2m1 0h1m1 0h3m5 0h1m1 0h4m-172 1h1m2 0h2m1 0h5m3 0h1m2 0h1m1 0h2m2 0h1m2 0h1m3 0h1m1 0h4m1 0h1m1 0h1m2 0h3m2 0h1m2 0h2m1 0h1m1 0h1m2 0h7m4 0h6m1 0h1m1 0h2m1 0h1m1 0h3m1 0h2m1 0h1m1 0h3m1 0h3m2 0h1m2 0h2m2 0h1m1 0h2m1 0h1m3 0h2m1 0h1m1 0h2m4 0h1m1 0h1m3 0h3m2 0h1m3 0h3m1 0h2m1 0h3m2 0h2m3 0h1m3 0h3m1 0h1m3 0h1m-176 1h1m1 0h2m3 0h1m9 0h2m1 0h2m1 0h2m2 0h1m1 0h1m7 0h1m2 0h1m1 0h1m2 0h1m2 0h1m2 0h2m1 0h2m2 0h1m4 0h2m2 0h1m2 0h1m1 0h2m3 0h1m2 0h1m1 0h2m2 0h1m2 0h2m1 0h2m1 0h4m6 0h2m2 0h2m4 0h8m4 0h1m3 0h2m1 0h1m2 0h2m1 0h1m1 0h1m4 0h2m1 0h1m2 0h1m1 0h2m1 0h1m2 0h3m4 0h1m2 0h1m1 0h2m1 0h1m-177 1h2m1 0h5m3 0h3m1 0h4m4 0h2m5 0h2m1 0h2m1 0h3m1 0h1m2 0h1m1 0h2m1 0h1m5 0h1m1 0h3m2 0h1m2 0h1m1 0h1m8 0h2m1 0h2m1 0h3m2 0h2m1 0h1m3 0h1m1 0h3m2 0h2m4 0h1m2 0h2m7 0h2m1 0h1m4 0h2m2 0h3m2 0h3m2 0h5m4 0h3m2 0h3m1 0h1m4 0h1m2 0h1m3 0h1m3 0h2m-176 1h2m1 0h2m2 0h4m1 0h5m1 0h1m2 0h3m1 0h3m1 0h3m2 0h4m2 0h1m5 0h3m2 0h1m2 0h1m4 0h2m3 0h2m1 0h2m1 0h3m1 0h1m1 0h2m2 0h2m1 0h1m1 0h1m9 0h2m1 0h1m1 0h3m2 0h1m1 0h2m4 0h4m3 0h6m2 0h2m2 0h1m1 0h2m1 0h2m9 0h1m1 0h1m6 0h1m1 0h4m1 0h1m2 0h1m1 0h1m3 0h2m-173 1h1m3 0h1m4 0h1m1 0h3m1 0h3m2 0h1m1 0h1m2 0h1m1 0h1m2 0h4m2 0h1m1 0h3m1 0h1m2 0h1m1 0h1m1 0h2m5 0h3m3 0h5m1 0h1m3 0h1m6 0h3m1 0h1m2 0h1m3 0h2m1 0h1m1 0h2m2 0h2m2 0h1m1 0h2m1 0h3m1 0h1m1 0h1m3 0h2m4 0h1m8 0h1m1 0h3m3 0h1m2 0h1m5 0h2m2 0h2m1 0h3m1 0h2m3 0h1m1 0h3m-173 1h1m1 0h2m3 0h2m1 0h2m4 0h2m4 0h3m1 0h1m3 0h1m2 0h1m6 0h3m1 0h1m1 0h1m2 0h4m4 0h2m4 0h7m4 0h2m1 0h3m1 0h1m1 0h1m3 0h1m1 0h1m3 0h3m4 0h1m2 0h1m4 0h2m3 0h1m3 0h4m1 0h1m2 0h1m1 0h1m1 0h4m1 0h1m6 0h1m4 0h1m1 0h1m1 0h2m1 0h1m2 0h2m1 0h1m1 0h1m1 0h3m1 0h1m3 0h4m1 0h1m-173 1h3m2 0h3m3 0h3m1 0h2m1 0h1m3 0h3m2 0h4m1 0h1m2 0h3m1 0h1m1 0h1m4 0h1m1 0h2m1 0h1m4 0h3m1 0h1m3 0h8m1 0h10m1 0h1m2 0h1m1 0h3m9 0h2m1 0h1m1 0h1m1 0h1m1 0h1m3 0h2m1 0h1m4 0h4m8 0h2m3 0h2m1 0h1m3 0h2m1 0h6m3 0h1m3 0h1m1 0h3m2 0h3m-176 1h3m4 0h1m1 0h3m3 0h4m1 0h1m1 0h1m2 0h2m1 0h2m1 0h5m4 0h1m1 0h2m2 0h1m2 0h4m1 0h2m2 0h2m1 0h1m2 0h1m1 0h2m3 0h3m1 0h2m2 0h3m1 0h1m1 0h2m1 0h2m2 0h1m1 0h1m1 0h2m6 0h3m1 0h3m2 0h6m1 0h4m1 0h1m2 0h3m1 0h2m1 0h2m1 0h1m1 0h2m2 0h2m1 0h5m4 0h2m1 0h4m1 0h2m2 0h2m3 0h2m-175 1h1m3 0h1m1 0h3m2 0h2m2 0h1m1 0h2m4 0h4m2 0h1m2 0h1m2 0h1m1 0h3m1 0h1m2 0h1m2 0h9m4 0h1m5 0h3m2 0h4m5 0h1m2 0h1m3 0h1m4 0h1m2 0h1m6 0h2m1 0h3m5 0h3m4 0h2m3 0h3m3 0h1m1 0h1m3 0h3m7 0h1m3 0h6m1 0h4m2 0h1m1 0h3m2 0h2m1 0h1m1 0h1m-175 1h2m3 0h1m1 0h1m4 0h4m6 0h2m1 0h1m1 0h1m1 0h1m1 0h1m1 0h2m1 0h2m1 0h1m2 0h2m1 0h1m1 0h1m1 0h4m2 0h1m1 0h3m1 0h4m1 0h2m4 0h2m1 0h6m2 0h2m5 0h1m2 0h1m5 0h1m3 0h3m3 0h4m1 0h5m6 0h1m2 0h4m5 0h3m4 0h1m1 0h1m1 0h8m4 0h1m1 0h5m1 0h2m-172 1h2m2 0h5m2 0h1m2 0h2m6 0h1m4 0h1m1 0h1m1 0h1m1 0h1m1 0h2m2 0h1m1 0h3m3 0h1m2 0h3m1 0h3m3 0h1m2 0h2m4 0h1m1 0h1m2 0h1m3 0h1m2 0h1m1 0h3m3 0h1m1 0h4m1 0h1m2 0h1m1 0h1m1 0h1m2 0h3m1 0h1m1 0h1m2 0h1m1 0h1m1 0h1m3 0h1m1 0h6m2 0h1m1 0h6m2 0h3m1 0h1m3 0h1m1 0h6m4 0h1m5 0h1m3 0h3m-176 1h3m1 0h2m1 0h5m4 0h1m1 0h1m2 0h1m1 0h1m3 0h3m5 0h3m3 0h1m1 0h1m2 0h1m3 0h2m2 0h1m8 0h3m1 0h7m1 0h1m2 0h3m3 0h1m2 0h2m1 0h1m1 0h3m4 0h3m1 0h2m1 0h2m1 0h2m2 0h1m1 0h1m3 0h4m2 0h1m5 0h3m1 0h1m4 0h2m1 0h1m1 0h1m1 0h2m1 0h3m2 0h3m1 0h4m1 0h1m2 0h1m1 0h1m3 0h2m1 0h1m-177 1h2m2 0h5m1 0h3m1 0h1m1 0h1m3 0h2m2 0h2m1 0h6m2 0h2m1 0h1m5 0h2m1 0h1m2 0h2m1 0h1m1 0h6m1 0h1m1 0h4m1 0h1m1 0h5m1 0h1m1 0h1m4 0h5m2 0h1m6 0h1m2 0h8m1 0h7m4 0h1m2 0h4m5 0h1m2 0h9m2 0h3m1 0h1m6 0h4m1 0h3m1 0h6m3 0h1m-177 1h3m1 0h1m3 0h1m4 0h1m2 0h2m2 0h3m2 0h1m1 0h2m3 0h1m2 0h1m1 0h2m3 0h9m1 0h1m1 0h1m1 0h1m3 0h1m1 0h2m1 0h3m1 0h4m1 0h1m4 0h2m1 0h1m1 0h1m3 0h1m2 0h1m2 0h1m1 0h1m4 0h1m1 0h1m1 0h2m1 0h1m3 0h1m3 0h5m2 0h1m1 0h3m1 0h1m1 0h5m2 0h1m1 0h1m3 0h1m1 0h1m1 0h1m1 0h1m2 0h3m1 0h1m1 0h4m2 0h1m2 0h1m3 0h3m-173 1h3m1 0h1m1 0h2m5 0h1m1 0h1m1 0h2m2 0h2m3 0h1m1 0h1m1 0h5m1 0h1m1 0h3m2 0h2m1 0h2m3 0h1m2 0h1m1 0h1m1 0h1m4 0h2m1 0h2m2 0h1m3 0h1m1 0h2m1 0h1m1 0h2m1 0h1m1 0h5m1 0h1m1 0h3m5 0h2m2 0h1m2 0h2m1 0h1m1 0h4m4 0h2m2 0h2m1 0h2m1 0h1m1 0h2m2 0h1m1 0h1m1 0h1m4 0h3m3 0h3m5 0h1m2 0h1m1 0h1m1 0h1m1 0h4m-173 1h2m3 0h1m1 0h3m1 0h1m2 0h1m3 0h6m1 0h1m3 0h1m1 0h1m1 0h2m1 0h4m1 0h2m2 0h1m2 0h6m3 0h3m1 0h1m1 0h7m4 0h4m2 0h2m3 0h1m1 0h1m2 0h3m1 0h1m2 0h2m1 0h2m1 0h1m2 0h2m1 0h1m3 0h2m1 0h5m4 0h1m1 0h2m1 0h1m6 0h1m3 0h2m1 0h2m1 0h2m3 0h1m1 0h1m1 0h1m2 0h1m4 0h2m3 0h5m-176 1h1m1 0h8m1 0h3m2 0h9m1 0h6m2 0h6m1 0h2m2 0h1m1 0h1m3 0h10m8 0h1m4 0h3m3 0h1m1 0h6m2 0h2m1 0h3m1 0h1m1 0h1m1 0h1m2 0h4m1 0h1m1 0h6m1 0h1m1 0h1m3 0h2m1 0h1m4 0h1m1 0h1m1 0h1m1 0h6m1 0h2m1 0h5m2 0h1m3 0h2m1 0h1m1 0h1m1 0h6m2 0h1m-176 1h3m1 0h1m5 0h1m1 0h3m3 0h1m1 0h4m2 0h1m2 0h3m6 0h3m1 0h2m1 0h1m5 0h1m1 0h3m3 0h6m2 0h1m1 0h2m1 0h1m2 0h2m3 0h1m3 0h2m1 0h2m2 0h1m3 0h5m3 0h2m1 0h1m4 0h2m1 0h1m3 0h3m6 0h1m2 0h3m1 0h1m3 0h2m3 0h2m1 0h3m1 0h1m2 0h3m1 0h1m1 0h5m2 0h1m1 0h1m2 0h4m-174 1h1m2 0h4m3 0h2m1 0h1m2 0h2m1 0h1m4 0h3m3 0h1m4 0h2m1 0h5m1 0h1m1 0h1m2 0h1m1 0h2m3 0h1m2 0h2m1 0h1m2 0h2m1 0h1m1 0h3m1 0h2m1 0h3m1 0h2m2 0h9m1 0h2m1 0h2m1 0h1m3 0h3m2 0h2m2 0h5m2 0h3m2 0h5m2 0h1m1 0h2m2 0h2m3 0h1m3 0h3m1 0h4m1 0h1m3 0h2m1 0h2m3 0h2m1 0h3m-175 1h2m1 0h1m4 0h1m2 0h1m1 0h1m1 0h1m1 0h4m1 0h3m1 0h1m2 0h1m1 0h3m1 0h1m3 0h3m1 0h1m1 0h3m1 0h1m1 0h1m1 0h1m7 0h1m1 0h1m1 0h1m2 0h4m1 0h2m1 0h5m1 0h3m2 0h2m2 0h1m1 0h1m1 0h1m1 0h4m1 0h1m2 0h2m4 0h4m1 0h1m2 0h2m1 0h2m1 0h2m1 0h2m1 0h2m1 0h1m4 0h1m2 0h3m1 0h2m1 0h1m4 0h3m1 0h4m1 0h1m4 0h1m3 0h2m-174 1h3m2 0h5m4 0h2m3 0h2m2 0h1m1 0h2m2 0h2m1 0h3m2 0h1m3 0h2m4 0h1m1 0h2m1 0h1m2 0h3m1 0h2m1 0h1m2 0h2m4 0h4m1 0h2m1 0h1m1 0h1m3 0h1m1 0h2m4 0h1m1 0h1m1 0h2m2 0h1m1 0h3m2 0h1m2 0h2m1 0h3m5 0h1m1 0h2m1 0h1m4 0h1m2 0h2m3 0h1m2 0h1m1 0h2m1 0h2m1 0h1m2 0h2m10 0h3m2 0h3m-174 1h2m1 0h2m5 0h4m3 0h1m1 0h1m3 0h1m1 0h4m3 0h1m1 0h1m1 0h1m1 0h4m1 0h2m2 0h3m2 0h1m1 0h2m1 0h1m3 0h1m1 0h2m1 0h1m1 0h1m4 0h1m1 0h1m2 0h1m1 0h1m4 0h1m1 0h1m1 0h2m4 0h1m1 0h2m1 0h1m1 0h3m1 0h1m1 0h1m1 0h1m6 0h5m2 0h3m3 0h2m2 0h1m2 0h2m4 0h2m2 0h1m1 0h2m1 0h2m1 0h1m2 0h2m1 0h1m1 0h1m2 0h1m2 0h2m1 0h2m1 0h1m-177 1h1m1 0h2m2 0h1m2 0h1m1 0h2m2 0h2m2 0h2m3 0h3m5 0h1m2 0h2m2 0h3m2 0h1m4 0h3m1 0h1m2 0h1m1 0h2m2 0h2m1 0h2m1 0h3m1 0h2m7 0h1m1 0h2m1 0h3m1 0h2m1 0h5m1 0h1m2 0h1m2 0h2m1 0h1m1 0h4m1 0h2m1 0h1m3 0h2m7 0h3m2 0h2m2 0h1m1 0h1m2 0h3m1 0h3m3 0h2m5 0h2m2 0h1m3 0h1m2 0h1m1 0h1m-172 1h2m1 0h1m1 0h2m1 0h2m3 0h1m5 0h1m1 0h10m1 0h3m2 0h3m1 0h2m2 0h2m1 0h2m7 0h2m1 0h3m1 0h2m3 0h1m2 0h4m1 0h1m1 0h1m1 0h1m1 0h2m3 0h2m1 0h1m1 0h1m2 0h4m1 0h2m1 0h1m2 0h3m3 0h1m2 0h1m1 0h1m9 0h1m7 0h1m1 0h4m4 0h1m1 0h1m3 0h2m1 0h4m1 0h1m3 0h2m3 0h4m-177 1h2m1 0h2m1 0h3m1 0h2m2 0h3m1 0h3m2 0h3m1 0h2m1 0h1m2 0h1m3 0h7m3 0h2m3 0h1m1 0h2m1 0h1m1 0h1m1 0h1m1 0h1m2 0h1m5 0h3m2 0h1m1 0h1m4 0h1m6 0h2m1 0h2m1 0h9m3 0h2m1 0h1m6 0h3m1 0h1m2 0h1m1 0h1m2 0h1m1 0h1m1 0h3m5 0h2m4 0h5m1 0h2m1 0h2m1 0h1m5 0h3m1 0h2m2 0h1m-176 1h1m3 0h1m4 0h1m2 0h1m1 0h3m1 0h1m1 0h1m1 0h1m1 0h1m1 0h1m2 0h1m1 0h4m3 0h1m2 0h2m1 0h1m2 0h5m2 0h4m2 0h1m3 0h4m2 0h2m2 0h2m2 0h1m1 0h1m1 0h2m1 0h1m1 0h1m2 0h2m2 0h2m2 0h1m1 0h2m3 0h2m2 0h1m3 0h2m1 0h1m1 0h3m1 0h1m2 0h1m1 0h1m1 0h4m5 0h5m1 0h1m1 0h3m7 0h4m5 0h4m3 0h3m1 0h1m-177 1h3m1 0h1m1 0h1m2 0h5m5 0h1m5 0h2m2 0h1m1 0h1m1 0h1m1 0h1m1 0h1m3 0h2m1 0h2m1 0h2m1 0h1m1 0h7m2 0h1m3 0h1m3 0h2m1 0h2m3 0h1m1 0h2m2 0h1m3 0h2m1 0h2m1 0h1m1 0h1m1 0h2m2 0h1m1 0h1m4 0h8m2 0h1m1 0h1m1 0h1m2 0h3m7 0h1m1 0h1m1 0h1m2 0h3m1 0h1m4 0h1m1 0h1m1 0h2m5 0h2m1 0h1m6 0h4m-176 1h1m3 0h2m1 0h2m1 0h2m2 0h2m4 0h2m1 0h2m1 0h2m1 0h3m3 0h1m1 0h1m1 0h1m4 0h1m3 0h1m1 0h2m2 0h1m1 0h1m2 0h1m2 0h3m1 0h4m1 0h1m1 0h3m1 0h1m1 0h1m3 0h3m1 0h2m1 0h3m7 0h1m3 0h1m2 0h1m9 0h2m4 0h2m3 0h1m1 0h1m1 0h1m2 0h2m1 0h1m1 0h1m1 0h4m4 0h2m3 0h3m1 0h1m1 0h3m6 0h2m1 0h2m1 0h1m-177 1h1m4 0h2m1 0h2m1 0h1m1 0h1m2 0h1m7 0h1m1 0h1m1 0h1m2 0h1m2 0h2m3 0h1m2 0h9m2 0h1m1 0h5m1 0h1m1 0h1m1 0h1m2 0h1m2 0h2m1 0h3m3 0h2m1 0h1m1 0h1m1 0h1m3 0h1m3 0h2m2 0h5m2 0h1m1 0h1m1 0h1m1 0h2m1 0h2m3 0h2m1 0h5m3 0h1m1 0h1m1 0h1m1 0h2m6 0h1m6 0h2m4 0h4m2 0h2m1 0h3m1 0h4m-175 1h2m2 0h2m1 0h1m1 0h1m1 0h1m2 0h2m3 0h7m1 0h3m1 0h1m1 0h3m1 0h2m3 0h1m2 0h1m4 0h1m4 0h2m2 0h1m4 0h3m4 0h1m2 0h1m3 0h1m4 0h3m1 0h1m1 0h1m3 0h1m1 0h1m4 0h2m1 0h1m1 0h1m2 0h4m1 0h3m1 0h5m3 0h3m3 0h3m5 0h4m4 0h2m1 0h1m1 0h1m2 0h3m1 0h3m2 0h1m1 0h1m1 0h1m2 0h1m1 0h1m-174 1h2m1 0h2m1 0h2m1 0h15m1 0h1m4 0h1m2 0h1m1 0h2m1 0h1m5 0h3m2 0h6m3 0h1m2 0h6m2 0h1m3 0h3m1 0h4m6 0h3m1 0h1m1 0h1m1 0h1m2 0h2m1 0h1m3 0h1m1 0h1m2 0h3m1 0h2m1 0h1m2 0h2m4 0h1m2 0h2m9 0h3m7 0h2m1 0h4m1 0h1m3 0h2m1 0h3m3 0h1m2 0h2m-176 1h1m1 0h2m3 0h1m4 0h2m1 0h2m2 0h2m3 0h1m3 0h4m2 0h1m1 0h1m2 0h2m1 0h2m3 0h2m3 0h1m1 0h3m1 0h1m1 0h2m2 0h2m3 0h3m1 0h2m2 0h2m1 0h2m3 0h1m1 0h1m2 0h1m7 0h2m5 0h9m3 0h2m2 0h6m2 0h4m1 0h3m1 0h1m1 0h1m1 0h4m4 0h3m4 0h1m1 0h4m5 0h2m3 0h4m-176 1h1m1 0h4m4 0h1m1 0h1m2 0h2m1 0h2m1 0h1m1 0h1m1 0h2m1 0h3m7 0h1m1 0h1m2 0h1m2 0h3m2 0h1m1 0h1m4 0h2m1 0h2m5 0h3m1 0h7m1 0h2m1 0h1m1 0h1m1 0h1m1 0h1m1 0h1m2 0h2m5 0h1m2 0h1m2 0h1m2 0h1m1 0h1m3 0h1m2 0h2m1 0h5m5 0h1m2 0h3m5 0h1m2 0h3m1 0h1m6 0h2m3 0h2m2 0h1m1 0h1m1 0h2m-172 1h4m2 0h2m3 0h2m2 0h2m2 0h6m1 0h1m1 0h1m1 0h1m4 0h1m1 0h3m5 0h2m1 0h1m1 0h1m3 0h1m2 0h1m1 0h1m3 0h1m3 0h1m1 0h4m1 0h2m1 0h1m1 0h6m1 0h4m4 0h1m1 0h2m1 0h6m2 0h3m1 0h1m5 0h4m4 0h2m1 0h1m1 0h2m1 0h2m2 0h1m4 0h1m1 0h1m2 0h1m3 0h1m3 0h4m1 0h2m4 0h2m4 0h4m-177 1h2m1 0h1m2 0h1m2 0h2m1 0h2m1 0h4m3 0h1m2 0h3m1 0h3m1 0h4m1 0h4m2 0h1m4 0h5m3 0h2m2 0h1m7 0h1m3 0h2m2 0h5m3 0h1m1 0h2m1 0h2m2 0h1m2 0h3m2 0h3m1 0h1m1 0h2m2 0h1m3 0h2m2 0h2m1 0h1m2 0h3m1 0h1m6 0h2m1 0h5m4 0h3m2 0h3m4 0h3m2 0h1m4 0h3m-174 1h2m1 0h2m2 0h1m3 0h2m2 0h1m1 0h1m1 0h1m2 0h2m3 0h1m1 0h1m4 0h1m2 0h4m1 0h2m1 0h1m1 0h1m1 0h1m1 0h3m2 0h5m4 0h3m2 0h1m1 0h1m2 0h2m1 0h1m2 0h1m1 0h3m1 0h1m1 0h3m1 0h1m1 0h1m1 0h1m1 0h4m3 0h1m6 0h3m1 0h2m2 0h2m1 0h6m2 0h5m4 0h5m3 0h5m1 0h3m3 0h4m3 0h2m3 0h3m-174 1h1m1 0h1m1 0h1m1 0h1m2 0h6m5 0h1m1 0h2m1 0h1m1 0h1m4 0h1m2 0h1m1 0h2m1 0h1m1 0h4m2 0h3m1 0h1m1 0h1m2 0h1m2 0h1m2 0h1m1 0h2m1 0h1m1 0h1m1 0h3m2 0h1m2 0h1m1 0h3m1 0h1m4 0h3m1 0h1m1 0h2m2 0h2m1 0h2m2 0h1m9 0h1m4 0h2m4 0h1m1 0h1m2 0h1m1 0h1m1 0h1m3 0h1m1 0h2m2 0h2m2 0h1m3 0h3m4 0h5m1 0h1m1 0h2m1 0h1m-176 1h4m2 0h1m3 0h1m1 0h4m1 0h1m1 0h2m2 0h1m1 0h5m2 0h2m2 0h4m1 0h5m2 0h2m1 0h2m1 0h2m3 0h6m1 0h1m2 0h1m2 0h1m1 0h1m2 0h1m1 0h3m1 0h1m2 0h2m1 0h3m2 0h3m1 0h5m2 0h1m1 0h1m3 0h2m4 0h5m2 0h3m1 0h4m2 0h1m1 0h1m1 0h1m1 0h1m2 0h6m1 0h6m1 0h2m1 0h5m1 0h3m2 0h2m-173 1h4m1 0h1m1 0h2m3 0h7m1 0h1m1 0h1m1 0h2m1 0h1m1 0h1m4 0h3m1 0h3m2 0h1m1 0h1m1 0h5m1 0h2m2 0h8m1 0h1m4 0h2m3 0h2m1 0h2m3 0h3m1 0h1m3 0h2m3 0h3m3 0h1m1 0h1m1 0h1m1 0h1m1 0h2m6 0h1m2 0h2m2 0h2m1 0h1m2 0h1m2 0h1m3 0h2m4 0h1m2 0h1m1 0h1m1 0h1m1 0h2m1 0h1m2 0h2m3 0h2m2 0h3m1 0h2m-176 1h2m1 0h1m7 0h2m3 0h1m1 0h3m1 0h1m2 0h1m1 0h5m1 0h1m2 0h1m2 0h2m1 0h1m1 0h1m3 0h1m1 0h4m1 0h3m3 0h2m1 0h2m3 0h1m5 0h1m1 0h2m2 0h1m1 0h5m11 0h1m1 0h3m1 0h1m2 0h3m2 0h1m2 0h2m4 0h3m6 0h3m3 0h2m1 0h1m1 0h3m2 0h1m1 0h4m4 0h1m3 0h2m1 0h1m4 0h1m3 0h3m-174 1h1m1 0h6m2 0h1m1 0h1m3 0h2m1 0h1m2 0h2m2 0h5m1 0h1m1 0h1m1 0h8m3 0h6m1 0h5m1 0h2m3 0h1m2 0h3m3 0h2m1 0h4m1 0h6m2 0h1m2 0h3m3 0h1m2 0h1m1 0h1m2 0h2m1 0h5m2 0h3m3 0h2m1 0h1m4 0h1m3 0h2m1 0h9m2 0h1m1 0h2m2 0h1m1 0h1m5 0h1m2 0h5m2 0h1m-172 1h1m3 0h1m2 0h2m3 0h2m2 0h1m6 0h2m3 0h1m7 0h1m1 0h1m3 0h2m2 0h1m5 0h1m3 0h1m2 0h2m1 0h1m1 0h2m3 0h3m1 0h5m1 0h2m3 0h3m2 0h1m1 0h3m1 0h1m1 0h5m3 0h2m1 0h1m3 0h1m1 0h4m3 0h3m1 0h6m2 0h2m1 0h1m3 0h2m1 0h2m5 0h1m3 0h2m1 0h2m1 0h1m3 0h1m3 0h4m-176 1h3m1 0h1m1 0h1m1 0h1m7 0h1m4 0h1m1 0h1m3 0h2m1 0h1m1 0h1m1 0h1m1 0h1m2 0h1m2 0h2m1 0h2m5 0h1m3 0h1m1 0h1m1 0h3m1 0h2m2 0h4m1 0h3m3 0h3m1 0h2m1 0h1m1 0h1m1 0h3m2 0h1m1 0h1m2 0h1m1 0h2m1 0h1m2 0h1m1 0h3m1 0h1m1 0h1m1 0h1m3 0h3m2 0h6m2 0h1m1 0h1m2 0h1m1 0h1m1 0h1m6 0h1m1 0h4m1 0h1m3 0h2m2 0h3m1 0h1m1 0h2m1 0h1m-174 1h3m3 0h2m4 0h4m3 0h1m2 0h1m1 0h1m1 0h1m3 0h1m1 0h2m2 0h10m3 0h1m3 0h2m3 0h1m1 0h1m1 0h1m7 0h1m2 0h5m2 0h3m3 0h1m1 0h1m1 0h1m4 0h1m5 0h2m1 0h2m4 0h1m3 0h1m1 0h1m1 0h1m2 0h2m2 0h1m1 0h1m1 0h2m2 0h2m3 0h1m3 0h2m1 0h5m2 0h1m2 0h1m2 0h3m4 0h2m3 0h3m1 0h1m-176 1h1m2 0h8m2 0h1m3 0h2m7 0h7m2 0h2m4 0h1m1 0h1m1 0h2m2 0h1m1 0h2m2 0h7m1 0h1m2 0h1m3 0h3m3 0h1m2 0h3m1 0h6m1 0h1m5 0h4m1 0h1m4 0h1m2 0h7m2 0h1m1 0h1m3 0h2m1 0h1m2 0h1m1 0h1m1 0h1m1 0h2m1 0h5m3 0h1m3 0h2m2 0h1m2 0h1m1 0h1m2 0h2m1 0h6m-169 1h2m4 0h10m1 0h2m2 0h1m1 0h6m1 0h1m1 0h1m2 0h2m1 0h1m1 0h3m2 0h3m3 0h1m1 0h1m1 0h2m1 0h1m1 0h5m1 0h1m1 0h1m1 0h2m4 0h2m2 0h4m3 0h3m2 0h2m1 0h1m1 0h4m2 0h1m1 0h4m4 0h2m1 0h1m4 0h3m1 0h1m1 0h2m1 0h1m3 0h2m3 0h1m1 0h1m2 0h1m5 0h1m1 0h1m1 0h1m1 0h1m7 0h2m2 0h1m1 0h1m1 0h1m-176 1h1m4 0h3m1 0h1m2 0h3m2 0h1m2 0h2m5 0h2m1 0h5m2 0h1m2 0h1m5 0h4m1 0h1m2 0h1m1 0h1m2 0h1m4 0h2m5 0h2m1 0h1m1 0h1m3 0h1m1 0h2m2 0h1m3 0h1m3 0h4m2 0h3m2 0h5m2 0h1m1 0h3m1 0h1m2 0h1m2 0h1m1 0h1m1 0h2m2 0h5m3 0h5m4 0h2m1 0h4m1 0h1m2 0h3m2 0h1m3 0h1m3 0h2m-176 1h2m5 0h2m1 0h5m1 0h1m1 0h3m1 0h4m3 0h1m1 0h7m1 0h1m1 0h3m1 0h3m2 0h1m1 0h1m5 0h3m1 0h8m2 0h1m1 0h5m1 0h1m1 0h1m1 0h7m1 0h2m2 0h5m1 0h1m2 0h1m2 0h1m3 0h2m1 0h1m1 0h4m2 0h1m2 0h1m1 0h1m3 0h1m2 0h1m1 0h1m1 0h1m1 0h2m1 0h2m1 0h5m2 0h2m1 0h1m1 0h2m1 0h2m5 0h1m1 0h6m-176 1h1m1 0h2m1 0h1m4 0h3m2 0h1m2 0h1m3 0h1m1 0h2m5 0h1m3 0h2m2 0h6m1 0h6m1 0h2m1 0h3m3 0h3m1 0h1m1 0h2m1 0h1m2 0h3m1 0h5m1 0h4m1 0h3m1 0h1m1 0h2m1 0h1m2 0h2m1 0h2m1 0h1m1 0h1m2 0h1m3 0h1m1 0h3m1 0h1m1 0h2m1 0h1m4 0h1m1 0h1m1 0h4m2 0h2m1 0h2m2 0h1m1 0h2m2 0h2m3 0h1m2 0h3m7 0h2m-176 1h1m1 0h1m2 0h1m3 0h2m5 0h1m7 0h1m1 0h4m2 0h1m2 0h1m1 0h1m2 0h4m1 0h5m1 0h1m1 0h1m2 0h1m4 0h1m1 0h2m1 0h1m2 0h1m1 0h1m3 0h1m1 0h2m2 0h1m1 0h2m2 0h2m1 0h2m2 0h1m1 0h1m1 0h3m5 0h3m2 0h3m4 0h3m6 0h1m3 0h2m1 0h1m8 0h3m1 0h2m5 0h1m1 0h1m2 0h1m2 0h2m2 0h4m1 0h1m1 0h2m1 0h1m-177 1h1m1 0h1m1 0h3m1 0h2m1 0h2m2 0h1m2 0h8m2 0h3m1 0h1m4 0h2m1 0h1m2 0h1m4 0h2m1 0h1m1 0h1m1 0h1m1 0h1m4 0h1m1 0h2m1 0h1m1 0h1m2 0h3m1 0h2m1 0h3m1 0h6m2 0h4m3 0h8m2 0h1m1 0h2m1 0h4m2 0h1m2 0h1m4 0h3m1 0h2m2 0h1m1 0h5m4 0h1m2 0h3m1 0h4m6 0h1m1 0h2m1 0h1m2 0h3m1 0h1m-174 1h1m2 0h1m5 0h1m1 0h3m3 0h2m1 0h1m2 0h2m3 0h2m2 0h5m2 0h1m2 0h4m2 0h1m7 0h3m6 0h3m2 0h2m1 0h4m1 0h1m1 0h1m1 0h1m1 0h1m2 0h5m3 0h2m1 0h1m1 0h3m1 0h1m1 0h1m4 0h1m2 0h5m2 0h1m1 0h3m1 0h1m1 0h2m1 0h4m6 0h2m1 0h6m1 0h4m1 0h1m2 0h1m1 0h2m5 0h6m-176 1h1m1 0h2m1 0h1m5 0h1m3 0h1m1 0h1m1 0h2m1 0h1m1 0h2m1 0h1m1 0h12m3 0h1m4 0h5m1 0h2m3 0h1m3 0h1m1 0h3m6 0h1m1 0h2m2 0h1m3 0h2m2 0h2m1 0h2m2 0h2m1 0h2m1 0h1m1 0h2m1 0h3m1 0h1m6 0h3m3 0h3m3 0h1m1 0h1m2 0h5m2 0h5m2 0h1m2 0h1m1 0h1m3 0h3m1 0h2m1 0h5m3 0h2m-176 1h3m4 0h1m1 0h1m4 0h2m2 0h1m1 0h1m3 0h1m7 0h3m5 0h1m3 0h4m1 0h1m2 0h3m1 0h1m2 0h2m3 0h1m1 0h6m1 0h1m2 0h1m2 0h2m2 0h2m5 0h2m2 0h1m1 0h4m1 0h2m1 0h1m3 0h2m3 0h1m4 0h3m6 0h1m3 0h3m5 0h1m3 0h3m2 0h1m4 0h1m1 0h1m1 0h4m1 0h1m1 0h1m2 0h3m2 0h1m3 0h1m-176 1h3m2 0h1m1 0h1m1 0h1m1 0h2m5 0h3m4 0h1m2 0h1m2 0h1m5 0h1m1 0h1m2 0h1m2 0h1m4 0h1m2 0h3m2 0h1m1 0h3m3 0h2m1 0h2m1 0h2m1 0h2m1 0h4m1 0h1m1 0h2m1 0h1m1 0h4m1 0h1m2 0h1m1 0h1m1 0h4m1 0h1m6 0h1m1 0h2m1 0h1m1 0h3m2 0h4m1 0h1m2 0h1m1 0h11m3 0h1m1 0h1m1 0h4m7 0h3m6 0h1m-176 1h2m1 0h1m3 0h2m1 0h1m2 0h5m3 0h1m4 0h4m1 0h2m2 0h2m1 0h5m2 0h2m2 0h1m3 0h1m1 0h1m3 0h2m3 0h3m2 0h1m3 0h4m1 0h1m2 0h1m4 0h4m2 0h3m1 0h1m1 0h1m2 0h2m1 0h1m3 0h1m1 0h1m1 0h2m11 0h3m3 0h1m2 0h5m5 0h1m2 0h4m2 0h1m3 0h1m3 0h3m3 0h2m1 0h1m1 0h3m-173 1h1m1 0h1m1 0h1m1 0h1m2 0h3m2 0h5m1 0h6m1 0h1m5 0h1m1 0h4m2 0h1m2 0h2m1 0h1m1 0h1m2 0h2m1 0h1m1 0h1m2 0h1m2 0h1m1 0h2m2 0h4m1 0h1m2 0h2m3 0h1m1 0h2m2 0h1m3 0h1m1 0h2m1 0h4m1 0h1m1 0h1m1 0h1m2 0h1m1 0h1m2 0h1m4 0h1m2 0h3m1 0h1m2 0h1m1 0h1m4 0h3m1 0h9m1 0h1m1 0h1m1 0h1m1 0h3m3 0h4m1 0h1m4 0h1m-175 1h2m1 0h1m3 0h1m1 0h3m2 0h1m1 0h1m1 0h2m2 0h3m1 0h2m1 0h1m2 0h1m9 0h2m2 0h1m1 0h2m1 0h1m1 0h1m1 0h3m2 0h2m1 0h1m2 0h1m2 0h1m3 0h2m1 0h1m3 0h2m3 0h1m3 0h4m4 0h1m4 0h3m3 0h1m1 0h1m1 0h3m3 0h4m1 0h1m2 0h2m1 0h2m1 0h1m4 0h1m3 0h1m2 0h1m2 0h7m3 0h1m2 0h3m4 0h2m3 0h1m2 0h2m-176 1h1m2 0h3m2 0h1m2 0h2m2 0h3m1 0h1m2 0h3m2 0h1m2 0h2m1 0h4m3 0h2m1 0h1m1 0h2m2 0h1m1 0h2m1 0h1m1 0h1m3 0h1m3 0h1m1 0h1m1 0h2m1 0h1m4 0h1m1 0h1m1 0h2m1 0h2m4 0h1m1 0h2m3 0h2m1 0h2m2 0h3m1 0h4m2 0h1m8 0h5m1 0h1m3 0h1m1 0h1m3 0h2m1 0h2m1 0h2m6 0h1m1 0h2m2 0h1m3 0h1m2 0h2m1 0h3m2 0h1m-175 1h2m1 0h1m1 0h1m4 0h2m2 0h1m1 0h1m2 0h2m1 0h1m2 0h1m9 0h2m3 0h2m1 0h1m1 0h1m1 0h1m2 0h1m1 0h1m1 0h5m3 0h1m3 0h2m1 0h3m1 0h2m1 0h7m3 0h1m4 0h4m1 0h2m1 0h1m1 0h5m1 0h1m1 0h1m2 0h1m4 0h2m3 0h3m1 0h2m1 0h1m3 0h1m1 0h2m1 0h1m2 0h2m1 0h1m2 0h1m2 0h4m1 0h1m1 0h1m3 0h2m1 0h1m3 0h1m4 0h4m-175 1h2m1 0h5m1 0h1m1 0h1m2 0h1m2 0h3m2 0h1m1 0h3m3 0h1m2 0h3m3 0h2m4 0h1m4 0h5m3 0h1m1 0h1m1 0h2m5 0h3m4 0h1m4 0h1m1 0h1m1 0h1m2 0h1m1 0h1m1 0h1m4 0h5m3 0h1m1 0h1m3 0h4m2 0h1m1 0h1m3 0h2m6 0h1m1 0h1m1 0h3m3 0h4m1 0h2m1 0h1m2 0h2m2 0h4m3 0h2m3 0h1m-170 1h3m5 0h1m1 0h1m5 0h2m1 0h2m1 0h1m1 0h1m4 0h4m2 0h4m1 0h1m1 0h1m8 0h1m1 0h2m1 0h2m1 0h1m1 0h2m2 0h2m3 0h2m1 0h2m1 0h1m2 0h1m1 0h1m2 0h2m3 0h1m1 0h1m1 0h3m3 0h1m1 0h1m2 0h1m1 0h5m1 0h1m1 0h2m1 0h1m1 0h1m1 0h1m3 0h2m1 0h5m4 0h2m4 0h1m1 0h5m3 0h1m1 0h3m1 0h2m3 0h1m1 0h3m1 0h2m1 0h3m-177 1h1m1 0h6m1 0h5m1 0h4m2 0h3m1 0h2m6 0h1m9 0h2m4 0h1m1 0h1m1 0h1m1 0h1m1 0h1m1 0h2m1 0h2m1 0h1m1 0h1m1 0h1m2 0h6m1 0h1m2 0h5m2 0h3m6 0h3m1 0h2m1 0h1m3 0h1m2 0h1m1 0h2m2 0h3m11 0h3m1 0h3m1 0h2m1 0h1m1 0h1m3 0h1m1 0h1m2 0h5m4 0h1m1 0h2m1 0h1m2 0h1m2 0h1m-175 1h1m1 0h1m2 0h1m1 0h1m6 0h4m3 0h1m3 0h3m3 0h3m3 0h2m2 0h2m2 0h1m3 0h2m1 0h2m1 0h1m4 0h2m1 0h1m2 0h1m4 0h7m3 0h2m1 0h1m1 0h6m5 0h1m1 0h1m1 0h6m4 0h2m3 0h3m2 0h4m3 0h1m1 0h3m1 0h2m2 0h1m1 0h1m1 0h4m1 0h1m1 0h4m3 0h2m1 0h4m4 0h1m2 0h7m-175 1h1m1 0h4m1 0h1m2 0h2m3 0h1m4 0h1m1 0h1m1 0h3m1 0h1m2 0h1m1 0h5m2 0h1m2 0h2m1 0h1m1 0h1m3 0h2m1 0h1m1 0h6m2 0h1m4 0h1m2 0h2m1 0h2m2 0h6m3 0h1m2 0h1m3 0h4m5 0h1m5 0h2m5 0h2m1 0h1m1 0h2m4 0h1m1 0h1m3 0h4m1 0h3m1 0h3m2 0h1m1 0h3m3 0h1m4 0h1m3 0h1m1 0h1m4 0h1m-176 1h1m1 0h2m3 0h1m2 0h1m4 0h1m1 0h5m1 0h1m3 0h2m3 0h1m3 0h2m1 0h1m2 0h4m2 0h1m2 0h3m3 0h1m1 0h1m3 0h5m1 0h1m2 0h3m2 0h2m1 0h1m1 0h1m1 0h1m2 0h1m1 0h2m1 0h3m2 0h1m1 0h2m2 0h4m2 0h4m4 0h6m2 0h3m1 0h4m1 0h1m3 0h1m5 0h5m4 0h4m1 0h7m2 0h1m1 0h1m3 0h4m-177 1h4m2 0h1m2 0h2m1 0h2m3 0h3m3 0h1m4 0h1m2 0h1m1 0h2m2 0h2m6 0h2m1 0h1m11 0h2m2 0h2m4 0h1m3 0h4m1 0h1m5 0h1m2 0h1m1 0h1m2 0h5m1 0h1m1 0h1m1 0h1m2 0h5m2 0h2m3 0h2m1 0h1m4 0h2m1 0h4m1 0h3m1 0h1m1 0h3m1 0h2m3 0h3m3 0h2m1 0h1m7 0h1m7 0h2m-176 1h6m1 0h1m2 0h5m3 0h2m1 0h2m2 0h2m3 0h1m1 0h1m1 0h1m2 0h1m6 0h1m1 0h3m2 0h1m1 0h3m4 0h1m3 0h10m2 0h1m3 0h1m12 0h7m1 0h2m1 0h2m1 0h2m2 0h2m2 0h1m4 0h6m2 0h3m1 0h1m2 0h1m1 0h1m3 0h1m3 0h1m2 0h3m5 0h2m1 0h1m1 0h2m4 0h1m5 0h2m1 0h1m-175 1h8m3 0h2m2 0h3m2 0h1m1 0h1m2 0h10m1 0h2m1 0h2m1 0h1m2 0h1m1 0h1m1 0h3m2 0h5m3 0h1m1 0h3m4 0h2m2 0h1m5 0h8m1 0h2m1 0h3m3 0h2m1 0h2m4 0h7m3 0h2m4 0h1m6 0h1m1 0h1m1 0h8m1 0h1m5 0h2m4 0h2m1 0h1m1 0h1m4 0h5m-173 1h1m3 0h1m3 0h2m1 0h3m1 0h1m1 0h1m4 0h1m1 0h1m1 0h1m1 0h1m3 0h2m2 0h1m2 0h4m3 0h1m2 0h4m1 0h1m1 0h1m3 0h1m2 0h3m1 0h2m4 0h3m3 0h1m1 0h1m1 0h2m3 0h2m4 0h1m1 0h1m1 0h1m1 0h1m2 0h1m5 0h1m1 0h2m3 0h5m1 0h1m2 0h1m1 0h1m3 0h2m7 0h1m3 0h1m3 0h1m2 0h1m1 0h3m3 0h1m1 0h1m1 0h3m2 0h1m3 0h4m-176 1h2m2 0h1m1 0h1m1 0h2m2 0h2m2 0h2m1 0h2m1 0h3m1 0h3m1 0h1m1 0h3m1 0h1m3 0h2m1 0h3m4 0h1m1 0h1m1 0h1m1 0h1m1 0h1m1 0h3m1 0h1m3 0h1m1 0h3m2 0h1m1 0h1m1 0h2m2 0h2m1 0h1m1 0h2m1 0h1m3 0h4m6 0h2m3 0h1m1 0h1m1 0h1m1 0h1m1 0h2m1 0h1m3 0h5m4 0h1m4 0h2m1 0h1m1 0h1m1 0h1m2 0h3m3 0h3m4 0h2m2 0h3m1 0h1m1 0h4m-176 1h1m2 0h2m3 0h1m1 0h2m2 0h2m3 0h2m1 0h7m3 0h3m1 0h1m5 0h2m2 0h1m2 0h4m2 0h2m3 0h2m2 0h1m2 0h1m1 0h1m1 0h2m2 0h6m1 0h3m3 0h1m1 0h1m1 0h4m1 0h3m5 0h3m1 0h2m1 0h1m3 0h3m1 0h4m2 0h1m1 0h1m1 0h1m1 0h2m1 0h2m1 0h1m1 0h1m3 0h2m1 0h5m7 0h4m2 0h1m1 0h2m3 0h3m1 0h1m-174 1h6m1 0h2m1 0h1m4 0h1m4 0h1m1 0h8m2 0h4m1 0h2m5 0h6m2 0h6m6 0h6m1 0h1m2 0h1m2 0h1m2 0h6m1 0h1m1 0h1m2 0h3m4 0h1m1 0h4m4 0h5m3 0h2m3 0h3m3 0h1m1 0h1m3 0h2m1 0h5m2 0h1m3 0h3m2 0h2m1 0h1m1 0h1m2 0h1m1 0h1m1 0h5m1 0h1m1 0h1m-177 1h1m1 0h1m1 0h2m1 0h2m2 0h1m1 0h4m1 0h2m5 0h1m5 0h3m1 0h1m2 0h1m1 0h2m1 0h1m1 0h1m1 0h1m1 0h1m1 0h2m7 0h2m1 0h4m1 0h1m1 0h1m2 0h1m1 0h1m1 0h8m1 0h2m1 0h1m2 0h1m2 0h1m2 0h1m1 0h2m3 0h4m2 0h1m1 0h1m3 0h4m4 0h3m3 0h2m4 0h1m1 0h1m1 0h1m1 0h2m1 0h1m1 0h1m1 0h5m4 0h2m1 0h2m1 0h3m1 0h2m4 0h1m-176 1h3m1 0h3m2 0h1m3 0h4m1 0h3m1 0h2m6 0h1m1 0h2m2 0h1m2 0h1m1 0h4m2 0h1m2 0h3m2 0h1m3 0h2m2 0h3m5 0h1m1 0h1m4 0h1m2 0h3m1 0h1m2 0h1m2 0h3m1 0h1m1 0h5m4 0h1m3 0h1m3 0h1m2 0h1m1 0h1m3 0h1m2 0h5m2 0h7m3 0h1m1 0h1m1 0h1m3 0h1m1 0h5m9 0h1m1 0h1m2 0h4m-176 1h2m2 0h2m1 0h1m3 0h3m2 0h4m1 0h1m1 0h2m3 0h2m2 0h1m4 0h1m2 0h2m4 0h1m3 0h2m1 0h1m4 0h1m1 0h1m2 0h3m1 0h7m1 0h1m2 0h3m1 0h2m1 0h1m4 0h1m1 0h1m2 0h1m1 0h2m1 0h2m2 0h1m1 0h1m2 0h6m4 0h4m2 0h2m3 0h6m1 0h1m2 0h1m1 0h2m1 0h1m1 0h2m1 0h3m2 0h2m3 0h4m6 0h2m1 0h3m-175 1h11m3 0h2m2 0h1m1 0h1m3 0h1m2 0h5m3 0h1m1 0h1m4 0h3m1 0h1m2 0h2m6 0h2m2 0h1m1 0h1m2 0h1m2 0h3m1 0h2m1 0h3m3 0h1m3 0h1m2 0h2m2 0h1m2 0h3m1 0h2m2 0h4m1 0h4m1 0h2m4 0h1m2 0h4m5 0h1m2 0h3m5 0h1m2 0h3m1 0h1m3 0h3m3 0h1m3 0h1m2 0h1m1 0h1m-163 1h2m1 0h2m1 0h2m1 0h2m1 0h6m2 0h1m8 0h2m3 0h2m1 0h6m1 0h1m3 0h1m2 0h2m1 0h2m1 0h1m1 0h1m2 0h3m1 0h1m2 0h1m1 0h2m2 0h5m2 0h2m1 0h2m1 0h1m3 0h2m1 0h1m1 0h2m5 0h2m2 0h5m2 0h1m1 0h3m1 0h1m1 0h3m1 0h1m4 0h1m1 0h5m1 0h3m1 0h3m1 0h1m3 0h4m1 0h1m3 0h1m3 0h2m1 0h1m-177 1h11m2 0h6m1 0h1m3 0h1m3 0h1m1 0h1m1 0h3m1 0h1m1 0h9m1 0h2m4 0h1m1 0h1m1 0h1m6 0h1m2 0h1m1 0h1m1 0h2m2 0h1m1 0h2m1 0h3m1 0h1m3 0h1m1 0h3m2 0h1m1 0h1m6 0h1m2 0h1m4 0h7m4 0h1m3 0h5m3 0h1m6 0h2m4 0h1m1 0h1m1 0h5m8 0h1m1 0h2m1 0h3m1 0h1m-176 1h2m1 0h1m1 0h1m1 0h1m6 0h3m1 0h5m2 0h2m2 0h1m4 0h1m2 0h1m1 0h4m1 0h2m2 0h1m2 0h4m1 0h1m4 0h2m1 0h2m1 0h3m1 0h2m1 0h1m2 0h1m1 0h2m1 0h2m1 0h1m1 0h2m1 0h1m2 0h1m1 0h1m2 0h1m1 0h1m1 0h3m1 0h2m1 0h2m1 0h3m2 0h1m1 0h5m1 0h2m1 0h1m2 0h1m1 0h1m3 0h6m2 0h1m1 0h4m1 0h1m2 0h2m2 0h2m1 0h2m5 0h1m1 0h6m-177 1h1m2 0h5m1 0h4m1 0h1m2 0h1m1 0h1m1 0h5m3 0h1m5 0h1m1 0h3m2 0h1m3 0h1m1 0h1m3 0h1m8 0h1m13 0h4m3 0h4m3 0h1m1 0h5m2 0h1m1 0h1m2 0h5m2 0h1m4 0h3m1 0h1m1 0h1m3 0h2m1 0h1m4 0h1m1 0h1m2 0h1m1 0h2m5 0h1m1 0h5m3 0h1m3 0h1m3 0h1m5 0h1m2 0h2m-176 1h3m4 0h1m2 0h1m1 0h1m1 0h1m2 0h1m3 0h3m2 0h2m2 0h1m7 0h2m2 0h1m1 0h2m5 0h1m1 0h2m1 0h1m1 0h1m2 0h4m2 0h1m4 0h1m2 0h4m1 0h4m3 0h1m1 0h1m1 0h1m1 0h1m3 0h2m3 0h3m1 0h1m1 0h1m3 0h1m3 0h1m1 0h3m5 0h2m1 0h1m1 0h4m2 0h1m1 0h2m1 0h4m1 0h2m2 0h1m1 0h1m3 0h1m1 0h4m3 0h1m1 0h1m1 0h1m2 0h1m1 0h2m-177 1h2m2 0h6m1 0h1m5 0h1m6 0h7m1 0h1m2 0h1m1 0h1m3 0h2m2 0h1m1 0h1m2 0h1m1 0h2m1 0h1m1 0h5m1 0h1m2 0h2m1 0h1m1 0h3m1 0h3m1 0h1m1 0h3m1 0h2m3 0h4m7 0h1m1 0h1m2 0h1m1 0h1m3 0h8m2 0h3m2 0h5m1 0h1m2 0h4m5 0h1m5 0h1m1 0h4m5 0h1m2 0h2m1 0h2m2 0h1m-168 1h1m5 0h1m4 0h1m1 0h1m1 0h2m1 0h1m1 0h1m1 0h3m1 0h5m3 0h5m2 0h3m1 0h1m1 0h1m1 0h1m1 0h5m1 0h1m1 0h1m1 0h1m4 0h2m2 0h1m1 0h2m1 0h1m3 0h3m1 0h5m1 0h1m2 0h3m2 0h3m1 0h3m2 0h2m1 0h1m2 0h1m2 0h2m1 0h5m1 0h1m2 0h1m2 0h1m1 0h1m1 0h3m1 0h1m1 0h1m1 0h4m6 0h1m1 0h5m3 0h1m2 0h1m2 0h2m-175 1h1m1 0h3m1 0h2m2 0h3m1 0h1m2 0h3m1 0h1m1 0h2m1 0h1m3 0h1m1 0h3m3 0h1m1 0h1m1 0h2m4 0h1m1 0h2m1 0h1m3 0h1m3 0h1m1 0h1m2 0h2m4 0h2m1 0h1m1 0h1m2 0h1m1 0h2m2 0h2m1 0h2m1 0h2m6 0h1m2 0h5m1 0h1m2 0h2m1 0h3m5 0h1m1 0h2m1 0h1m4 0h1m2 0h3m8 0h1m1 0h2m3 0h1m2 0h2m1 0h1m3 0h1m7 0h1m2 0h1m-176 1h1m1 0h2m3 0h2m1 0h1m1 0h1m4 0h1m1 0h1m6 0h1m1 0h1m2 0h3m1 0h3m3 0h3m1 0h1m2 0h3m2 0h1m1 0h2m3 0h1m1 0h1m1 0h2m1 0h1m1 0h1m3 0h1m2 0h2m2 0h1m3 0h1m3 0h4m2 0h2m2 0h1m1 0h1m1 0h4m1 0h3m2 0h1m1 0h1m1 0h1m1 0h5m2 0h3m1 0h1m1 0h2m1 0h2m4 0h1m2 0h2m1 0h1m1 0h4m3 0h1m1 0h1m1 0h2m1 0h3m2 0h1m1 0h2m3 0h1m1 0h1m-177 1h8m1 0h1m5 0h2m3 0h1m2 0h4m1 0h2m2 0h1m3 0h1m3 0h2m7 0h3m1 0h1m1 0h1m1 0h3m2 0h2m1 0h2m1 0h1m3 0h3m4 0h1m2 0h4m2 0h1m4 0h1m2 0h1m1 0h2m3 0h1m1 0h4m1 0h1m1 0h5m1 0h1m3 0h2m7 0h2m1 0h1m1 0h4m4 0h2m1 0h1m1 0h1m1 0h1m2 0h4m3 0h3m2 0h4m1 0h1m1 0h3m-176 1h1m3 0h1m2 0h1m1 0h1m1 0h4m1 0h1m1 0h1m1 0h1m2 0h4m1 0h2m3 0h6m2 0h6m2 0h2m1 0h2m6 0h3m1 0h3m1 0h1m7 0h2m6 0h2m1 0h1m1 0h2m2 0h2m5 0h1m1 0h1m1 0h4m5 0h2m1 0h2m2 0h1m1 0h1m9 0h1m1 0h1m5 0h1m4 0h1m3 0h3m4 0h1m3 0h5m2 0h1m4 0h1m1 0h1m1 0h1m-177 1h1m4 0h4m1 0h2m4 0h1m1 0h3m4 0h1m1 0h3m2 0h2m2 0h4m1 0h4m2 0h2m3 0h1m1 0h1m2 0h1m1 0h3m1 0h1m2 0h1m2 0h1m2 0h1m1 0h1m2 0h2m1 0h2m2 0h1m1 0h1m3 0h1m1 0h2m2 0h1m1 0h2m1 0h1m3 0h1m3 0h2m1 0h4m3 0h3m1 0h1m2 0h1m1 0h1m2 0h1m3 0h4m1 0h3m10 0h1m1 0h4m11 0h2m1 0h4m-177 1h1m3 0h1m5 0h3m1 0h1m1 0h1m1 0h1m1 0h1m1 0h2m2 0h2m1 0h1m1 0h5m2 0h7m2 0h5m2 0h1m1 0h1m3 0h1m3 0h4m2 0h2m1 0h1m1 0h1m3 0h4m1 0h3m2 0h3m4 0h1m1 0h1m1 0h3m2 0h2m1 0h2m2 0h1m2 0h2m1 0h3m1 0h1m2 0h1m1 0h1m1 0h6m2 0h1m5 0h3m1 0h2m1 0h4m4 0h3m1 0h1m2 0h2m1 0h2m4 0h1m-175 1h2m3 0h6m1 0h2m1 0h2m8 0h5m2 0h2m3 0h1m3 0h2m1 0h2m1 0h2m1 0h1m1 0h5m4 0h1m3 0h1m3 0h1m2 0h1m1 0h1m3 0h1m7 0h3m6 0h6m2 0h2m4 0h2m1 0h2m1 0h1m2 0h1m1 0h1m1 0h1m2 0h3m5 0h3m3 0h2m2 0h1m1 0h2m2 0h1m1 0h1m3 0h3m5 0h1m1 0h1m1 0h1m1 0h1m2 0h4m-176 1h1m1 0h1m4 0h1m1 0h1m1 0h2m1 0h1m1 0h1m1 0h2m1 0h1m4 0h5m6 0h1m1 0h2m2 0h2m3 0h1m1 0h2m2 0h1m1 0h1m2 0h2m1 0h3m1 0h3m1 0h2m1 0h3m2 0h1m1 0h2m1 0h2m1 0h3m1 0h1m2 0h1m1 0h1m1 0h2m1 0h2m6 0h1m5 0h1m1 0h3m4 0h2m3 0h1m1 0h1m1 0h1m2 0h2m1 0h1m1 0h1m1 0h4m3 0h2m5 0h2m3 0h3m10 0h3m-177 1h1m5 0h4m3 0h1m1 0h2m1 0h3m3 0h1m1 0h1m1 0h1m2 0h2m1 0h1m1 0h1m2 0h2m1 0h1m1 0h7m2 0h1m3 0h1m2 0h2m1 0h1m1 0h1m2 0h1m1 0h7m1 0h1m1 0h2m3 0h4m1 0h2m1 0h1m1 0h2m2 0h1m2 0h3m1 0h3m1 0h1m1 0h1m2 0h1m4 0h2m1 0h5m3 0h1m1 0h1m1 0h1m1 0h2m2 0h1m4 0h1m5 0h1m2 0h2m2 0h1m4 0h2m4 0h2m1 0h2m-175 1h1m1 0h2m3 0h1m1 0h1m2 0h1m3 0h1m1 0h1m1 0h4m1 0h1m2 0h1m1 0h1m2 0h3m1 0h2m1 0h1m1 0h1m2 0h1m4 0h1m4 0h1m8 0h3m3 0h2m2 0h1m2 0h2m1 0h1m1 0h1m1 0h1m3 0h7m1 0h1m1 0h4m2 0h2m1 0h1m1 0h3m1 0h2m1 0h6m3 0h3m3 0h4m3 0h1m2 0h4m2 0h2m3 0h1m3 0h1m3 0h1m2 0h2m1 0h1m1 0h2m3 0h4m-177 1h3m2 0h2m1 0h1m1 0h1m5 0h1m1 0h1m2 0h3m1 0h1m1 0h2m1 0h1m2 0h1m1 0h1m2 0h1m1 0h1m3 0h3m2 0h10m1 0h7m3 0h1m4 0h1m1 0h1m2 0h7m1 0h1m3 0h1m1 0h1m3 0h2m2 0h4m2 0h1m1 0h1m2 0h1m3 0h1m2 0h2m4 0h1m6 0h1m4 0h3m3 0h1m5 0h2m3 0h5m5 0h2m1 0h2m4 0h1m-172 1h1m4 0h2m1 0h1m5 0h3m3 0h2m3 0h2m4 0h2m3 0h2m1 0h2m3 0h2m3 0h1m1 0h3m1 0h1m2 0h1m2 0h2m5 0h1m5 0h5m4 0h1m1 0h1m1 0h1m2 0h1m2 0h3m1 0h1m1 0h1m2 0h2m2 0h2m1 0h1m2 0h4m2 0h6m3 0h4m1 0h6m3 0h2m3 0h3m3 0h3m1 0h4m1 0h1m5 0h4m2 0h1m-176 1h1m1 0h1m1 0h4m1 0h1m2 0h1m1 0h1m3 0h1m2 0h1m3 0h7m2 0h2m4 0h1m2 0h1m2 0h3m2 0h1m1 0h1m1 0h5m1 0h2m5 0h1m1 0h1m1 0h7m2 0h1m1 0h5m3 0h1m2 0h2m4 0h2m1 0h2m2 0h1m3 0h6m2 0h2m1 0h5m5 0h1m2 0h3m1 0h6m1 0h2m1 0h1m2 0h1m2 0h1m1 0h3m2 0h2m3 0h5m1 0h1m1 0h1m-169 1h2m2 0h3m1 0h2m1 0h5m1 0h1m2 0h1m3 0h1m1 0h3m1 0h1m7 0h2m1 0h1m1 0h1m3 0h2m3 0h1m3 0h1m3 0h1m2 0h2m2 0h2m5 0h1m1 0h1m3 0h3m3 0h1m3 0h2m2 0h1m1 0h2m3 0h2m1 0h1m3 0h1m1 0h4m4 0h2m1 0h4m1 0h2m1 0h2m1 0h1m3 0h3m1 0h1m2 0h1m2 0h1m1 0h2m2 0h2m2 0h1m2 0h2m3 0h2m2 0h1m-177 1h7m7 0h2m2 0h2m2 0h7m1 0h1m1 0h1m2 0h2m1 0h1m2 0h1m2 0h1m4 0h5m1 0h2m1 0h1m1 0h2m8 0h1m6 0h1m1 0h1m1 0h4m1 0h1m1 0h2m2 0h3m1 0h2m2 0h1m2 0h2m1 0h1m1 0h2m2 0h1m1 0h1m1 0h2m2 0h2m1 0h1m2 0h5m7 0h3m1 0h1m1 0h1m4 0h3m2 0h4m5 0h1m2 0h1m1 0h1m1 0h1m1 0h2m1 0h1m-176 1h1m5 0h1m4 0h2m2 0h1m1 0h1m1 0h1m4 0h1m2 0h2m3 0h2m3 0h2m1 0h1m1 0h2m1 0h1m1 0h1m1 0h1m1 0h3m1 0h2m3 0h1m4 0h3m1 0h1m2 0h1m2 0h3m3 0h4m3 0h1m1 0h1m4 0h1m1 0h1m2 0h1m1 0h1m3 0h2m3 0h2m3 0h3m2 0h2m1 0h5m3 0h1m1 0h4m1 0h2m3 0h2m4 0h3m2 0h1m1 0h1m1 0h1m1 0h1m1 0h2m3 0h1m3 0h3m-175 1h1m1 0h3m1 0h1m1 0h2m1 0h1m1 0h1m5 0h3m1 0h3m1 0h6m3 0h2m1 0h1m2 0h1m1 0h4m2 0h3m1 0h7m1 0h1m2 0h1m1 0h2m1 0h1m1 0h1m2 0h2m1 0h5m1 0h5m2 0h1m1 0h1m2 0h1m2 0h1m1 0h2m3 0h2m2 0h7m3 0h1m4 0h2m4 0h1m1 0h1m2 0h3m1 0h5m1 0h2m1 0h1m1 0h1m1 0h2m1 0h3m3 0h2m1 0h2m1 0h6m2 0h1m-177 1h1m1 0h3m1 0h1m1 0h1m2 0h1m1 0h1m1 0h2m1 0h1m1 0h2m2 0h1m1 0h1m1 0h1m2 0h3m1 0h5m2 0h5m2 0h2m1 0h2m1 0h1m2 0h2m1 0h5m1 0h1m5 0h1m1 0h1m1 0h4m1 0h4m1 0h2m1 0h2m2 0h3m2 0h1m2 0h1m3 0h1m6 0h1m1 0h1m2 0h5m2 0h3m1 0h7m2 0h1m1 0h1m5 0h4m3 0h3m2 0h2m1 0h1m3 0h1m2 0h1m1 0h3m1 0h1m-175 1h1m1 0h3m1 0h1m1 0h4m3 0h2m1 0h2m2 0h1m2 0h6m1 0h1m1 0h1m2 0h1m3 0h1m2 0h1m1 0h1m1 0h5m1 0h1m1 0h1m4 0h5m1 0h1m1 0h1m2 0h1m8 0h1m2 0h1m2 0h2m1 0h1m1 0h1m2 0h1m4 0h1m3 0h1m1 0h1m1 0h1m1 0h1m1 0h2m2 0h1m3 0h1m2 0h2m2 0h2m4 0h1m2 0h1m1 0h2m1 0h1m1 0h2m1 0h1m3 0h2m1 0h1m1 0h2m1 0h1m1 0h1m2 0h1m2 0h4m4 0h1m-175 1h1m5 0h1m3 0h5m2 0h3m4 0h2m4 0h2m1 0h2m1 0h1m2 0h1m2 0h1m1 0h1m3 0h1m1 0h4m1 0h1m1 0h1m1 0h1m1 0h2m1 0h2m3 0h2m2 0h3m2 0h1m1 0h1m1 0h3m6 0h2m3 0h3m1 0h2m3 0h1m3 0h4m4 0h1m4 0h3m5 0h4m5 0h2m2 0h3m1 0h1m1 0h2m5 0h2m1 0h3m1 0h2m4 0h1m1 0h4m-175 1h7m3 0h1m2 0h1m1 0h4m3 0h1m1 0h2m2 0h2m6 0h1m1 0h2m1 0h5m3 0h6m1 0h2m2 0h1m1 0h2m3 0h1m1 0h4m1 0h1m1 0h1m1 0h1m4 0h5m4 0h2m1 0h1m1 0h1m3 0h2m3 0h2m1 0h2m2 0h4m2 0h3m3 0h2m1 0h1m4 0h1m1 0h5m4 0h2m1 0h2m1 0h2m3 0h1m1 0h1m2 0h1m1 0h2m1 0h1m2 0h1m2 0h2m2 0h1"/></svg>
