<?xml version="1.0" encoding="UTF-8"?>
<svg xmlns="http://www.w3.org/2000/svg" height="936" width="936" class="pyqrcode"><path transform="scale(8)" stroke="#000" class="pyqrline" d="M4 4.5h7m1 0h1m2 0h6m1 0h1m4 0h1m6 0h1m2 0h10m1 0h3m3 0h4m2 0h3m1 0h1m4 0h2m3 0h1m3 0h2m1 0h2m2 0h1m1 0h1m3 0h2m1 0h2m1 0h2m2 0h1m2 0h1m1 0h7m-109 1h1m5 0h1m4 0h2m6 0h2m3 0h2m1 0h1m2 0h1m2 0h1m1 0h3m6 0h1m7 0h4m1 0h1m1 0h1m1 0h1m2 0h1m1 0h2m1 0h2m1 0h2m2 0h3m2 0h1m3 0h1m3 0h2m1 0h2m1 0h4m1 0h1m1 0h1m5 0h1m-109 1h1m1 0h3m1 0h1m1 0h1m4 0h1m1 0h1m3 0h1m1 0h4m1 0h1m1 0h1m1 0h2m3 0h3m2 0h1m1 0h1m2 0h3m1 0h3m2 0h1m4 0h2m1 0h1m1 0h2m3 0h1m1 0h1m7 0h1m1 0h1m1 0h2m1 0h1m4 0h1m1 0h1m1 0h2m1 0h3m1 0h1m1 0h3m1 0h1m-109 1h1m1 0h3m1 0h1m2 0h2m2 0h2m4 0h4m4 0h1m4 0h1m1 0h3m2 0h1m1 0h2m4 0h2m1 0h1m1 0h1m3 0h4m2 0h1m3 0h1m1 0h3m1 0h2m2 0h3m2 0h4m6 0h1m2 0h1m1 0h4m2 0h1m1 0h3m1 0h1m-109 1h1m1 0h3m1 0h1m1 0h1m2 0h1m3 0h1m1 0h2m4 0h1m1 0h2m1 0h5m4 0h1m1 0h3m1 0h4m2 0h1m2 0h6m1 0h3m1 0h1m8 0h1m3 0h5m1 0h4m1 0h5m6 0h3m1 0h1m1 0h3m1 0h1m-109 1h1m5 0h1m8 0h3m4 0h2m1 0h4m3 0h1m1 0h1m1 0h3m5 0h9m3 0h1m1 0h1m3 0h1m1 0h1m3 0h1m1 0h1m2 0h1m1 0h2m3 0h2m1 0h1m1 0h1m1 0h1m1 0h5m1 0h1m1 0h1m1 0h1m2 0h1m5 0h1m-109 1h7m1 0h1m1 0h1m1 0h1m1 0h1m1 0h1m1 0h1m1 0h1m1 0h1m1 0h1m1 0h1m1 0h1m1 0h1m1 0h1m1 0h1m1 0h1m1 0h1m1 0h1m1 0h1m1 0h1m1 0h1m1 0h1m1 0h1m1 0h1m1 0h1m1 0h1m1 0h1m1 0h1m1 0h1m1 0h1m1 0h1m1 0h1m1 0h1m1 0h1m1 0h1m1 0h1m1 0h1m1 0h1m1 0h1m1 0h1m1 0h1m1 0h1m1 0h1m1 0h1m1 0h1m1 0h1m1 0h1m1 0h1m1 0h7m-101 1h2m2 0h3m1 0h1m1 0h4m1 0h1m1 0h4m3 0h1m1 0h6m2 0h1m5 0h5m3 0h3m2 0h1m2 0h1m1 0h4m1 0h2m3 0h1m3 0h1m3 0h1m2 0h1m5 0h1m1 0h2m1 0h1m1 0h1m-96 1h2m2 0h2m5 0h2m4 0h2m2 0h1m1 0h8m2 0h1m1 0h2m2 0h1m1 0h1m3 0h1m1 0h5m3 0h5m1 0h1m3 0h1m1 0h1m3 0h5m1 0h4m2 0h1m1 0h1m1 0h3m2 0h1m4 0h1m1 0h1m1 0h1m1 0h1m-109 1h3m1 0h2m1 0h2m5 0h2m2 0h1m2 0h3m2 0h1m1 0h1m1 0h1m1 0h1m8 0h2m1 0h1m4 0h1m1 0h1m1 0h2m2 0h1m1 0h1m2 0h1m2 0h1m2 0h1m1 0h2m1 0h5m3 0h1m3 0h2m4 0h4m1 0h5m2 0h2m1 0h3m-109 1h2m1 0h1m2 0h1m4 0h2m1 0h1m1 0h10m1 0h1m1 0h2m1 0h2m3 0h6m1 0h1m1 0h1m4 0h1m1 0h1m3 0h1m1 0h1m4 0h1m4 0h1m1 0h3m2 0h4m4 0h2m1 0h2m1 0h2m1 0h1m5 0h3m1 0h1m1 0h1m1 0h2m-107 1h4m1 0h1m1 0h4m1 0h2m2 0h2m2 0h4m1 0h4m2 0h1m2 0h7m3 0h2m1 0h5m1 0h1m2 0h2m1 0h2m1 0h2m2 0h1m1 0h3m4 0h3m2 0h3m1 0h2m1 0h1m1 0h1m1 0h10m1 0h2m-105 1h1m4 0h3m3 0h3m1 0h1m1 0h1m1 0h1m1 0h1m1 0h1m4 0h2m1 0h4m3 0h7m1 0h1m1 0h1m1 0h1m1 0h5m5 0h2m1 0h2m3 0h2m8 0h2m3 0h1m3 0h2m1 0h1m2 0h3m1 0h4m1 0h3m-105 1h1m5 0h3m2 0h3m1 0h4m1 0h3m1 0h1m2 0h1m2 0h2m3 0h4m1 0h1m1 0h1m1 0h1m3 0h1m2 0h3m2 0h2m11 0h1m2 0h1m2 0h2m2 0h1m1 0h6m2 0h2m1 0h2m1 0h2m1 0h2m2 0h2m1 0h1m-107 1h7m1 0h4m1 0h1m1 0h2m1 0h3m1 0h1m4 0h3m1 0h4m3 0h4m1 0h4m3 0h2m1 0h3m1 0h1m1 0h1m1 0h6m1 0h1m1 0h2m1 0h4m1 0h2m2 0h1m2 0h4m5 0h2m1 0h1m3 0h1m2 0h3m-108 1h5m1 0h1m1 0h1m1 0h2m1 0h8m1 0h2m1 0h1m1 0h1m2 0h5m2 0h2m6 0h5m1 0h1m3 0h4m1 0h1m5 0h1m5 0h1m2 0h1m2 0h2m2 0h3m1 0h6m1 0h3m4 0h3m1 0h2m-106 1h4m1 0h1m2 0h2m2 0h1m1 0h2m2 0h3m1 0h2m1 0h1m3 0h3m1 0h2m3 0h4m2 0h2m3 0h1m1 0h1m1 0h1m2 0h1m2 0h1m2 0h2m1 0h4m1 0h2m2 0h1m1 0h3m1 0h1m1 0h1m2 0h1m1 0h1m2 0h1m1 0h4m4 0h1m3 0h2m-103 1h2m1 0h3m1 0h1m2 0h1m1 0h4m1 0h1m1 0h5m2 0h1m2 0h3m2 0h1m1 0h2m1 0h2m1 0h1m2 0h4m1 0h2m1 0h2m3 0h1m1 0h1m1 0h2m2 0h1m1 0h2m1 0h1m1 0h1m1 0h1m1 0h1m2 0h2m1 0h2m3 0h2m4 0h1m5 0h2m1 0h2m-108 1h4m1 0h1m2 0h2m3 0h1m1 0h2m1 0h1m5 0h2m5 0h2m2 0h5m1 0h1m3 0h1m1 0h3m2 0h3m1 0h1m1 0h1m1 0h3m2 0h7m1 0h1m3 0h1m1 0h1m1 0h3m1 0h1m1 0h1m1 0h3m1 0h2m2 0h2m2 0h1m1 0h3m1 0h1m-107 1h4m2 0h4m1 0h2m2 0h2m1 0h1m2 0h1m1 0h2m3 0h1m2 0h1m3 0h1m1 0h3m1 0h1m1 0h3m3 0h3m4 0h1m2 0h2m1 0h2m1 0h4m1 0h1m2 0h1m3 0h1m1 0h1m1 0h2m2 0h1m1 0h3m3 0h4m1 0h3m1 0h2m-106 1h1m3 0h3m3 0h1m2 0h1m1 0h3m1 0h1m1 0h1m1 0h1m4 0h1m1 0h2m5 0h5m1 0h3m1 0h5m2 0h1m3 0h3m1 0h1m1 0h5m1 0h1m2 0h1m1 0h2m1 0h1m1 0h1m2 0h1m1 0h3m1 0h2m3 0h1m2 0h2m3 0h5m-107 1h5m2 0h3m1 0h1m1 0h1m1 0h1m1 0h5m1 0h1m3 0h1m1 0h7m4 0h2m1 0h9m1 0h1m1 0h3m1 0h3m2 0h2m6 0h2m1 0h2m1 0h1m2 0h5m3 0h1m4 0h1m7 0h1m1 0h1m1 0h1m-107 1h1m1 0h6m2 0h1m2 0h1m1 0h1m3 0h1m1 0h1m1 0h1m1 0h1m4 0h1m2 0h2m1 0h1m1 0h1m1 0h4m1 0h3m2 0h2m1 0h1m2 0h4m3 0h1m1 0h1m2 0h4m1 0h1m3 0h4m4 0h1m1 0h1m1 0h2m1 0h1m2 0h1m1 0h1m2 0h2m1 0h1m2 0h3m-108 1h2m1 0h1m2 0h1m3 0h1m2 0h1m1 0h1m5 0h1m3 0h1m2 0h1m1 0h1m2 0h1m1 0h2m1 0h2m4 0h1m2 0h1m3 0h1m1 0h1m1 0h2m2 0h4m2 0h1m1 0h1m2 0h2m1 0h1m1 0h1m1 0h2m1 0h4m1 0h2m3 0h1m2 0h3m1 0h3m1 0h1m1 0h2m2 0h1m-109 1h2m1 0h8m5 0h2m3 0h3m4 0h1m2 0h1m1 0h4m1 0h1m1 0h1m3 0h3m3 0h2m1 0h1m4 0h5m2 0h5m1 0h2m1 0h1m1 0h1m1 0h1m2 0h1m3 0h3m1 0h3m3 0h3m2 0h1m2 0h1m1 0h1m-103 1h1m1 0h1m3 0h1m1 0h2m1 0h2m1 0h4m5 0h3m2 0h3m2 0h2m1 0h1m1 0h1m5 0h2m4 0h1m3 0h6m1 0h1m1 0h1m1 0h1m1 0h1m1 0h2m1 0h1m1 0h1m3 0h1m1 0h2m2 0h3m2 0h5m1 0h1m1 0h1m3 0h1m-104 1h1m2 0h4m1 0h1m2 0h2m3 0h1m2 0h1m3 0h1m1 0h3m8 0h1m2 0h1m2 0h2m1 0h1m1 0h1m1 0h1m7 0h1m1 0h3m1 0h4m2 0h2m1 0h1m3 0h2m4 0h1m1 0h1m2 0h3m1 0h1m4 0h1m1 0h1m2 0h2m2 0h3m-109 1h1m1 0h2m1 0h1m2 0h1m1 0h2m2 0h2m1 0h1m6 0h1m2 0h1m1 0h4m1 0h1m2 0h1m3 0h4m3 0h1m4 0h1m1 0h3m1 0h1m2 0h6m1 0h2m5 0h1m1 0h3m2 0h3m2 0h1m2 0h2m2 0h3m3 0h6m-106 1h1m2 0h6m2 0h1m2 0h2m2 0h1m1 0h2m1 0h2m2 0h6m1 0h1m1 0h3m1 0h2m4 0h3m2 0h5m1 0h1m1 0h2m2 0h1m2 0h2m3 0h1m2 0h9m1 0h1m3 0h1m1 0h2m3 0h3m1 0h9m-108 1h4m3 0h1m1 0h1m1 0h2m1 0h1m2 0h1m3 0h2m2 0h3m3 0h1m3 0h2m1 0h1m1 0h2m1 0h1m2 0h1m1 0h4m3 0h3m1 0h2m1 0h1m4 0h3m1 0h3m1 0h1m3 0h2m2 0h3m2 0h4m2 0h3m2 0h1m3 0h1m-103 1h1m1 0h1m1 0h1m1 0h2m2 0h6m1 0h2m1 0h7m1 0h1m1 0h4m1 0h1m1 0h4m3 0h1m1 0h1m3 0h1m1 0h1m1 0h3m5 0h1m1 0h1m3 0h1m1 0h1m1 0h1m1 0h1m1 0h1m1 0h1m1 0h2m2 0h3m1 0h3m1 0h3m1 0h3m1 0h1m1 0h1m1 0h1m1 0h1m-109 1h1m1 0h1m1 0h1m3 0h1m1 0h1m8 0h2m2 0h1m1 0h2m1 0h1m3 0h2m3 0h1m2 0h4m2 0h2m2 0h1m1 0h1m3 0h2m1 0h4m3 0h1m1 0h3m1 0h1m3 0h1m3 0h1m2 0h2m1 0h2m3 0h1m3 0h2m1 0h3m3 0h3m1 0h1m-109 1h2m1 0h7m5 0h1m2 0h5m1 0h2m1 0h6m1 0h4m1 0h2m3 0h3m2 0h2m1 0h6m1 0h1m1 0h1m1 0h1m1 0h1m1 0h1m1 0h1m4 0h1m1 0h5m7 0h4m1 0h5m1 0h7m1 0h1m-108 1h3m2 0h1m1 0h1m2 0h4m1 0h1m2 0h1m3 0h2m1 0h2m5 0h3m1 0h3m4 0h1m2 0h2m1 0h1m2 0h4m3 0h1m1 0h1m3 0h3m1 0h1m2 0h1m3 0h1m2 0h2m1 0h1m1 0h2m10 0h1m1 0h1m6 0h1m-106 1h2m1 0h2m1 0h2m1 0h1m3 0h2m3 0h2m3 0h1m2 0h2m2 0h4m4 0h1m1 0h1m1 0h2m1 0h1m3 0h1m1 0h1m1 0h1m2 0h1m1 0h2m3 0h1m1 0h1m3 0h1m2 0h2m1 0h1m4 0h1m2 0h3m3 0h4m3 0h2m3 0h1m1 0h2m1 0h3m-109 1h2m1 0h1m1 0h1m3 0h1m1 0h2m5 0h2m1 0h3m1 0h3m2 0h4m2 0h2m2 0h5m1 0h2m1 0h1m1 0h2m2 0h2m1 0h1m2 0h2m4 0h1m1 0h1m2 0h2m2 0h5m2 0h2m2 0h1m1 0h1m3 0h1m1 0h4m3 0h1m2 0h1m2 0h1m-108 1h1m1 0h6m3 0h2m1 0h1m1 0h4m5 0h2m2 0h1m3 0h1m1 0h2m1 0h1m6 0h1m1 0h1m1 0h1m4 0h3m1 0h3m4 0h2m5 0h6m1 0h5m1 0h1m2 0h6m2 0h1m2 0h1m1 0h2m3 0h2m-108 1h1m1 0h2m2 0h2m3 0h4m1 0h3m1 0h6m2 0h1m1 0h1m1 0h1m3 0h2m5 0h1m1 0h1m1 0h1m2 0h4m1 0h3m1 0h7m1 0h4m1 0h1m1 0h1m4 0h1m4 0h1m8 0h1m1 0h1m1 0h2m4 0h1m3 0h1m-109 1h5m1 0h1m2 0h2m1 0h1m2 0h1m3 0h1m2 0h2m1 0h4m1 0h1m6 0h2m1 0h1m5 0h2m1 0h1m2 0h1m2 0h1m3 0h1m1 0h1m1 0h5m2 0h4m1 0h1m2 0h1m5 0h2m3 0h2m1 0h2m1 0h1m4 0h1m3 0h2m1 0h2m-108 1h2m1 0h1m2 0h1m2 0h1m4 0h3m7 0h1m3 0h1m1 0h2m3 0h2m1 0h2m1 0h2m1 0h3m1 0h1m6 0h1m1 0h2m2 0h3m1 0h1m2 0h1m7 0h2m2 0h8m3 0h2m1 0h3m2 0h7m-103 1h3m1 0h1m1 0h2m2 0h1m1 0h4m1 0h7m3 0h6m1 0h1m1 0h3m1 0h2m1 0h1m1 0h1m2 0h1m1 0h2m1 0h2m2 0h1m3 0h1m1 0h4m1 0h1m2 0h2m2 0h1m1 0h1m2 0h1m1 0h3m1 0h1m1 0h3m1 0h1m3 0h3m2 0h4m-109 1h1m2 0h3m3 0h2m1 0h3m8 0h1m1 0h1m3 0h2m2 0h1m3 0h4m1 0h1m2 0h2m1 0h1m1 0h2m1 0h1m3 0h2m2 0h2m2 0h1m1 0h4m1 0h1m1 0h1m3 0h1m3 0h1m2 0h1m2 0h3m1 0h1m1 0h2m1 0h1m1 0h1m2 0h1m1 0h1m1 0h1m1 0h1m-106 1h1m1 0h4m1 0h2m1 0h1m1 0h5m2 0h1m2 0h1m6 0h1m2 0h2m3 0h1m7 0h2m3 0h4m2 0h1m2 0h2m2 0h1m1 0h3m1 0h1m1 0h1m1 0h3m3 0h3m1 0h2m2 0h2m2 0h1m1 0h1m1 0h2m4 0h2m2 0h1m-109 1h2m1 0h1m1 0h1m1 0h1m7 0h1m3 0h4m4 0h3m1 0h1m1 0h1m1 0h2m6 0h2m2 0h1m1 0h2m1 0h1m2 0h3m5 0h2m2 0h1m3 0h9m2 0h6m1 0h1m1 0h1m1 0h1m1 0h2m1 0h1m4 0h1m1 0h1m1 0h2m-108 1h1m4 0h4m1 0h2m1 0h4m4 0h2m3 0h3m2 0h1m3 0h8m1 0h1m3 0h1m3 0h4m2 0h1m3 0h1m2 0h1m1 0h1m2 0h1m1 0h1m1 0h2m2 0h1m1 0h1m2 0h1m3 0h3m2 0h2m2 0h1m1 0h5m1 0h4m-108 1h2m2 0h1m6 0h2m1 0h1m1 0h3m2 0h1m5 0h2m2 0h2m2 0h1m1 0h2m3 0h4m2 0h3m5 0h1m2 0h1m2 0h1m1 0h3m1 0h5m2 0h3m2 0h1m5 0h2m1 0h1m2 0h2m2 0h1m3 0h4m2 0h2m-109 1h1m5 0h1m1 0h4m1 0h3m2 0h2m1 0h1m4 0h2m2 0h5m3 0h5m1 0h1m3 0h1m1 0h4m3 0h2m3 0h1m3 0h2m4 0h2m4 0h1m1 0h1m3 0h2m1 0h4m1 0h1m2 0h1m1 0h1m1 0h2m2 0h2m2 0h2m-101 1h3m3 0h1m2 0h1m1 0h1m2 0h1m2 0h2m2 0h1m1 0h1m2 0h1m1 0h3m1 0h2m2 0h1m1 0h2m1 0h2m2 0h2m3 0h1m1 0h1m3 0h4m2 0h2m1 0h2m1 0h3m1 0h1m2 0h3m1 0h1m3 0h1m3 0h2m1 0h1m3 0h2m1 0h1m-106 1h1m2 0h2m1 0h4m1 0h1m2 0h1m2 0h2m1 0h1m1 0h1m2 0h4m2 0h2m2 0h3m1 0h1m1 0h4m2 0h1m4 0h2m1 0h3m1 0h3m1 0h1m1 0h4m1 0h2m2 0h2m1 0h1m2 0h1m1 0h3m1 0h4m3 0h1m2 0h1m3 0h1m1 0h1m2 0h4m-108 1h1m1 0h2m3 0h5m1 0h1m1 0h1m1 0h2m4 0h3m1 0h3m2 0h1m1 0h2m4 0h3m1 0h1m2 0h1m1 0h1m3 0h1m1 0h1m2 0h4m8 0h1m5 0h2m2 0h1m9 0h3m1 0h2m1 0h1m3 0h1m2 0h1m-104 1h1m3 0h2m1 0h4m2 0h1m2 0h1m4 0h3m1 0h1m2 0h1m1 0h3m1 0h2m1 0h1m1 0h2m1 0h2m1 0h2m1 0h2m4 0h1m1 0h2m2 0h2m4 0h4m1 0h1m3 0h2m1 0h1m2 0h1m1 0h1m1 0h2m1 0h1m6 0h1m2 0h2m2 0h1m1 0h3m-109 1h1m1 0h2m1 0h1m4 0h2m1 0h1m4 0h4m4 0h2m2 0h3m2 0h1m4 0h1m1 0h2m3 0h1m1 0h2m1 0h1m4 0h4m1 0h7m1 0h3m1 0h1m2 0h3m1 0h1m1 0h7m1 0h2m2 0h2m3 0h8m-106 1h7m5 0h1m1 0h1m2 0h1m3 0h4m1 0h5m1 0h1m3 0h1m5 0h15m1 0h4m1 0h1m4 0h1m2 0h1m1 0h7m7 0h1m2 0h2m1 0h1m1 0h1m2 0h6m1 0h2m-106 1h2m3 0h2m4 0h1m2 0h1m1 0h1m1 0h1m1 0h1m1 0h4m3 0h1m2 0h4m2 0h3m2 0h2m1 0h1m1 0h2m3 0h2m3 0h1m2 0h2m1 0h4m1 0h5m3 0h1m2 0h3m2 0h1m1 0h2m2 0h1m1 0h1m1 0h1m1 0h1m3 0h3m-105 1h3m1 0h1m1 0h1m1 0h1m2 0h3m1 0h2m1 0h1m1 0h7m1 0h1m1 0h2m1 0h2m1 0h2m1 0h3m4 0h1m3 0h1m1 0h1m1 0h1m1 0h4m3 0h2m1 0h1m2 0h2m1 0h1m1 0h1m1 0h1m1 0h1m1 0h2m2 0h1m1 0h1m1 0h1m3 0h3m1 0h3m1 0h1m1 0h3m1 0h1m-109 1h1m1 0h3m3 0h1m2 0h1m4 0h1m4 0h1m1 0h1m1 0h1m2 0h1m3 0h2m1 0h1m2 0h1m5 0h2m1 0h1m1 0h1m2 0h1m3 0h1m2 0h3m3 0h3m3 0h2m1 0h1m1 0h1m3 0h1m1 0h4m1 0h1m1 0h1m4 0h5m1 0h1m3 0h2m1 0h1m-108 1h1m1 0h8m1 0h2m1 0h3m1 0h1m3 0h5m1 0h5m2 0h3m1 0h4m1 0h1m1 0h1m4 0h6m7 0h2m1 0h1m1 0h2m2 0h1m1 0h6m1 0h2m2 0h2m1 0h5m1 0h3m1 0h6m1 0h3m-107 1h4m6 0h1m1 0h3m1 0h1m1 0h2m2 0h2m4 0h1m3 0h1m1 0h1m1 0h5m1 0h1m2 0h1m3 0h3m1 0h1m1 0h1m2 0h1m1 0h1m1 0h5m2 0h1m2 0h1m3 0h1m1 0h1m1 0h5m1 0h5m1 0h1m2 0h1m1 0h4m1 0h3m-107 1h1m2 0h5m1 0h1m2 0h1m3 0h3m2 0h1m4 0h2m2 0h1m1 0h7m4 0h7m1 0h4m2 0h3m1 0h2m2 0h2m3 0h1m2 0h1m3 0h2m1 0h1m2 0h1m1 0h1m3 0h2m2 0h1m1 0h1m1 0h1m4 0h3m1 0h3m-109 1h1m1 0h1m5 0h1m1 0h2m1 0h1m3 0h1m1 0h1m2 0h4m5 0h2m3 0h1m3 0h1m4 0h1m7 0h4m3 0h3m1 0h3m4 0h4m1 0h3m1 0h1m1 0h1m1 0h1m2 0h1m3 0h1m1 0h2m1 0h1m1 0h1m1 0h6m2 0h1m-109 1h1m2 0h4m2 0h1m6 0h2m5 0h1m1 0h1m3 0h4m1 0h5m1 0h4m4 0h3m1 0h4m1 0h2m1 0h2m8 0h1m1 0h2m1 0h2m1 0h5m1 0h2m3 0h2m2 0h2m1 0h4m4 0h5m-108 1h2m4 0h2m5 0h1m1 0h6m3 0h2m1 0h1m1 0h1m3 0h2m2 0h1m1 0h2m2 0h1m1 0h2m1 0h2m1 0h1m1 0h1m3 0h2m2 0h1m2 0h2m1 0h3m1 0h2m1 0h1m2 0h2m2 0h1m2 0h1m1 0h2m6 0h2m1 0h2m1 0h2m3 0h2m-104 1h3m1 0h4m2 0h1m1 0h1m1 0h4m2 0h1m1 0h3m4 0h4m1 0h2m3 0h3m1 0h2m1 0h1m2 0h3m1 0h1m2 0h1m4 0h4m1 0h1m2 0h1m3 0h3m5 0h1m1 0h1m1 0h5m1 0h1m1 0h1m1 0h1m1 0h1m1 0h4m1 0h1m-109 1h1m1 0h2m1 0h1m1 0h4m1 0h3m1 0h1m1 0h1m4 0h1m1 0h2m5 0h2m4 0h7m1 0h3m1 0h3m1 0h1m3 0h2m3 0h1m5 0h1m1 0h2m1 0h3m1 0h1m2 0h9m2 0h2m1 0h2m1 0h2m1 0h1m1 0h1m1 0h3m-106 1h3m1 0h1m2 0h2m2 0h1m1 0h4m1 0h1m4 0h1m1 0h2m3 0h2m1 0h1m1 0h1m2 0h2m2 0h2m2 0h4m1 0h3m2 0h4m1 0h1m1 0h1m4 0h1m1 0h1m2 0h4m2 0h1m1 0h1m2 0h1m1 0h5m1 0h1m1 0h1m2 0h1m1 0h3m4 0h1m-107 1h2m3 0h1m2 0h5m1 0h1m1 0h1m1 0h1m3 0h1m2 0h4m3 0h2m3 0h3m1 0h1m5 0h3m2 0h2m3 0h1m3 0h1m2 0h3m2 0h4m1 0h1m2 0h1m2 0h3m1 0h1m2 0h3m1 0h4m2 0h1m1 0h2m1 0h1m2 0h1m-107 1h1m1 0h1m1 0h4m1 0h2m2 0h1m3 0h1m1 0h1m1 0h2m2 0h1m1 0h4m1 0h1m1 0h2m2 0h1m1 0h3m2 0h4m2 0h1m6 0h3m1 0h1m3 0h4m3 0h1m1 0h1m1 0h2m2 0h1m2 0h3m2 0h2m2 0h3m1 0h1m3 0h1m1 0h1m2 0h2m-109 1h2m1 0h1m1 0h1m1 0h2m1 0h1m5 0h2m1 0h3m1 0h3m1 0h1m1 0h2m1 0h3m7 0h2m2 0h3m1 0h3m3 0h1m3 0h2m1 0h1m4 0h2m2 0h1m2 0h2m1 0h1m1 0h1m2 0h5m3 0h1m2 0h3m1 0h1m4 0h1m1 0h1m1 0h1m-108 1h3m3 0h3m1 0h2m1 0h4m1 0h1m1 0h3m1 0h2m1 0h1m1 0h4m1 0h2m4 0h3m1 0h1m1 0h1m1 0h1m1 0h2m1 0h6m1 0h1m5 0h2m5 0h3m1 0h2m1 0h1m3 0h2m2 0h1m4 0h3m4 0h1m1 0h2m3 0h2m-105 1h2m1 0h4m2 0h1m2 0h3m3 0h2m2 0h1m1 0h1m1 0h5m2 0h1m3 0h1m1 0h1m3 0h3m2 0h1m1 0h2m2 0h5m1 0h1m1 0h1m4 0h2m2 0h1m3 0h4m4 0h2m1 0h1m2 0h2m5 0h3m2 0h3m-108 1h1m1 0h3m1 0h1m2 0h1m1 0h2m2 0h1m1 0h1m1 0h3m1 0h3m1 0h1m1 0h1m2 0h1m1 0h1m1 0h1m1 0h2m7 0h2m5 0h1m4 0h2m1 0h2m4 0h2m1 0h1m1 0h1m1 0h1m2 0h2m5 0h1m1 0h4m4 0h1m1 0h1m1 0h2m1 0h2m3 0h2m-109 1h4m1 0h1m2 0h1m4 0h1m1 0h4m3 0h2m1 0h4m1 0h2m1 0h5m2 0h4m1 0h1m1 0h4m1 0h1m1 0h4m3 0h2m5 0h6m1 0h4m2 0h1m1 0h3m1 0h1m1 0h3m4 0h3m2 0h2m2 0h1m-103 1h1m2 0h1m1 0h5m1 0h2m3 0h1m2 0h1m2 0h1m2 0h1m1 0h3m1 0h1m1 0h1m6 0h1m3 0h2m1 0h1m2 0h1m1 0h1m1 0h4m1 0h1m6 0h3m2 0h3m1 0h2m5 0h2m1 0h1m1 0h1m1 0h2m1 0h1m1 0h1m1 0h1m4 0h2m1 0h2m-109 1h3m4 0h3m1 0h1m1 0h1m3 0h1m1 0h3m2 0h1m3 0h2m1 0h1m1 0h3m1 0h1m2 0h4m2 0h1m6 0h2m1 0h1m2 0h1m2 0h3m1 0h1m2 0h1m2 0h3m1 0h1m2 0h1m2 0h1m1 0h2m2 0h2m2 0h2m2 0h2m1 0h1m1 0h2m4 0h2m-109 1h1m1 0h1m1 0h1m1 0h2m1 0h1m1 0h5m2 0h1m4 0h2m1 0h2m2 0h2m2 0h3m1 0h1m3 0h1m4 0h1m2 0h1m1 0h2m3 0h2m2 0h1m1 0h1m3 0h3m1 0h1m1 0h1m3 0h4m3 0h2m2 0h5m6 0h1m2 0h2m1 0h4m-109 1h1m1 0h2m1 0h1m2 0h5m1 0h4m3 0h3m4 0h2m1 0h1m1 0h2m2 0h1m2 0h2m3 0h1m1 0h1m2 0h1m5 0h2m4 0h2m7 0h9m3 0h2m1 0h1m1 0h1m1 0h1m1 0h1m1 0h4m3 0h2m1 0h3m-106 1h10m1 0h1m4 0h1m1 0h2m4 0h8m3 0h1m1 0h3m2 0h1m1 0h2m1 0h10m2 0h3m2 0h3m1 0h2m1 0h1m1 0h1m1 0h5m1 0h1m1 0h1m3 0h4m1 0h2m1 0h1m1 0h7m-104 1h1m1 0h2m3 0h5m2 0h1m1 0h2m3 0h2m4 0h1m3 0h2m1 0h3m3 0h1m4 0h2m1 0h4m3 0h2m1 0h1m1 0h2m1 0h5m2 0h1m4 0h1m3 0h2m1 0h3m3 0h2m1 0h1m1 0h2m1 0h1m2 0h1m3 0h1m2 0h2m-108 1h4m1 0h1m1 0h1m1 0h1m2 0h1m2 0h2m3 0h1m1 0h3m1 0h2m1 0h1m1 0h1m1 0h2m3 0h1m3 0h2m2 0h1m1 0h2m1 0h1m1 0h1m1 0h1m5 0h1m1 0h2m8 0h3m1 0h1m1 0h1m1 0h3m1 0h1m3 0h1m3 0h1m1 0h1m1 0h1m1 0h1m1 0h1m1 0h1m3 0h1m-109 1h5m3 0h7m3 0h1m2 0h1m4 0h3m3 0h2m3 0h1m3 0h1m3 0h2m2 0h1m1 0h2m3 0h1m1 0h1m2 0h2m1 0h2m1 0h3m1 0h2m2 0h2m3 0h1m1 0h4m7 0h1m1 0h2m1 0h1m1 0h1m3 0h2m1 0h2m-107 1h7m3 0h3m1 0h1m1 0h1m1 0h1m1 0h1m2 0h2m1 0h6m2 0h1m1 0h2m1 0h2m1 0h1m1 0h1m4 0h6m7 0h3m1 0h3m2 0h2m1 0h5m1 0h1m1 0h1m1 0h1m1 0h2m1 0h4m3 0h1m1 0h5m1 0h1m1 0h1m-109 1h2m3 0h1m1 0h2m7 0h1m2 0h2m1 0h7m1 0h1m1 0h3m3 0h1m1 0h1m4 0h2m1 0h1m2 0h1m1 0h1m1 0h1m2 0h1m1 0h1m2 0h4m2 0h1m1 0h2m4 0h2m8 0h3m1 0h2m5 0h1m1 0h2m1 0h4m-107 1h1m1 0h1m3 0h1m1 0h1m2 0h1m1 0h1m1 0h1m1 0h2m1 0h1m2 0h1m1 0h1m1 0h4m1 0h1m1 0h6m1 0h4m1 0h2m1 0h5m4 0h1m3 0h1m1 0h2m3 0h1m3 0h1m2 0h2m1 0h1m3 0h1m1 0h1m2 0h1m1 0h2m5 0h1m2 0h1m1 0h2m2 0h3m-107 1h2m5 0h7m2 0h7m2 0h2m1 0h1m1 0h1m2 0h3m2 0h1m1 0h1m1 0h1m3 0h1m1 0h1m2 0h1m3 0h1m3 0h1m5 0h1m1 0h5m2 0h1m2 0h2m1 0h1m1 0h2m1 0h1m3 0h1m3 0h2m3 0h2m2 0h2m1 0h1m-107 1h3m2 0h2m3 0h4m3 0h2m1 0h2m3 0h2m3 0h1m3 0h3m1 0h4m2 0h1m1 0h1m2 0h4m4 0h5m2 0h2m1 0h1m2 0h1m2 0h2m2 0h5m1 0h2m1 0h1m1 0h8m1 0h4m2 0h2m2 0h1m-109 1h6m1 0h3m2 0h3m3 0h1m1 0h1m1 0h2m1 0h3m1 0h7m1 0h1m2 0h1m1 0h1m1 0h2m1 0h1m2 0h6m3 0h1m1 0h1m1 0h1m2 0h1m1 0h2m1 0h1m1 0h2m1 0h4m1 0h1m1 0h2m1 0h2m2 0h1m1 0h1m1 0h2m2 0h3m1 0h2m2 0h2m-106 1h1m2 0h2m1 0h2m1 0h2m1 0h1m1 0h2m1 0h2m2 0h1m1 0h3m2 0h4m4 0h1m4 0h2m4 0h1m2 0h1m2 0h4m1 0h2m1 0h1m1 0h2m2 0h1m1 0h1m1 0h1m1 0h1m2 0h2m5 0h1m1 0h2m1 0h1m4 0h3m3 0h2m1 0h2m2 0h1m-109 1h1m2 0h2m3 0h1m6 0h1m4 0h1m2 0h1m1 0h1m3 0h2m1 0h1m1 0h4m1 0h1m2 0h1m3 0h2m3 0h3m3 0h1m1 0h1m2 0h4m1 0h6m2 0h2m6 0h6m2 0h3m1 0h3m1 0h2m1 0h1m2 0h2m1 0h1m-109 1h4m2 0h1m1 0h1m1 0h1m2 0h2m5 0h1m1 0h2m1 0h2m6 0h1m5 0h2m1 0h4m1 0h2m2 0h4m2 0h2m4 0h1m2 0h3m1 0h1m4 0h4m1 0h4m1 0h2m5 0h1m3 0h1m2 0h2m1 0h1m2 0h4m-109 1h3m4 0h1m2 0h2m1 0h4m4 0h1m1 0h1m2 0h4m1 0h1m2 0h1m1 0h1m2 0h1m4 0h5m1 0h1m1 0h1m2 0h1m1 0h1m5 0h4m1 0h7m1 0h1m1 0h1m1 0h1m2 0h2m2 0h1m5 0h2m1 0h3m2 0h1m1 0h1m1 0h1m-105 1h2m3 0h1m2 0h1m3 0h2m1 0h3m12 0h3m1 0h2m6 0h2m4 0h1m1 0h1m2 0h2m2 0h2m2 0h1m4 0h2m1 0h2m2 0h3m3 0h4m2 0h3m1 0h3m1 0h2m2 0h1m1 0h1m1 0h1m1 0h1m3 0h1m-109 1h2m1 0h1m3 0h2m1 0h2m1 0h1m2 0h1m2 0h1m5 0h3m1 0h1m1 0h1m1 0h6m1 0h1m3 0h1m2 0h2m1 0h1m1 0h1m1 0h1m4 0h1m1 0h3m2 0h1m2 0h1m1 0h2m2 0h3m3 0h4m1 0h2m2 0h2m3 0h2m3 0h1m1 0h1m1 0h2m-106 1h1m1 0h8m2 0h3m1 0h1m2 0h2m2 0h1m4 0h2m3 0h2m4 0h6m4 0h1m3 0h4m2 0h1m2 0h6m1 0h2m2 0h1m3 0h1m1 0h5m1 0h1m1 0h1m5 0h1m1 0h1m3 0h1m2 0h2m1 0h3m-107 1h1m2 0h1m2 0h2m1 0h3m1 0h2m1 0h4m1 0h1m1 0h1m2 0h2m4 0h2m1 0h1m2 0h1m2 0h3m3 0h1m4 0h1m2 0h2m2 0h4m1 0h4m3 0h2m2 0h3m3 0h2m3 0h4m2 0h13m2 0h1m-106 1h2m1 0h1m1 0h3m1 0h2m1 0h3m2 0h1m1 0h1m1 0h4m1 0h3m3 0h6m1 0h1m4 0h1m2 0h4m1 0h1m1 0h1m4 0h4m1 0h2m2 0h1m1 0h1m5 0h1m1 0h1m2 0h2m2 0h5m3 0h2m1 0h1m2 0h1m1 0h2m1 0h2m-108 1h1m1 0h2m2 0h1m5 0h1m2 0h2m2 0h1m3 0h4m1 0h4m1 0h4m2 0h3m1 0h1m1 0h1m3 0h1m2 0h1m2 0h2m1 0h1m1 0h1m2 0h3m2 0h2m1 0h1m2 0h2m1 0h7m5 0h2m1 0h1m1 0h2m3 0h1m3 0h2m1 0h1m-108 1h7m2 0h2m1 0h3m1 0h1m1 0h1m1 0h1m3 0h3m2 0h1m1 0h2m1 0h1m2 0h6m2 0h3m1 0h1m2 0h2m1 0h2m2 0h4m2 0h5m1 0h1m2 0h2m1 0h2m1 0h1m2 0h1m3 0h1m1 0h1m1 0h2m1 0h1m1 0h2m1 0h2m1 0h2m1 0h1m1 0h2m-109 1h1m2 0h2m4 0h2m1 0h1m2 0h3m1 0h1m2 0h4m4 0h1m2 0h2m1 0h1m1 0h2m7 0h2m3 0h3m1 0h2m6 0h1m3 0h2m2 0h3m2 0h4m2 0h1m3 0h2m1 0h1m1 0h2m3 0h1m5 0h1m2 0h2m-107 1h4m1 0h2m1 0h1m1 0h2m1 0h5m2 0h1m1 0h2m1 0h4m5 0h1m3 0h3m1 0h2m1 0h2m1 0h3m4 0h2m1 0h1m2 0h1m1 0h2m2 0h1m2 0h1m1 0h1m5 0h1m3 0h3m1 0h4m1 0h1m3 0h2m2 0h3m1 0h1m3 0h1m-107 1h4m1 0h2m3 0h9m1 0h2m2 0h1m2 0h1m1 0h2m1 0h1m1 0h1m2 0h3m3 0h2m7 0h1m2 0h5m1 0h2m1 0h2m1 0h1m2 0h1m2 0h1m1 0h1m2 0h2m1 0h2m2 0h2m2 0h2m1 0h3m1 0h3m1 0h1m1 0h3m-107 1h3m1 0h1m1 0h1m4 0h4m2 0h1m2 0h2m3 0h2m1 0h8m2 0h1m6 0h1m3 0h1m2 0h5m1 0h1m2 0h1m1 0h1m2 0h1m4 0h4m1 0h5m1 0h3m2 0h1m3 0h1m2 0h13m-99 1h1m1 0h4m1 0h3m2 0h3m4 0h2m3 0h2m3 0h2m3 0h1m1 0h2m1 0h1m4 0h1m3 0h1m1 0h2m2 0h2m3 0h1m2 0h1m3 0h1m1 0h1m3 0h1m1 0h1m2 0h3m1 0h2m2 0h6m1 0h1m3 0h2m-106 1h7m3 0h1m2 0h1m1 0h2m3 0h2m1 0h1m2 0h3m1 0h1m1 0h1m1 0h2m4 0h2m2 0h1m3 0h2m2 0h1m1 0h1m1 0h5m1 0h1m2 0h2m1 0h1m1 0h7m1 0h1m1 0h1m1 0h1m3 0h3m1 0h1m1 0h1m1 0h3m1 0h3m1 0h1m1 0h1m1 0h1m1 0h1m-109 1h1m5 0h1m1 0h1m9 0h1m1 0h1m4 0h2m1 0h1m3 0h1m2 0h1m1 0h1m1 0h1m1 0h1m2 0h4m1 0h1m1 0h2m3 0h4m5 0h1m2 0h2m2 0h3m1 0h1m3 0h1m1 0h1m1 0h1m1 0h2m3 0h1m2 0h3m1 0h3m3 0h2m2 0h1m-109 1h1m1 0h3m1 0h1m2 0h1m1 0h3m2 0h1m2 0h2m2 0h1m4 0h5m1 0h1m1 0h1m1 0h2m2 0h4m1 0h4m1 0h7m2 0h2m1 0h1m1 0h1m4 0h1m1 0h2m1 0h6m3 0h3m1 0h6m1 0h1m2 0h6m-105 1h1m1 0h3m1 0h1m3 0h1m3 0h1m1 0h1m1 0h2m1 0h4m1 0h1m1 0h1m1 0h2m1 0h1m1 0h1m3 0h2m2 0h3m2 0h1m2 0h1m4 0h1m2 0h1m3 0h2m1 0h2m2 0h2m1 0h2m1 0h1m1 0h3m2 0h2m1 0h1m1 0h2m1 0h2m1 0h2m2 0h2m2 0h1m1 0h1m1 0h1m1 0h1m-109 1h1m1 0h3m1 0h1m5 0h1m1 0h1m2 0h3m1 0h1m3 0h1m1 0h4m1 0h1m5 0h2m4 0h1m2 0h1m1 0h2m6 0h2m1 0h5m2 0h1m1 0h3m1 0h1m2 0h6m2 0h2m3 0h2m5 0h2m3 0h3m1 0h2m1 0h1m-109 1h1m5 0h1m2 0h3m1 0h2m4 0h3m3 0h1m1 0h1m1 0h8m2 0h2m5 0h1m1 0h1m1 0h1m1 0h1m3 0h1m2 0h1m1 0h2m1 0h1m1 0h3m2 0h2m4 0h1m1 0h1m1 0h4m1 0h2m2 0h2m1 0h1m1 0h3m3 0h5m2 0h1m-109 1h7m2 0h1m14 0h2m1 0h1m2 0h1m2 0h3m1 0h1m1 0h1m1 0h1m1 0h1m1 0h1m2 0h2m2 0h1m1 0h2m1 0h2m2 0h2m1 0h3m1 0h1m2 0h3m4 0h2m1 0h5m1 0h1m1 0h1m1 0h2m1 0h3m2 0h1m1 0h5m2 0h1"/></svg>
