<?xml version="1.0" encoding="UTF-8"?>
<svg xmlns="http://www.w3.org/2000/svg" height="1448" width="1448" class="pyqrcode"><path transform="scale(8)" stroke="#000" class="pyqrline" d="M4 4.5h7m4 0h2m3 0h1m2 0h2m1 0h4m1 0h1m1 0h3m1 0h2m1 0h1m1 0h2m6 0h1m3 0h3m1 0h1m1 0h1m2 0h5m1 0h1m1 0h1m4 0h3m4 0h2m2 0h1m3 0h1m6 0h3m2 0h1m5 0h1m3 0h1m2 0h1m1 0h1m1 0h1m1 0h3m7 0h1m2 0h8m2 0h2m1 0h3m1 0h2m4 0h1m1 0h2m1 0h1m1 0h2m3 0h7m-173 1h1m5 0h1m1 0h3m3 0h14m2 0h1m2 0h1m1 0h1m2 0h6m2 0h1m2 0h1m1 0h2m5 0h2m1 0h1m2 0h2m2 0h2m1 0h1m3 0h1m1 0h1m1 0h2m4 0h1m1 0h1m2 0h1m1 0h4m6 0h4m2 0h2m2 0h2m2 0h1m2 0h1m1 0h3m5 0h1m1 0h2m3 0h1m4 0h3m1 0h3m1 0h1m2 0h1m2 0h3m1 0h1m6 0h1m5 0h1m-173 1h1m1 0h3m1 0h1m4 0h1m2 0h1m1 0h1m5 0h1m1 0h2m4 0h1m2 0h1m1 0h2m2 0h1m3 0h1m2 0h6m3 0h2m3 0h3m2 0h1m2 0h3m1 0h1m2 0h4m4 0h1m1 0h1m1 0h3m6 0h2m4 0h1m3 0h1m1 0h4m1 0h1m2 0h3m1 0h1m1 0h1m1 0h1m2 0h1m1 0h4m1 0h1m3 0h2m1 0h5m8 0h2m1 0h1m1 0h1m1 0h2m1 0h1m1 0h1m1 0h3m1 0h1m-173 1h1m1 0h3m1 0h1m2 0h2m1 0h1m4 0h1m2 0h2m1 0h2m1 0h1m1 0h1m4 0h1m1 0h2m2 0h1m1 0h3m1 0h2m3 0h1m4 0h1m3 0h1m2 0h2m1 0h2m2 0h2m3 0h1m5 0h2m2 0h2m3 0h3m2 0h4m1 0h1m1 0h1m2 0h1m1 0h2m3 0h1m6 0h2m1 0h1m1 0h1m4 0h1m1 0h7m1 0h1m2 0h1m2 0h1m3 0h4m1 0h5m1 0h1m3 0h1m2 0h1m1 0h3m1 0h1m-173 1h1m1 0h3m1 0h1m2 0h6m1 0h2m4 0h8m1 0h3m1 0h4m1 0h1m2 0h1m1 0h1m4 0h1m1 0h5m3 0h1m1 0h2m1 0h1m1 0h1m1 0h2m3 0h1m2 0h8m2 0h1m2 0h1m1 0h1m1 0h5m1 0h1m1 0h3m3 0h5m3 0h2m1 0h3m1 0h1m2 0h1m1 0h1m2 0h10m3 0h2m2 0h1m1 0h1m3 0h1m1 0h1m2 0h1m1 0h4m1 0h1m1 0h3m1 0h1m-173 1h1m5 0h1m1 0h3m1 0h1m1 0h1m1 0h2m1 0h1m3 0h2m3 0h2m10 0h3m2 0h1m1 0h1m4 0h1m3 0h6m2 0h1m1 0h4m1 0h3m1 0h3m1 0h2m3 0h2m1 0h1m2 0h2m1 0h3m2 0h2m1 0h6m1 0h1m3 0h2m2 0h8m1 0h1m5 0h2m2 0h2m3 0h1m2 0h1m2 0h2m4 0h1m2 0h5m1 0h1m2 0h1m1 0h1m5 0h1m-173 1h7m1 0h1m1 0h1m1 0h1m1 0h1m1 0h1m1 0h1m1 0h1m1 0h1m1 0h1m1 0h1m1 0h1m1 0h1m1 0h1m1 0h1m1 0h1m1 0h1m1 0h1m1 0h1m1 0h1m1 0h1m1 0h1m1 0h1m1 0h1m1 0h1m1 0h1m1 0h1m1 0h1m1 0h1m1 0h1m1 0h1m1 0h1m1 0h1m1 0h1m1 0h1m1 0h1m1 0h1m1 0h1m1 0h1m1 0h1m1 0h1m1 0h1m1 0h1m1 0h1m1 0h1m1 0h1m1 0h1m1 0h1m1 0h1m1 0h1m1 0h1m1 0h1m1 0h1m1 0h1m1 0h1m1 0h1m1 0h1m1 0h1m1 0h1m1 0h1m1 0h1m1 0h1m1 0h1m1 0h1m1 0h1m1 0h1m1 0h1m1 0h1m1 0h1m1 0h1m1 0h1m1 0h1m1 0h1m1 0h1m1 0h1m1 0h1m1 0h1m1 0h1m1 0h1m1 0h1m1 0h7m-165 1h2m1 0h2m2 0h2m1 0h1m1 0h1m1 0h3m3 0h1m1 0h2m1 0h1m1 0h2m1 0h1m7 0h3m1 0h3m3 0h3m1 0h1m5 0h2m1 0h1m1 0h2m1 0h1m1 0h5m3 0h1m2 0h2m1 0h2m2 0h1m1 0h2m1 0h3m4 0h1m1 0h1m3 0h1m1 0h1m1 0h5m1 0h1m1 0h4m1 0h4m1 0h3m3 0h5m2 0h3m2 0h1m1 0h2m1 0h1m2 0h1m2 0h1m-160 1h4m1 0h2m4 0h3m2 0h1m1 0h1m1 0h7m1 0h1m6 0h1m3 0h1m3 0h3m2 0h6m1 0h2m1 0h1m2 0h5m4 0h3m2 0h8m1 0h1m1 0h1m2 0h1m3 0h1m1 0h2m1 0h5m1 0h7m2 0h1m4 0h1m1 0h3m2 0h1m1 0h1m3 0h6m1 0h2m1 0h1m1 0h3m1 0h3m3 0h1m6 0h1m1 0h2m3 0h1m-171 1h2m2 0h1m1 0h1m1 0h1m3 0h1m1 0h1m2 0h1m1 0h1m2 0h1m2 0h1m2 0h2m1 0h4m4 0h1m4 0h1m1 0h4m4 0h1m1 0h1m2 0h4m1 0h1m1 0h3m1 0h2m2 0h1m2 0h5m3 0h1m2 0h1m1 0h8m8 0h1m2 0h1m4 0h2m2 0h2m2 0h1m1 0h2m1 0h2m1 0h8m1 0h1m1 0h1m1 0h4m1 0h2m4 0h3m4 0h2m5 0h4m-171 1h5m6 0h2m3 0h1m1 0h3m4 0h2m3 0h2m1 0h5m6 0h4m5 0h2m2 0h1m2 0h1m1 0h1m1 0h2m1 0h1m1 0h1m2 0h1m1 0h1m6 0h1m1 0h2m2 0h1m2 0h1m1 0h1m1 0h4m3 0h1m6 0h1m4 0h1m3 0h2m1 0h1m1 0h7m2 0h2m2 0h2m2 0h1m2 0h2m2 0h3m2 0h1m3 0h1m2 0h1m1 0h1m1 0h1m2 0h6m-172 1h3m3 0h2m2 0h1m1 0h2m1 0h1m1 0h1m3 0h4m1 0h3m3 0h3m1 0h2m1 0h1m4 0h1m2 0h3m3 0h1m2 0h2m1 0h1m1 0h1m1 0h1m1 0h1m3 0h1m1 0h2m7 0h2m1 0h3m1 0h1m3 0h2m3 0h3m1 0h2m2 0h1m3 0h1m2 0h2m2 0h3m1 0h1m1 0h2m1 0h1m1 0h1m1 0h1m4 0h1m1 0h4m2 0h4m6 0h1m1 0h4m2 0h1m2 0h1m3 0h3m-169 1h2m2 0h2m1 0h1m1 0h2m1 0h3m5 0h1m1 0h4m4 0h1m1 0h3m4 0h1m2 0h2m2 0h3m1 0h1m1 0h1m2 0h2m1 0h1m1 0h1m2 0h1m1 0h1m2 0h2m1 0h1m3 0h1m2 0h1m1 0h1m1 0h1m5 0h3m2 0h2m1 0h7m2 0h1m6 0h2m1 0h2m3 0h9m1 0h2m4 0h1m1 0h2m2 0h1m1 0h3m1 0h1m1 0h2m1 0h1m1 0h2m4 0h1m4 0h5m-172 1h1m1 0h1m1 0h1m2 0h1m2 0h1m2 0h1m1 0h1m1 0h1m1 0h1m1 0h1m2 0h1m3 0h2m3 0h1m2 0h1m2 0h1m5 0h2m4 0h5m4 0h3m6 0h6m1 0h1m1 0h1m1 0h3m5 0h2m3 0h4m1 0h4m7 0h2m1 0h1m1 0h1m1 0h1m2 0h2m2 0h1m2 0h1m1 0h1m1 0h5m1 0h3m1 0h1m1 0h1m1 0h2m2 0h1m2 0h1m3 0h1m1 0h1m1 0h1m1 0h1m2 0h2m2 0h1m1 0h1m1 0h1m-173 1h5m1 0h1m1 0h2m1 0h1m2 0h2m1 0h3m3 0h2m1 0h1m1 0h1m4 0h3m1 0h2m1 0h1m7 0h2m4 0h4m4 0h1m4 0h2m2 0h1m2 0h1m2 0h1m4 0h3m2 0h1m1 0h3m1 0h2m1 0h1m2 0h2m4 0h1m1 0h2m1 0h1m2 0h3m2 0h2m4 0h1m1 0h2m1 0h2m2 0h2m7 0h1m1 0h3m1 0h1m2 0h1m3 0h1m1 0h1m2 0h1m1 0h2m5 0h2m1 0h1m-173 1h1m2 0h1m1 0h1m1 0h1m3 0h1m1 0h5m2 0h1m1 0h1m3 0h1m3 0h3m1 0h2m1 0h1m1 0h2m5 0h1m6 0h1m1 0h1m1 0h1m1 0h1m1 0h1m1 0h1m1 0h1m5 0h1m1 0h1m3 0h5m2 0h1m1 0h2m3 0h1m5 0h2m2 0h1m5 0h1m2 0h2m1 0h2m3 0h3m1 0h3m3 0h1m2 0h1m3 0h5m2 0h3m2 0h2m3 0h1m1 0h1m1 0h2m1 0h1m3 0h1m2 0h1m1 0h1m2 0h2m-173 1h4m1 0h2m1 0h1m3 0h2m1 0h1m4 0h1m1 0h6m1 0h1m2 0h2m9 0h3m2 0h9m1 0h1m2 0h1m1 0h1m3 0h1m3 0h1m1 0h1m1 0h1m1 0h1m2 0h7m2 0h1m7 0h2m1 0h1m1 0h8m1 0h7m4 0h1m1 0h6m4 0h2m3 0h2m2 0h1m3 0h3m3 0h7m1 0h2m2 0h1m1 0h2m3 0h1m-172 1h1m1 0h1m3 0h1m5 0h2m1 0h2m1 0h4m4 0h4m1 0h1m2 0h1m2 0h1m1 0h2m1 0h1m1 0h1m1 0h1m1 0h1m1 0h1m3 0h2m1 0h1m1 0h1m5 0h2m1 0h1m2 0h2m1 0h4m2 0h8m5 0h1m1 0h4m1 0h2m1 0h1m1 0h1m1 0h1m2 0h4m1 0h1m2 0h2m2 0h1m2 0h1m1 0h1m3 0h2m1 0h1m1 0h2m1 0h1m1 0h1m1 0h4m1 0h2m2 0h1m1 0h2m1 0h3m1 0h1m1 0h2m1 0h4m-169 1h1m1 0h1m1 0h2m1 0h1m1 0h1m1 0h2m1 0h3m3 0h1m2 0h1m1 0h2m1 0h1m1 0h3m3 0h1m3 0h6m1 0h1m1 0h1m1 0h2m1 0h2m1 0h2m1 0h1m1 0h2m1 0h2m2 0h1m2 0h2m1 0h1m1 0h1m1 0h2m1 0h1m1 0h1m2 0h2m1 0h2m1 0h1m2 0h2m2 0h1m1 0h5m1 0h1m1 0h2m3 0h1m2 0h2m1 0h2m2 0h1m2 0h3m1 0h1m1 0h2m3 0h2m1 0h2m2 0h4m7 0h3m2 0h2m1 0h1m2 0h1m1 0h1m-173 1h1m1 0h2m1 0h1m1 0h1m2 0h1m1 0h2m1 0h2m2 0h2m2 0h1m1 0h3m2 0h3m1 0h2m2 0h3m1 0h2m1 0h1m1 0h4m2 0h3m1 0h2m6 0h1m1 0h2m1 0h1m2 0h1m1 0h6m1 0h6m5 0h4m1 0h1m1 0h3m1 0h1m1 0h1m2 0h2m1 0h5m1 0h1m2 0h3m2 0h1m1 0h1m1 0h2m4 0h2m1 0h1m2 0h3m3 0h1m5 0h1m1 0h2m1 0h1m3 0h1m1 0h5m2 0h1m-173 1h2m2 0h1m1 0h1m2 0h1m1 0h1m1 0h1m6 0h4m1 0h1m2 0h1m1 0h2m2 0h1m2 0h7m3 0h1m3 0h3m2 0h1m1 0h2m1 0h3m2 0h2m2 0h1m3 0h1m1 0h1m3 0h1m1 0h1m2 0h2m2 0h2m1 0h1m1 0h1m3 0h1m1 0h2m2 0h3m1 0h5m1 0h4m4 0h1m1 0h3m2 0h1m4 0h1m1 0h2m1 0h2m1 0h2m2 0h2m1 0h1m4 0h5m1 0h3m1 0h1m1 0h3m1 0h1m1 0h1m-173 1h3m2 0h1m2 0h2m2 0h1m4 0h2m1 0h1m1 0h1m1 0h1m1 0h1m1 0h1m2 0h2m1 0h1m3 0h1m1 0h1m1 0h2m1 0h1m4 0h2m5 0h2m3 0h1m3 0h2m1 0h5m3 0h1m1 0h1m5 0h1m8 0h1m1 0h1m3 0h2m2 0h1m1 0h3m1 0h1m2 0h1m2 0h1m2 0h3m1 0h1m1 0h1m2 0h7m2 0h2m1 0h1m1 0h1m2 0h2m1 0h2m3 0h1m1 0h3m1 0h1m4 0h2m3 0h1m1 0h2m-172 1h1m3 0h3m1 0h1m1 0h3m1 0h1m2 0h2m1 0h1m1 0h1m2 0h1m1 0h3m1 0h2m2 0h1m1 0h2m2 0h1m2 0h1m2 0h1m3 0h1m2 0h1m8 0h2m1 0h2m1 0h3m2 0h1m4 0h3m2 0h2m1 0h3m1 0h1m2 0h1m3 0h2m7 0h4m1 0h3m2 0h2m2 0h2m2 0h1m1 0h3m1 0h2m1 0h1m1 0h2m3 0h1m2 0h1m2 0h3m7 0h1m1 0h1m6 0h1m1 0h1m1 0h2m-172 1h1m2 0h2m3 0h1m3 0h6m1 0h1m1 0h3m3 0h3m2 0h2m1 0h1m1 0h2m3 0h1m3 0h3m5 0h1m1 0h1m1 0h2m3 0h1m1 0h1m2 0h2m2 0h1m1 0h1m1 0h1m1 0h5m1 0h3m2 0h1m1 0h1m2 0h1m1 0h2m1 0h3m1 0h1m2 0h1m1 0h1m1 0h4m4 0h1m12 0h1m1 0h1m1 0h4m2 0h3m9 0h2m1 0h1m2 0h1m2 0h1m2 0h1m1 0h2m2 0h1m-173 1h2m2 0h6m2 0h1m1 0h3m2 0h2m3 0h5m1 0h1m4 0h1m4 0h7m3 0h1m1 0h6m1 0h5m1 0h2m3 0h1m1 0h1m2 0h4m1 0h5m1 0h1m11 0h3m3 0h1m1 0h12m4 0h6m1 0h1m1 0h4m1 0h5m1 0h3m1 0h2m3 0h1m6 0h1m1 0h1m2 0h8m1 0h1m-170 1h2m3 0h1m1 0h2m3 0h1m3 0h6m3 0h1m1 0h1m2 0h1m1 0h1m1 0h2m1 0h1m1 0h5m1 0h1m1 0h3m3 0h1m1 0h1m1 0h1m5 0h5m4 0h1m1 0h2m1 0h1m3 0h4m1 0h3m2 0h6m2 0h2m1 0h2m1 0h1m3 0h3m1 0h1m1 0h4m1 0h1m1 0h2m1 0h3m1 0h1m2 0h2m3 0h2m1 0h1m1 0h3m1 0h1m7 0h2m3 0h3m3 0h5m-172 1h2m1 0h1m1 0h1m1 0h1m4 0h1m2 0h2m4 0h3m1 0h1m1 0h1m2 0h4m2 0h3m5 0h1m1 0h2m2 0h2m1 0h1m1 0h2m2 0h1m1 0h1m2 0h2m2 0h3m2 0h1m3 0h1m1 0h1m1 0h1m1 0h1m3 0h1m1 0h1m2 0h1m1 0h6m2 0h1m2 0h1m1 0h1m1 0h1m1 0h2m3 0h2m2 0h3m1 0h2m2 0h1m4 0h1m1 0h1m1 0h1m1 0h1m2 0h1m1 0h1m2 0h1m8 0h2m1 0h2m2 0h1m1 0h1m1 0h1m1 0h3m-173 1h5m3 0h1m5 0h1m1 0h1m2 0h2m2 0h2m3 0h1m5 0h2m3 0h1m3 0h2m1 0h1m4 0h2m3 0h2m1 0h2m4 0h3m1 0h3m1 0h2m1 0h1m2 0h2m3 0h1m2 0h3m2 0h1m2 0h2m2 0h1m1 0h3m1 0h1m2 0h1m3 0h1m1 0h2m1 0h3m3 0h3m1 0h2m1 0h2m1 0h1m2 0h1m3 0h1m1 0h1m1 0h1m3 0h1m5 0h3m3 0h1m2 0h2m3 0h2m-170 1h1m3 0h5m2 0h1m1 0h2m7 0h1m1 0h5m3 0h2m3 0h2m1 0h2m1 0h1m1 0h1m1 0h1m1 0h1m2 0h5m3 0h2m2 0h2m2 0h1m1 0h2m1 0h2m2 0h2m1 0h6m1 0h1m7 0h1m2 0h6m3 0h6m1 0h1m2 0h1m1 0h2m1 0h1m1 0h3m1 0h2m1 0h2m1 0h7m2 0h2m1 0h2m3 0h1m8 0h1m2 0h6m1 0h2m-172 1h1m1 0h1m1 0h1m2 0h2m2 0h1m1 0h1m1 0h1m2 0h3m1 0h4m1 0h1m1 0h1m1 0h1m4 0h1m1 0h1m1 0h2m1 0h4m1 0h2m3 0h4m3 0h1m6 0h2m2 0h1m1 0h2m1 0h2m1 0h1m1 0h1m1 0h3m3 0h2m3 0h1m1 0h3m1 0h2m2 0h2m3 0h2m1 0h2m1 0h3m1 0h3m1 0h1m2 0h1m1 0h2m2 0h1m1 0h7m1 0h1m1 0h3m1 0h2m1 0h1m3 0h1m2 0h2m1 0h3m1 0h1m1 0h5m-171 1h4m1 0h2m2 0h1m1 0h1m2 0h1m3 0h1m1 0h1m5 0h1m3 0h1m1 0h2m4 0h1m1 0h1m5 0h1m1 0h4m1 0h3m1 0h1m2 0h1m1 0h4m1 0h1m1 0h8m2 0h3m6 0h2m3 0h3m1 0h2m3 0h1m1 0h3m1 0h3m1 0h1m1 0h2m2 0h2m1 0h2m4 0h1m1 0h1m2 0h4m2 0h1m1 0h1m3 0h1m2 0h4m3 0h1m4 0h1m1 0h1m1 0h1m1 0h5m1 0h1m-166 1h3m2 0h1m1 0h3m3 0h3m1 0h1m1 0h1m1 0h3m3 0h3m2 0h1m1 0h1m2 0h5m1 0h1m2 0h4m1 0h1m1 0h2m1 0h4m1 0h2m3 0h2m1 0h2m1 0h1m1 0h1m2 0h1m1 0h1m3 0h2m2 0h1m5 0h2m1 0h1m1 0h3m1 0h4m1 0h1m2 0h4m1 0h3m1 0h1m1 0h4m2 0h1m2 0h1m4 0h3m3 0h1m2 0h1m2 0h1m2 0h1m2 0h1m4 0h1m3 0h1m1 0h2m-173 1h1m1 0h3m1 0h2m2 0h2m2 0h2m1 0h1m1 0h1m1 0h1m1 0h2m3 0h1m1 0h1m6 0h2m1 0h2m4 0h1m2 0h3m2 0h1m1 0h2m1 0h2m1 0h2m6 0h1m4 0h1m2 0h1m1 0h2m4 0h1m2 0h4m2 0h1m2 0h1m1 0h3m3 0h1m1 0h1m3 0h3m2 0h1m3 0h7m1 0h1m1 0h2m1 0h1m2 0h2m2 0h1m1 0h1m2 0h2m3 0h2m5 0h1m5 0h2m3 0h2m1 0h1m-172 1h4m3 0h3m3 0h2m8 0h1m2 0h1m1 0h1m1 0h2m1 0h1m3 0h1m1 0h2m1 0h1m1 0h1m1 0h1m3 0h1m1 0h2m1 0h2m1 0h2m1 0h2m1 0h1m1 0h1m2 0h1m3 0h3m1 0h1m2 0h2m1 0h3m5 0h1m4 0h2m2 0h1m2 0h1m6 0h3m2 0h1m1 0h3m5 0h1m1 0h1m3 0h7m1 0h1m3 0h3m1 0h1m1 0h2m2 0h1m1 0h4m3 0h1m2 0h4m-167 1h2m1 0h1m1 0h1m2 0h2m2 0h1m1 0h3m1 0h1m1 0h1m2 0h1m2 0h1m2 0h1m1 0h1m4 0h1m2 0h1m3 0h3m2 0h1m2 0h1m1 0h1m7 0h3m1 0h1m1 0h4m6 0h1m3 0h2m2 0h4m1 0h4m1 0h2m5 0h1m1 0h2m1 0h2m1 0h1m1 0h3m1 0h1m3 0h1m5 0h2m2 0h4m3 0h3m2 0h1m2 0h1m2 0h1m2 0h1m2 0h1m2 0h3m1 0h1m1 0h1m5 0h1m-173 1h1m1 0h1m1 0h2m1 0h1m6 0h3m2 0h1m1 0h3m2 0h2m3 0h1m1 0h3m1 0h1m1 0h1m2 0h1m5 0h2m1 0h2m2 0h1m2 0h1m5 0h3m1 0h2m7 0h4m4 0h3m3 0h1m4 0h1m2 0h1m3 0h1m6 0h3m1 0h1m2 0h1m2 0h1m1 0h2m2 0h1m1 0h2m1 0h1m1 0h2m1 0h3m3 0h1m5 0h1m3 0h3m1 0h2m1 0h2m2 0h1m4 0h2m1 0h1m-171 1h2m2 0h2m1 0h3m1 0h1m1 0h1m1 0h1m1 0h3m2 0h2m3 0h1m4 0h1m2 0h1m3 0h4m4 0h3m1 0h1m2 0h2m3 0h5m1 0h2m1 0h2m1 0h2m5 0h2m5 0h1m2 0h1m1 0h3m1 0h1m2 0h5m2 0h1m1 0h4m3 0h1m2 0h1m1 0h2m1 0h1m1 0h1m1 0h1m2 0h1m1 0h2m1 0h1m1 0h3m7 0h1m1 0h1m4 0h2m1 0h1m1 0h2m1 0h2m7 0h1m-170 1h2m2 0h1m2 0h3m1 0h3m2 0h1m1 0h1m7 0h1m1 0h3m1 0h2m4 0h1m1 0h1m1 0h3m1 0h1m1 0h1m1 0h1m1 0h1m1 0h2m3 0h2m2 0h3m2 0h2m2 0h2m4 0h1m2 0h2m2 0h1m5 0h4m1 0h4m3 0h1m3 0h2m1 0h1m1 0h1m1 0h3m1 0h3m1 0h1m1 0h1m1 0h3m2 0h2m1 0h1m1 0h1m1 0h3m2 0h2m5 0h1m2 0h1m1 0h2m1 0h2m1 0h2m2 0h4m-169 1h2m3 0h2m2 0h1m1 0h2m1 0h1m2 0h2m3 0h1m1 0h2m1 0h2m1 0h1m2 0h2m1 0h2m3 0h1m3 0h2m1 0h9m1 0h6m3 0h4m1 0h1m3 0h2m1 0h2m1 0h1m2 0h1m1 0h2m1 0h1m1 0h4m1 0h1m1 0h1m3 0h3m2 0h1m1 0h2m2 0h5m3 0h4m1 0h1m4 0h1m1 0h3m1 0h1m1 0h2m3 0h1m1 0h2m1 0h1m1 0h1m3 0h1m1 0h2m1 0h1m1 0h1m1 0h1m1 0h1m3 0h1m-171 1h1m4 0h2m1 0h1m1 0h2m2 0h2m3 0h1m1 0h1m1 0h1m1 0h1m2 0h2m1 0h2m1 0h1m1 0h1m1 0h1m2 0h3m2 0h1m1 0h1m4 0h1m3 0h5m1 0h1m2 0h4m1 0h3m4 0h2m2 0h2m1 0h1m1 0h1m1 0h1m3 0h2m2 0h1m3 0h1m1 0h3m1 0h2m1 0h2m4 0h2m2 0h1m2 0h1m2 0h4m1 0h2m1 0h1m1 0h2m2 0h1m1 0h1m3 0h2m1 0h1m2 0h1m1 0h2m5 0h1m1 0h1m1 0h1m1 0h1m1 0h2m-172 1h3m1 0h3m1 0h2m3 0h3m1 0h2m2 0h3m1 0h1m2 0h1m1 0h3m2 0h1m1 0h1m6 0h1m1 0h1m1 0h3m1 0h4m4 0h4m1 0h3m1 0h2m2 0h3m2 0h1m2 0h1m3 0h1m1 0h6m1 0h2m1 0h3m2 0h3m3 0h1m3 0h2m1 0h2m4 0h1m1 0h6m1 0h2m1 0h1m1 0h1m2 0h1m2 0h1m1 0h2m1 0h1m1 0h1m4 0h1m1 0h3m2 0h3m1 0h1m6 0h1m-173 1h1m6 0h2m2 0h2m2 0h1m2 0h2m2 0h5m1 0h2m1 0h4m1 0h4m4 0h2m2 0h4m1 0h5m1 0h2m1 0h1m2 0h1m2 0h1m6 0h3m3 0h2m2 0h6m1 0h1m3 0h3m1 0h4m1 0h1m2 0h1m5 0h1m1 0h1m1 0h3m2 0h1m2 0h1m1 0h1m1 0h1m1 0h2m1 0h1m1 0h2m1 0h3m2 0h2m1 0h1m1 0h2m2 0h1m1 0h2m1 0h1m3 0h1m2 0h4m1 0h2m-173 1h2m1 0h1m2 0h1m1 0h1m1 0h3m4 0h2m1 0h3m1 0h1m1 0h4m2 0h3m1 0h1m2 0h1m2 0h2m2 0h3m3 0h2m1 0h1m1 0h1m1 0h3m1 0h3m1 0h2m1 0h2m2 0h1m1 0h2m1 0h1m1 0h2m1 0h1m1 0h6m3 0h1m2 0h2m1 0h2m1 0h1m2 0h1m5 0h1m2 0h3m1 0h6m1 0h1m1 0h1m3 0h1m1 0h1m3 0h3m6 0h1m2 0h1m1 0h2m2 0h1m2 0h1m1 0h1m3 0h1m5 0h1m-173 1h2m3 0h1m1 0h3m1 0h2m1 0h1m1 0h1m2 0h3m2 0h1m3 0h3m1 0h2m8 0h1m1 0h2m1 0h1m2 0h4m1 0h1m2 0h1m1 0h2m1 0h2m1 0h1m2 0h1m4 0h4m1 0h7m1 0h3m1 0h1m1 0h2m1 0h1m2 0h1m1 0h1m1 0h1m2 0h1m1 0h1m2 0h1m4 0h3m3 0h2m2 0h1m1 0h1m1 0h2m1 0h1m1 0h3m3 0h4m2 0h3m2 0h1m1 0h1m1 0h2m1 0h1m3 0h1m3 0h1m1 0h1m1 0h2m-173 1h2m3 0h2m4 0h8m1 0h1m1 0h1m1 0h2m1 0h1m2 0h2m4 0h1m4 0h1m3 0h1m6 0h3m1 0h1m1 0h2m1 0h3m3 0h3m1 0h1m1 0h2m1 0h1m4 0h7m2 0h3m1 0h1m1 0h1m4 0h2m7 0h5m2 0h1m2 0h1m1 0h1m1 0h6m3 0h5m1 0h4m1 0h1m2 0h1m1 0h1m3 0h1m1 0h2m1 0h1m1 0h1m1 0h1m1 0h1m2 0h1m1 0h2m1 0h1m-173 1h2m2 0h1m2 0h8m1 0h4m4 0h1m1 0h3m2 0h2m1 0h2m2 0h2m3 0h1m1 0h1m2 0h1m1 0h1m1 0h2m1 0h1m6 0h1m4 0h2m1 0h1m2 0h1m1 0h1m1 0h1m4 0h8m2 0h2m5 0h4m2 0h7m2 0h3m1 0h4m1 0h1m2 0h1m1 0h1m1 0h3m2 0h3m2 0h2m1 0h3m2 0h1m4 0h1m3 0h1m8 0h6m-172 1h8m8 0h1m1 0h2m1 0h3m1 0h1m4 0h3m1 0h8m4 0h4m1 0h1m1 0h1m1 0h2m2 0h1m1 0h4m1 0h1m3 0h1m5 0h3m4 0h1m2 0h2m3 0h1m1 0h2m2 0h1m3 0h2m1 0h1m1 0h1m1 0h2m1 0h1m2 0h1m1 0h1m1 0h1m3 0h1m2 0h2m1 0h1m1 0h3m1 0h3m8 0h1m2 0h4m6 0h1m1 0h1m3 0h1m1 0h3m1 0h1m1 0h1m-170 1h1m4 0h6m3 0h1m2 0h1m2 0h2m1 0h1m2 0h4m1 0h1m2 0h1m1 0h1m5 0h1m1 0h1m1 0h5m2 0h1m2 0h3m1 0h1m2 0h1m2 0h2m1 0h1m1 0h2m3 0h1m1 0h1m1 0h4m3 0h1m2 0h6m1 0h2m1 0h4m1 0h1m2 0h3m5 0h2m3 0h1m3 0h1m1 0h1m4 0h1m1 0h2m1 0h1m1 0h1m2 0h1m1 0h2m3 0h1m1 0h1m1 0h1m2 0h2m2 0h2m2 0h1m1 0h1m1 0h2m-173 1h1m3 0h3m1 0h1m1 0h1m1 0h2m4 0h1m4 0h1m1 0h1m2 0h3m1 0h2m1 0h2m2 0h4m1 0h2m1 0h2m3 0h3m1 0h1m4 0h4m2 0h2m2 0h2m3 0h2m2 0h2m1 0h1m6 0h1m1 0h1m4 0h5m2 0h2m1 0h4m1 0h3m1 0h2m2 0h1m1 0h6m1 0h1m2 0h1m1 0h1m3 0h1m1 0h1m1 0h1m2 0h2m2 0h2m1 0h2m1 0h2m2 0h1m2 0h3m2 0h1m1 0h2m1 0h1m-173 1h1m1 0h2m1 0h1m6 0h1m1 0h1m1 0h4m1 0h1m2 0h1m3 0h3m3 0h1m3 0h1m1 0h2m1 0h3m1 0h3m2 0h1m4 0h2m3 0h1m1 0h1m2 0h1m1 0h2m1 0h1m1 0h1m1 0h1m2 0h1m1 0h3m1 0h2m1 0h5m1 0h5m2 0h1m1 0h2m1 0h2m1 0h1m2 0h1m1 0h1m1 0h1m1 0h4m1 0h1m2 0h1m1 0h2m1 0h6m1 0h1m1 0h2m6 0h1m4 0h1m1 0h1m2 0h1m6 0h1m1 0h3m-169 1h1m1 0h4m2 0h2m1 0h1m4 0h2m2 0h1m1 0h1m1 0h1m4 0h9m1 0h1m2 0h2m1 0h1m2 0h1m5 0h1m1 0h4m1 0h1m1 0h2m3 0h2m1 0h3m1 0h3m2 0h3m2 0h1m1 0h1m2 0h1m1 0h2m1 0h4m5 0h2m1 0h3m2 0h1m2 0h2m5 0h1m1 0h3m1 0h2m2 0h1m1 0h1m3 0h2m4 0h2m1 0h2m1 0h1m6 0h1m1 0h2m4 0h3m3 0h1m-173 1h1m3 0h1m3 0h5m1 0h2m4 0h1m1 0h1m1 0h1m1 0h1m2 0h1m1 0h1m1 0h2m3 0h2m1 0h1m1 0h3m2 0h3m2 0h1m3 0h7m2 0h2m1 0h2m1 0h3m6 0h1m4 0h5m3 0h1m1 0h8m2 0h2m2 0h1m5 0h3m2 0h1m1 0h2m4 0h1m1 0h1m3 0h1m2 0h2m2 0h1m1 0h2m1 0h2m2 0h1m1 0h2m1 0h2m2 0h1m4 0h1m3 0h1m-170 1h9m1 0h1m3 0h1m1 0h1m4 0h1m2 0h6m5 0h1m3 0h2m1 0h2m1 0h1m1 0h1m4 0h5m1 0h1m1 0h3m2 0h1m1 0h1m1 0h1m1 0h1m1 0h1m2 0h2m2 0h6m1 0h1m5 0h2m1 0h3m3 0h1m5 0h10m2 0h1m1 0h6m1 0h1m4 0h1m1 0h5m1 0h1m1 0h2m2 0h1m2 0h1m1 0h2m1 0h1m1 0h1m1 0h1m1 0h7m1 0h1m-170 1h4m3 0h3m3 0h1m2 0h1m1 0h1m2 0h1m1 0h1m3 0h1m3 0h7m4 0h4m1 0h1m3 0h1m3 0h2m1 0h3m2 0h2m1 0h2m2 0h1m1 0h1m2 0h1m1 0h1m1 0h1m3 0h3m2 0h1m1 0h2m3 0h1m1 0h2m4 0h1m1 0h1m1 0h1m3 0h3m1 0h1m1 0h3m5 0h1m1 0h1m1 0h5m1 0h1m3 0h1m3 0h2m3 0h1m7 0h2m1 0h5m3 0h1m1 0h2m-172 1h1m1 0h1m1 0h1m1 0h1m1 0h3m1 0h2m3 0h1m1 0h6m1 0h1m1 0h2m3 0h3m1 0h3m2 0h1m3 0h5m1 0h1m1 0h1m1 0h4m1 0h1m1 0h1m1 0h1m1 0h2m4 0h4m3 0h1m1 0h1m1 0h2m1 0h2m2 0h2m1 0h2m1 0h2m1 0h1m1 0h1m1 0h2m2 0h1m1 0h1m1 0h3m4 0h1m2 0h2m3 0h4m5 0h1m1 0h1m1 0h2m4 0h1m1 0h4m1 0h1m3 0h1m2 0h1m2 0h2m1 0h1m1 0h3m1 0h1m-173 1h2m2 0h1m3 0h1m1 0h1m1 0h3m2 0h4m1 0h1m1 0h1m3 0h3m2 0h1m1 0h3m1 0h3m1 0h2m1 0h1m2 0h1m1 0h2m3 0h2m2 0h2m1 0h1m3 0h7m3 0h4m3 0h3m2 0h2m2 0h2m8 0h1m1 0h1m2 0h1m3 0h1m2 0h1m1 0h1m2 0h2m1 0h1m2 0h3m4 0h2m1 0h1m3 0h1m1 0h4m1 0h1m2 0h1m1 0h1m1 0h4m2 0h1m2 0h2m3 0h1m2 0h1m-169 1h6m1 0h3m1 0h1m1 0h5m1 0h1m1 0h12m3 0h1m1 0h1m3 0h4m3 0h6m1 0h2m1 0h1m3 0h1m2 0h1m1 0h2m1 0h1m1 0h1m1 0h1m1 0h10m1 0h1m1 0h1m1 0h3m3 0h1m1 0h1m1 0h1m1 0h6m1 0h2m1 0h1m2 0h1m1 0h2m1 0h3m1 0h1m4 0h1m1 0h6m3 0h1m2 0h1m1 0h1m1 0h2m2 0h3m1 0h1m2 0h6m-168 1h2m1 0h2m4 0h2m3 0h4m2 0h1m1 0h1m2 0h1m1 0h5m1 0h1m1 0h3m1 0h2m1 0h2m3 0h1m1 0h1m3 0h2m2 0h6m2 0h1m1 0h1m1 0h3m5 0h1m1 0h6m2 0h1m1 0h1m5 0h3m1 0h6m1 0h1m1 0h5m2 0h1m1 0h4m1 0h1m1 0h1m2 0h1m2 0h3m1 0h1m4 0h2m2 0h2m3 0h1m4 0h5m1 0h3m1 0h1m4 0h1m-169 1h1m3 0h5m1 0h2m2 0h6m2 0h1m2 0h3m2 0h1m1 0h1m1 0h3m1 0h4m1 0h2m6 0h1m2 0h2m1 0h2m1 0h4m2 0h3m1 0h3m2 0h2m1 0h2m1 0h1m4 0h2m1 0h3m2 0h4m1 0h1m6 0h2m1 0h1m2 0h5m1 0h1m1 0h1m1 0h1m3 0h5m4 0h2m1 0h1m8 0h3m2 0h2m2 0h1m2 0h1m1 0h1m1 0h1m4 0h1m2 0h1m-172 1h1m3 0h1m2 0h3m1 0h1m1 0h1m1 0h8m1 0h1m1 0h1m2 0h4m1 0h2m2 0h1m1 0h1m1 0h4m2 0h2m4 0h1m1 0h2m1 0h1m1 0h2m1 0h1m4 0h1m2 0h2m5 0h1m1 0h1m1 0h2m1 0h2m1 0h4m1 0h2m1 0h1m1 0h1m1 0h2m2 0h2m2 0h3m2 0h2m1 0h1m1 0h2m1 0h1m2 0h1m2 0h1m2 0h1m2 0h1m4 0h1m1 0h4m4 0h1m1 0h1m1 0h2m1 0h1m1 0h2m2 0h1m2 0h3m3 0h1m-173 1h3m1 0h1m1 0h2m1 0h1m1 0h1m1 0h1m3 0h1m3 0h4m1 0h1m3 0h1m2 0h1m1 0h2m3 0h1m1 0h2m3 0h3m2 0h1m3 0h1m1 0h1m1 0h1m1 0h2m6 0h2m1 0h3m2 0h1m1 0h1m3 0h1m1 0h1m2 0h1m1 0h2m3 0h1m6 0h2m4 0h3m1 0h3m1 0h1m1 0h2m1 0h8m4 0h2m1 0h1m3 0h1m2 0h4m2 0h3m5 0h5m1 0h1m1 0h1m1 0h1m3 0h1m-172 1h2m1 0h1m2 0h4m1 0h1m6 0h2m1 0h1m3 0h1m1 0h1m1 0h1m3 0h1m1 0h1m2 0h1m1 0h1m4 0h1m1 0h1m2 0h2m1 0h1m1 0h1m1 0h2m1 0h1m2 0h1m1 0h2m1 0h1m2 0h1m2 0h2m4 0h1m1 0h2m3 0h2m1 0h1m2 0h1m2 0h3m2 0h3m4 0h1m1 0h2m1 0h1m1 0h1m2 0h3m8 0h4m3 0h1m1 0h2m2 0h1m1 0h1m3 0h1m1 0h1m2 0h1m1 0h2m1 0h1m1 0h7m1 0h1m1 0h1m-172 1h1m1 0h3m1 0h1m1 0h3m1 0h2m1 0h1m1 0h1m1 0h1m4 0h1m1 0h1m1 0h2m2 0h2m1 0h2m5 0h4m4 0h1m1 0h2m2 0h1m3 0h3m2 0h2m4 0h1m4 0h2m3 0h1m5 0h1m1 0h4m4 0h2m1 0h1m1 0h3m3 0h1m3 0h3m4 0h1m1 0h1m1 0h1m4 0h2m1 0h2m1 0h1m2 0h1m1 0h1m3 0h1m1 0h1m2 0h4m1 0h2m3 0h1m1 0h1m1 0h1m3 0h1m2 0h1m2 0h1m-173 1h2m1 0h1m1 0h1m1 0h1m1 0h1m2 0h3m1 0h2m1 0h1m2 0h2m2 0h2m2 0h1m1 0h1m2 0h2m4 0h1m3 0h1m1 0h2m2 0h2m1 0h7m1 0h2m3 0h2m4 0h1m3 0h1m3 0h1m1 0h3m1 0h4m1 0h1m1 0h1m1 0h1m8 0h3m1 0h4m2 0h2m2 0h1m1 0h1m1 0h2m1 0h4m4 0h1m4 0h4m2 0h1m1 0h2m1 0h3m1 0h2m1 0h1m1 0h1m3 0h1m2 0h4m1 0h1m-167 1h2m1 0h2m2 0h2m1 0h2m1 0h2m1 0h1m2 0h2m1 0h2m2 0h1m3 0h2m3 0h1m1 0h1m2 0h1m3 0h1m2 0h4m2 0h1m1 0h1m1 0h1m9 0h3m1 0h1m1 0h2m2 0h1m1 0h1m1 0h1m1 0h3m1 0h2m1 0h1m3 0h3m1 0h1m2 0h2m2 0h8m3 0h9m4 0h2m3 0h4m2 0h2m3 0h1m7 0h1m1 0h1m3 0h1m1 0h5m-171 1h1m1 0h1m1 0h2m5 0h2m3 0h1m2 0h2m1 0h2m1 0h3m1 0h2m1 0h3m1 0h1m3 0h1m1 0h1m1 0h1m5 0h1m1 0h1m1 0h2m2 0h6m1 0h1m1 0h1m4 0h5m4 0h4m3 0h3m1 0h1m1 0h2m3 0h1m1 0h1m3 0h1m1 0h2m1 0h1m1 0h1m1 0h1m1 0h1m1 0h3m8 0h1m1 0h2m1 0h1m2 0h4m1 0h1m1 0h2m2 0h2m4 0h1m1 0h2m1 0h1m5 0h1m3 0h1m1 0h2m-171 1h2m1 0h2m1 0h1m2 0h3m9 0h4m2 0h1m1 0h2m1 0h3m1 0h1m7 0h5m5 0h1m3 0h1m1 0h2m2 0h2m2 0h1m1 0h3m1 0h1m1 0h1m3 0h2m2 0h1m2 0h1m1 0h1m1 0h1m1 0h1m3 0h2m1 0h1m3 0h1m1 0h3m3 0h2m1 0h2m1 0h1m4 0h2m1 0h2m1 0h1m1 0h1m1 0h1m3 0h1m2 0h1m3 0h1m1 0h4m1 0h2m3 0h1m1 0h1m2 0h3m5 0h2m-173 1h1m1 0h1m1 0h2m1 0h1m3 0h1m2 0h1m1 0h1m5 0h2m1 0h1m1 0h2m1 0h1m1 0h2m1 0h4m1 0h1m1 0h2m2 0h3m1 0h1m1 0h2m1 0h1m1 0h2m1 0h3m2 0h1m2 0h3m1 0h1m2 0h1m1 0h2m3 0h1m1 0h2m2 0h1m1 0h1m1 0h1m1 0h1m1 0h2m8 0h2m1 0h3m1 0h1m2 0h3m1 0h1m1 0h1m1 0h1m2 0h2m1 0h1m1 0h3m4 0h1m2 0h1m1 0h2m4 0h1m3 0h2m1 0h1m1 0h1m6 0h1m2 0h1m-170 1h4m2 0h3m2 0h1m1 0h4m1 0h2m2 0h1m5 0h4m2 0h3m1 0h4m1 0h1m3 0h2m3 0h1m1 0h3m1 0h1m1 0h2m2 0h1m2 0h2m2 0h3m1 0h1m1 0h3m1 0h2m3 0h1m1 0h2m3 0h1m4 0h1m1 0h2m1 0h1m1 0h1m1 0h3m2 0h6m2 0h1m1 0h8m4 0h2m3 0h1m4 0h1m1 0h2m2 0h1m1 0h1m5 0h1m1 0h1m3 0h6m1 0h1m-172 1h2m2 0h1m3 0h7m1 0h2m4 0h2m2 0h4m3 0h1m2 0h3m1 0h2m1 0h1m1 0h2m4 0h2m5 0h1m1 0h1m1 0h2m1 0h1m1 0h1m1 0h2m3 0h5m3 0h2m4 0h5m1 0h1m1 0h1m3 0h2m1 0h2m2 0h2m3 0h1m3 0h2m1 0h3m1 0h1m2 0h1m4 0h3m3 0h2m5 0h1m1 0h1m1 0h2m4 0h1m1 0h1m2 0h1m1 0h2m4 0h1m2 0h1m-171 1h1m4 0h2m1 0h1m2 0h1m1 0h1m1 0h1m2 0h1m1 0h4m2 0h1m1 0h1m1 0h1m2 0h4m4 0h2m2 0h2m1 0h1m1 0h2m1 0h1m1 0h1m6 0h2m1 0h1m4 0h1m3 0h1m1 0h1m1 0h1m2 0h1m2 0h1m1 0h6m5 0h2m1 0h1m1 0h1m7 0h4m1 0h1m7 0h2m1 0h1m1 0h2m1 0h1m1 0h1m1 0h2m9 0h1m1 0h4m1 0h2m5 0h1m1 0h1m2 0h1m3 0h2m1 0h1m-173 1h1m2 0h1m3 0h1m1 0h1m1 0h2m2 0h2m1 0h1m1 0h1m1 0h3m2 0h2m1 0h1m1 0h2m1 0h3m3 0h1m1 0h2m1 0h3m1 0h1m1 0h2m1 0h4m1 0h1m5 0h2m1 0h1m1 0h2m1 0h1m1 0h3m9 0h5m2 0h3m1 0h2m5 0h1m7 0h1m1 0h5m1 0h1m2 0h5m1 0h1m1 0h3m3 0h2m1 0h2m3 0h2m1 0h1m1 0h1m1 0h2m1 0h1m2 0h1m3 0h1m1 0h3m-169 1h2m2 0h1m1 0h1m1 0h3m4 0h3m2 0h1m1 0h1m2 0h3m1 0h2m4 0h2m6 0h1m1 0h4m2 0h2m1 0h1m3 0h3m1 0h1m2 0h5m4 0h1m4 0h1m1 0h2m2 0h2m1 0h2m1 0h6m2 0h3m1 0h4m3 0h2m2 0h1m2 0h1m4 0h1m1 0h6m2 0h1m1 0h2m3 0h2m2 0h2m2 0h2m1 0h4m3 0h1m6 0h1m1 0h1m1 0h1m-168 1h2m1 0h1m2 0h1m1 0h1m3 0h1m1 0h1m2 0h1m1 0h1m4 0h2m2 0h7m1 0h6m4 0h7m2 0h1m1 0h1m1 0h4m1 0h1m1 0h3m1 0h2m3 0h1m1 0h1m4 0h2m1 0h1m1 0h2m2 0h1m2 0h4m2 0h1m6 0h1m3 0h1m2 0h2m2 0h2m2 0h1m1 0h2m2 0h1m1 0h3m3 0h2m1 0h3m3 0h2m2 0h1m4 0h3m4 0h1m6 0h4m-171 1h3m1 0h1m6 0h2m3 0h1m1 0h3m4 0h2m3 0h2m1 0h2m2 0h2m1 0h1m4 0h5m1 0h2m1 0h1m2 0h1m2 0h1m1 0h1m1 0h2m1 0h1m1 0h1m2 0h3m4 0h1m3 0h4m3 0h1m2 0h5m2 0h2m4 0h1m3 0h1m2 0h1m3 0h2m1 0h5m1 0h2m1 0h3m2 0h2m1 0h1m1 0h1m3 0h2m1 0h2m3 0h1m3 0h1m2 0h1m1 0h2m2 0h1m2 0h4m-172 1h3m1 0h1m2 0h1m2 0h1m1 0h2m1 0h1m1 0h1m3 0h1m1 0h2m2 0h2m1 0h6m2 0h2m1 0h5m1 0h2m5 0h1m1 0h2m1 0h1m1 0h1m1 0h1m1 0h1m3 0h1m1 0h2m2 0h1m6 0h4m1 0h1m2 0h1m1 0h3m2 0h2m5 0h1m1 0h1m2 0h3m3 0h3m1 0h1m1 0h4m1 0h2m1 0h1m2 0h1m5 0h2m1 0h1m2 0h1m3 0h1m2 0h1m1 0h4m2 0h1m3 0h1m1 0h1m2 0h1m-169 1h2m1 0h1m1 0h1m1 0h1m1 0h2m1 0h3m4 0h2m2 0h1m3 0h1m2 0h6m1 0h2m5 0h1m1 0h2m1 0h1m3 0h1m1 0h1m1 0h2m1 0h1m2 0h1m1 0h1m2 0h2m1 0h1m6 0h1m8 0h4m1 0h4m2 0h3m1 0h1m2 0h1m1 0h2m1 0h4m1 0h2m3 0h2m1 0h6m2 0h1m1 0h1m2 0h1m2 0h2m3 0h1m1 0h1m1 0h1m1 0h2m1 0h1m1 0h2m4 0h1m1 0h8m-172 1h1m1 0h1m2 0h1m1 0h1m2 0h1m2 0h1m1 0h1m1 0h1m1 0h3m1 0h2m1 0h4m3 0h1m2 0h3m1 0h3m6 0h2m2 0h1m1 0h1m1 0h2m1 0h3m6 0h7m2 0h3m1 0h1m5 0h2m4 0h3m1 0h4m5 0h3m2 0h1m3 0h1m2 0h2m2 0h1m2 0h1m4 0h4m1 0h1m3 0h2m1 0h3m2 0h1m1 0h2m1 0h1m1 0h1m1 0h1m1 0h1m1 0h1m2 0h2m1 0h1m2 0h1m1 0h1m-173 1h5m1 0h2m1 0h1m1 0h1m2 0h2m1 0h4m2 0h3m2 0h1m4 0h2m1 0h3m2 0h1m1 0h1m4 0h7m2 0h2m3 0h1m4 0h2m2 0h1m2 0h1m1 0h2m5 0h1m3 0h4m3 0h1m4 0h2m1 0h1m2 0h1m2 0h1m1 0h2m3 0h1m2 0h2m6 0h1m1 0h1m1 0h1m2 0h1m2 0h1m2 0h1m5 0h1m2 0h2m1 0h1m1 0h1m1 0h1m1 0h1m2 0h1m1 0h1m1 0h3m2 0h2m1 0h1m-173 1h1m2 0h1m1 0h1m2 0h1m2 0h1m1 0h5m1 0h2m1 0h1m1 0h1m1 0h3m1 0h1m1 0h1m1 0h4m3 0h1m1 0h1m2 0h1m2 0h1m5 0h1m1 0h3m1 0h1m1 0h1m1 0h1m5 0h1m1 0h1m2 0h4m1 0h2m3 0h1m1 0h1m2 0h3m1 0h1m1 0h1m4 0h1m7 0h2m2 0h1m3 0h3m1 0h1m4 0h4m3 0h1m2 0h1m2 0h1m1 0h1m2 0h1m1 0h3m2 0h3m1 0h2m1 0h1m4 0h1m1 0h2m3 0h2m-173 1h9m3 0h2m1 0h1m3 0h1m2 0h1m1 0h6m2 0h2m1 0h1m1 0h1m1 0h1m1 0h1m1 0h1m4 0h1m1 0h7m4 0h1m1 0h1m3 0h1m3 0h1m1 0h1m3 0h1m1 0h8m1 0h2m1 0h3m2 0h1m3 0h1m1 0h16m4 0h5m2 0h1m4 0h8m2 0h2m1 0h3m3 0h7m1 0h2m1 0h5m3 0h1m-172 1h1m1 0h2m3 0h1m4 0h2m1 0h2m1 0h1m1 0h2m1 0h1m3 0h4m3 0h1m2 0h1m1 0h1m1 0h2m1 0h1m1 0h1m1 0h4m3 0h1m1 0h1m1 0h3m3 0h2m1 0h1m2 0h2m2 0h5m3 0h3m1 0h1m7 0h1m1 0h2m1 0h1m2 0h1m1 0h1m1 0h1m3 0h1m1 0h1m1 0h1m2 0h2m5 0h3m2 0h4m1 0h1m3 0h1m1 0h1m1 0h1m1 0h2m1 0h1m3 0h4m1 0h3m1 0h3m3 0h3m-169 1h1m1 0h1m1 0h1m1 0h2m1 0h1m1 0h2m1 0h5m1 0h3m1 0h1m1 0h1m1 0h5m1 0h1m2 0h2m1 0h4m1 0h1m1 0h2m1 0h1m1 0h1m1 0h1m2 0h4m1 0h2m1 0h2m2 0h1m2 0h1m2 0h1m1 0h2m1 0h1m1 0h1m1 0h7m3 0h1m2 0h1m1 0h2m1 0h5m1 0h1m1 0h1m1 0h1m2 0h1m2 0h2m2 0h1m2 0h1m2 0h1m1 0h1m2 0h2m1 0h1m1 0h3m5 0h1m1 0h2m1 0h2m4 0h3m1 0h2m1 0h1m1 0h1m1 0h1m1 0h1m-173 1h1m1 0h3m3 0h1m1 0h1m1 0h2m1 0h2m7 0h1m3 0h1m1 0h1m1 0h1m1 0h1m3 0h2m2 0h2m3 0h3m1 0h2m3 0h1m1 0h1m6 0h1m1 0h2m1 0h1m2 0h1m3 0h4m3 0h3m4 0h2m1 0h1m1 0h2m2 0h2m2 0h3m1 0h1m3 0h5m1 0h1m2 0h3m2 0h1m1 0h1m1 0h1m5 0h1m3 0h1m1 0h1m2 0h1m2 0h1m5 0h1m1 0h2m1 0h1m3 0h2m3 0h2m2 0h1m-173 1h2m2 0h6m1 0h1m1 0h1m7 0h2m1 0h5m1 0h2m2 0h3m2 0h2m2 0h1m1 0h3m2 0h7m2 0h1m2 0h2m2 0h2m2 0h1m3 0h1m4 0h9m1 0h3m3 0h1m1 0h2m1 0h1m1 0h1m1 0h2m2 0h6m1 0h3m4 0h1m2 0h2m2 0h1m4 0h1m1 0h5m3 0h4m5 0h6m1 0h3m1 0h5m1 0h1m1 0h1m-173 1h3m1 0h2m3 0h1m2 0h1m4 0h2m1 0h1m1 0h2m1 0h2m7 0h1m1 0h1m1 0h4m1 0h1m1 0h2m2 0h4m1 0h1m3 0h1m2 0h2m3 0h2m1 0h5m1 0h3m1 0h1m3 0h1m1 0h1m1 0h2m3 0h3m2 0h1m2 0h1m3 0h2m1 0h3m2 0h1m1 0h1m1 0h1m2 0h3m1 0h1m1 0h1m2 0h6m2 0h2m1 0h4m1 0h3m1 0h1m4 0h5m1 0h1m3 0h1m2 0h2m1 0h1m1 0h2m-172 1h1m2 0h3m2 0h1m1 0h3m1 0h1m2 0h1m1 0h2m2 0h2m1 0h1m1 0h2m2 0h1m1 0h1m2 0h1m9 0h3m3 0h5m2 0h1m2 0h2m1 0h2m1 0h1m1 0h1m2 0h2m2 0h1m3 0h1m1 0h2m1 0h4m1 0h1m1 0h1m1 0h5m3 0h2m2 0h3m2 0h2m2 0h2m2 0h1m1 0h1m1 0h1m2 0h2m1 0h3m2 0h1m2 0h2m3 0h2m1 0h1m4 0h2m3 0h1m1 0h1m3 0h2m2 0h2m1 0h2m-172 1h1m2 0h1m3 0h2m3 0h8m1 0h1m3 0h5m1 0h5m1 0h1m1 0h1m1 0h2m1 0h1m1 0h3m3 0h3m1 0h1m1 0h4m1 0h1m1 0h1m2 0h2m1 0h2m3 0h1m1 0h3m1 0h4m3 0h1m1 0h1m1 0h1m1 0h1m3 0h2m2 0h2m1 0h2m1 0h2m1 0h2m4 0h1m3 0h1m4 0h1m6 0h5m2 0h4m8 0h2m1 0h1m2 0h1m3 0h2m1 0h1m1 0h1m2 0h1m-173 1h2m3 0h3m1 0h1m2 0h1m1 0h3m6 0h2m1 0h3m1 0h3m2 0h1m7 0h3m4 0h6m2 0h3m1 0h2m1 0h2m3 0h1m6 0h3m1 0h3m2 0h1m4 0h1m1 0h1m1 0h1m3 0h4m1 0h1m3 0h1m4 0h1m1 0h3m4 0h5m2 0h1m1 0h2m1 0h1m1 0h1m1 0h1m2 0h1m2 0h4m2 0h2m2 0h1m3 0h1m1 0h1m8 0h2m1 0h1m-170 1h1m3 0h2m1 0h2m3 0h1m3 0h1m1 0h2m1 0h3m1 0h1m1 0h4m1 0h1m1 0h2m4 0h3m2 0h3m3 0h1m2 0h2m1 0h1m1 0h1m3 0h5m4 0h4m2 0h3m1 0h6m1 0h2m1 0h2m2 0h1m3 0h1m1 0h1m2 0h1m2 0h2m1 0h1m1 0h1m1 0h4m1 0h1m1 0h9m1 0h3m2 0h2m2 0h2m1 0h1m9 0h2m3 0h5m2 0h4m-172 1h2m3 0h4m3 0h1m2 0h2m4 0h4m1 0h2m2 0h5m1 0h4m1 0h1m2 0h1m1 0h3m4 0h1m5 0h1m4 0h2m2 0h2m1 0h1m1 0h1m1 0h1m1 0h1m1 0h4m3 0h1m2 0h2m1 0h1m1 0h9m1 0h1m2 0h2m2 0h1m1 0h1m2 0h2m2 0h2m1 0h3m2 0h1m1 0h3m3 0h1m2 0h1m4 0h1m2 0h1m5 0h1m2 0h2m1 0h2m1 0h2m2 0h2m1 0h3m-173 1h5m2 0h1m6 0h1m1 0h1m7 0h1m2 0h2m2 0h1m2 0h2m6 0h5m3 0h1m2 0h3m2 0h3m4 0h3m1 0h2m2 0h4m2 0h1m2 0h1m1 0h1m3 0h2m1 0h3m1 0h3m1 0h1m3 0h1m1 0h1m1 0h1m3 0h5m1 0h3m4 0h2m2 0h1m1 0h3m1 0h6m2 0h1m5 0h1m4 0h4m3 0h1m3 0h3m2 0h1m-170 1h1m3 0h1m1 0h2m3 0h1m1 0h2m4 0h2m1 0h3m6 0h3m1 0h1m1 0h7m1 0h3m3 0h5m2 0h1m1 0h2m2 0h2m2 0h1m1 0h1m2 0h2m1 0h4m1 0h3m1 0h1m5 0h1m3 0h1m1 0h1m1 0h3m1 0h1m5 0h2m1 0h2m3 0h1m1 0h2m1 0h1m1 0h4m1 0h1m4 0h5m3 0h1m4 0h1m2 0h2m1 0h1m6 0h1m2 0h1m1 0h1m2 0h1m1 0h2m-172 1h1m1 0h1m2 0h1m1 0h1m2 0h2m1 0h1m1 0h1m2 0h1m3 0h4m3 0h1m1 0h1m3 0h1m2 0h1m4 0h2m1 0h1m1 0h3m1 0h1m5 0h1m1 0h2m5 0h2m2 0h1m1 0h5m1 0h3m1 0h1m1 0h1m3 0h6m1 0h3m1 0h1m1 0h1m1 0h3m3 0h3m1 0h4m1 0h3m1 0h1m2 0h1m1 0h2m1 0h3m6 0h1m4 0h2m1 0h1m2 0h1m3 0h1m2 0h2m1 0h11m-171 1h3m1 0h3m1 0h2m1 0h1m2 0h1m3 0h1m1 0h1m1 0h2m1 0h1m4 0h5m3 0h4m4 0h1m1 0h3m1 0h3m1 0h1m5 0h4m1 0h1m1 0h1m2 0h2m1 0h2m2 0h2m1 0h1m3 0h1m1 0h2m1 0h5m1 0h2m2 0h2m1 0h1m4 0h2m2 0h3m2 0h2m1 0h1m1 0h1m3 0h1m1 0h2m1 0h2m4 0h2m5 0h1m1 0h4m2 0h2m4 0h1m1 0h1m1 0h1m1 0h1m1 0h3m1 0h1m-169 1h1m2 0h1m1 0h1m2 0h1m1 0h3m2 0h1m1 0h2m1 0h1m2 0h4m1 0h1m1 0h1m4 0h1m1 0h1m2 0h2m1 0h3m2 0h2m3 0h2m1 0h1m1 0h5m1 0h2m3 0h5m6 0h1m1 0h1m1 0h1m1 0h3m5 0h1m1 0h1m2 0h1m2 0h3m4 0h2m2 0h4m1 0h3m1 0h1m2 0h3m3 0h4m3 0h1m2 0h1m2 0h1m2 0h1m1 0h2m2 0h1m2 0h1m5 0h1m2 0h1m1 0h2m-173 1h1m1 0h2m2 0h2m1 0h1m1 0h1m2 0h2m1 0h1m2 0h2m1 0h2m2 0h1m2 0h3m3 0h5m8 0h1m1 0h1m3 0h2m1 0h3m1 0h2m6 0h1m5 0h1m1 0h1m2 0h3m2 0h1m2 0h5m1 0h1m1 0h2m1 0h1m1 0h1m8 0h3m3 0h1m2 0h4m1 0h5m4 0h6m5 0h3m1 0h5m4 0h1m4 0h3m1 0h4m1 0h1m-172 1h3m1 0h1m2 0h1m5 0h2m3 0h2m2 0h2m1 0h4m1 0h1m2 0h2m2 0h6m1 0h3m1 0h2m4 0h1m2 0h6m1 0h1m1 0h1m2 0h2m2 0h3m1 0h3m2 0h1m1 0h4m3 0h1m5 0h1m2 0h2m1 0h2m1 0h1m1 0h3m2 0h1m1 0h1m1 0h3m5 0h1m1 0h1m2 0h3m1 0h3m3 0h1m2 0h2m2 0h1m2 0h1m4 0h4m4 0h1m1 0h1m1 0h2m-167 1h1m1 0h3m1 0h1m1 0h2m2 0h1m1 0h5m1 0h5m1 0h1m1 0h2m1 0h1m4 0h1m1 0h1m5 0h3m1 0h2m2 0h1m2 0h1m3 0h1m1 0h3m1 0h1m1 0h4m2 0h1m3 0h1m1 0h2m1 0h1m2 0h3m2 0h5m1 0h1m2 0h1m4 0h3m2 0h1m1 0h4m2 0h1m3 0h1m2 0h4m1 0h1m1 0h1m3 0h1m1 0h1m5 0h1m1 0h4m2 0h1m2 0h1m2 0h3m1 0h5m3 0h1m-173 1h1m1 0h1m2 0h1m1 0h2m1 0h1m3 0h3m2 0h4m1 0h1m1 0h3m3 0h3m1 0h2m1 0h1m1 0h2m2 0h2m1 0h1m2 0h2m2 0h1m1 0h1m3 0h2m1 0h3m1 0h2m5 0h7m2 0h3m1 0h1m2 0h1m2 0h1m1 0h1m2 0h1m1 0h3m1 0h3m2 0h1m2 0h2m2 0h1m1 0h1m2 0h3m1 0h1m2 0h1m1 0h1m2 0h6m2 0h1m2 0h1m2 0h1m3 0h3m1 0h2m1 0h2m3 0h2m3 0h1m1 0h1m-171 1h2m2 0h2m1 0h1m1 0h1m1 0h1m1 0h1m1 0h1m1 0h3m2 0h2m1 0h1m1 0h1m2 0h3m2 0h1m2 0h2m1 0h2m4 0h1m1 0h5m2 0h2m1 0h1m1 0h3m1 0h2m1 0h2m1 0h2m2 0h1m3 0h1m2 0h1m2 0h4m1 0h3m1 0h1m1 0h5m6 0h1m4 0h1m3 0h1m4 0h2m2 0h2m1 0h1m4 0h5m6 0h2m1 0h1m1 0h1m2 0h1m2 0h1m1 0h2m1 0h5m4 0h1m-170 1h2m1 0h1m3 0h1m1 0h1m1 0h3m2 0h1m2 0h1m2 0h3m1 0h1m1 0h3m1 0h3m5 0h1m1 0h2m1 0h2m1 0h3m2 0h1m1 0h1m3 0h3m1 0h3m2 0h2m1 0h5m6 0h1m2 0h1m1 0h1m6 0h1m1 0h4m3 0h1m3 0h1m1 0h1m1 0h1m1 0h4m1 0h3m3 0h1m2 0h2m1 0h2m1 0h1m5 0h2m2 0h3m3 0h2m4 0h2m1 0h2m1 0h1m1 0h3m1 0h2m-169 1h2m1 0h3m2 0h1m2 0h2m1 0h1m2 0h3m2 0h2m4 0h1m1 0h2m1 0h6m1 0h1m5 0h1m4 0h2m1 0h1m3 0h2m1 0h3m3 0h4m1 0h1m2 0h3m1 0h4m2 0h2m1 0h1m1 0h1m2 0h5m1 0h3m1 0h9m1 0h5m5 0h3m1 0h1m3 0h1m1 0h1m10 0h2m1 0h4m2 0h1m2 0h1m1 0h2m1 0h1m1 0h1m1 0h1m1 0h1m3 0h1m-171 1h1m2 0h1m4 0h1m1 0h2m2 0h2m1 0h1m1 0h1m2 0h1m1 0h2m2 0h1m1 0h3m1 0h1m1 0h1m4 0h2m3 0h4m5 0h1m1 0h5m1 0h1m2 0h4m1 0h4m2 0h2m1 0h1m1 0h2m2 0h2m4 0h6m2 0h2m1 0h4m1 0h2m1 0h1m4 0h1m3 0h4m3 0h2m1 0h1m1 0h6m2 0h1m1 0h2m2 0h1m2 0h1m1 0h2m1 0h2m6 0h1m1 0h1m2 0h1m1 0h2m-172 1h3m1 0h2m1 0h1m1 0h1m3 0h3m1 0h1m1 0h1m1 0h6m1 0h1m1 0h3m1 0h2m1 0h2m1 0h1m5 0h1m5 0h2m3 0h1m3 0h3m1 0h3m1 0h1m3 0h1m1 0h1m2 0h2m2 0h2m1 0h2m1 0h3m3 0h2m1 0h3m2 0h2m2 0h2m3 0h1m3 0h2m4 0h2m1 0h2m1 0h2m2 0h1m1 0h2m1 0h2m3 0h1m1 0h2m1 0h1m1 0h1m3 0h1m2 0h3m2 0h2m1 0h2m6 0h1m-173 1h1m3 0h2m4 0h3m2 0h1m2 0h2m2 0h4m3 0h1m1 0h1m1 0h3m1 0h2m3 0h1m1 0h2m2 0h2m2 0h1m1 0h1m2 0h6m2 0h1m2 0h1m2 0h1m3 0h3m1 0h1m2 0h1m1 0h3m2 0h6m1 0h2m2 0h4m3 0h2m7 0h1m1 0h3m5 0h1m1 0h1m1 0h5m1 0h2m2 0h3m2 0h1m2 0h4m4 0h2m1 0h1m6 0h4m1 0h2m-173 1h2m1 0h1m1 0h2m1 0h2m1 0h2m4 0h2m1 0h10m1 0h4m6 0h1m1 0h1m1 0h4m1 0h1m1 0h1m2 0h1m1 0h4m1 0h4m1 0h2m1 0h1m3 0h1m1 0h2m1 0h2m1 0h3m1 0h1m2 0h2m2 0h1m1 0h1m2 0h2m2 0h1m1 0h4m2 0h2m1 0h1m2 0h3m1 0h3m1 0h2m1 0h1m1 0h1m1 0h1m2 0h1m1 0h1m1 0h1m2 0h1m3 0h1m2 0h1m1 0h2m2 0h1m2 0h1m2 0h1m1 0h1m1 0h1m1 0h3m3 0h1m-173 1h2m3 0h1m1 0h1m2 0h3m1 0h1m1 0h1m2 0h3m1 0h1m1 0h6m1 0h2m2 0h1m2 0h1m4 0h4m2 0h6m4 0h5m1 0h1m2 0h1m1 0h2m1 0h2m1 0h1m1 0h1m5 0h1m2 0h2m4 0h1m1 0h2m1 0h1m2 0h2m1 0h2m3 0h1m2 0h1m2 0h3m3 0h3m1 0h2m2 0h2m2 0h4m1 0h1m1 0h5m1 0h2m3 0h3m1 0h2m1 0h1m5 0h1m3 0h1m1 0h2m-173 1h2m2 0h6m1 0h8m1 0h1m1 0h7m1 0h3m2 0h2m3 0h2m4 0h1m2 0h8m2 0h1m2 0h2m3 0h3m3 0h2m1 0h1m3 0h9m1 0h2m4 0h2m4 0h1m5 0h5m4 0h1m2 0h1m1 0h2m1 0h3m1 0h1m1 0h2m1 0h9m1 0h1m1 0h2m2 0h1m2 0h1m1 0h2m1 0h1m1 0h1m1 0h1m1 0h7m1 0h1m-173 1h2m2 0h1m3 0h2m1 0h4m1 0h5m3 0h1m3 0h1m2 0h1m2 0h2m2 0h3m2 0h1m1 0h2m1 0h1m2 0h2m3 0h3m2 0h2m4 0h2m1 0h2m1 0h1m1 0h1m1 0h1m2 0h1m3 0h3m2 0h1m1 0h2m1 0h1m2 0h6m5 0h1m3 0h5m1 0h4m4 0h1m1 0h1m1 0h3m1 0h1m1 0h1m3 0h2m1 0h4m1 0h1m1 0h1m2 0h1m3 0h1m5 0h2m3 0h4m-172 1h5m1 0h1m1 0h2m6 0h1m1 0h1m2 0h4m1 0h1m1 0h1m1 0h1m1 0h1m1 0h2m1 0h2m1 0h3m2 0h1m1 0h3m2 0h1m1 0h1m1 0h1m1 0h2m2 0h3m1 0h1m3 0h1m4 0h1m1 0h4m1 0h1m1 0h1m1 0h3m2 0h1m1 0h2m2 0h2m2 0h1m2 0h5m1 0h1m1 0h1m1 0h1m1 0h1m1 0h1m3 0h1m1 0h4m2 0h3m2 0h2m1 0h1m1 0h1m5 0h1m1 0h1m2 0h1m1 0h2m3 0h1m1 0h1m2 0h2m1 0h1m1 0h1m1 0h1m1 0h1m-170 1h2m3 0h1m1 0h4m3 0h1m2 0h1m2 0h2m3 0h3m3 0h2m1 0h1m1 0h2m1 0h1m3 0h2m1 0h1m1 0h2m3 0h1m1 0h6m2 0h1m2 0h2m1 0h1m1 0h1m5 0h1m3 0h4m2 0h1m1 0h5m3 0h1m2 0h4m1 0h1m3 0h1m1 0h1m4 0h1m3 0h2m3 0h1m1 0h3m3 0h1m3 0h1m1 0h1m2 0h1m1 0h2m3 0h1m1 0h1m1 0h1m2 0h2m3 0h1m3 0h2m1 0h2m-173 1h1m3 0h6m2 0h2m2 0h1m1 0h1m1 0h1m3 0h7m1 0h2m2 0h1m5 0h1m1 0h2m1 0h10m6 0h2m2 0h2m8 0h1m1 0h6m2 0h1m2 0h1m6 0h5m2 0h1m3 0h5m1 0h1m1 0h2m1 0h1m2 0h2m1 0h3m1 0h1m2 0h1m1 0h7m1 0h1m2 0h1m3 0h2m1 0h5m2 0h1m2 0h9m1 0h1m-173 1h1m1 0h2m1 0h1m1 0h1m1 0h1m2 0h1m1 0h1m2 0h2m2 0h1m1 0h3m3 0h2m1 0h1m1 0h3m1 0h11m1 0h1m1 0h1m2 0h1m2 0h1m2 0h2m1 0h1m2 0h1m1 0h2m3 0h1m1 0h1m2 0h4m2 0h3m1 0h4m1 0h3m1 0h1m3 0h3m3 0h1m3 0h1m1 0h1m1 0h1m1 0h4m4 0h1m1 0h2m1 0h4m2 0h2m2 0h1m3 0h2m1 0h3m2 0h1m1 0h1m2 0h1m5 0h2m1 0h3m-169 1h1m1 0h5m1 0h1m2 0h1m2 0h1m1 0h2m2 0h1m2 0h1m1 0h3m1 0h1m2 0h6m1 0h1m1 0h3m5 0h6m2 0h3m1 0h1m1 0h2m3 0h6m2 0h4m2 0h2m1 0h3m2 0h1m1 0h2m1 0h1m1 0h2m2 0h1m2 0h9m2 0h2m1 0h1m4 0h3m2 0h6m1 0h1m1 0h1m6 0h2m1 0h1m2 0h1m2 0h1m3 0h1m1 0h2m1 0h2m3 0h1m3 0h1m-173 1h1m3 0h1m2 0h1m2 0h3m1 0h2m6 0h1m1 0h4m1 0h1m1 0h1m1 0h2m1 0h1m1 0h9m1 0h2m1 0h4m2 0h7m2 0h2m1 0h3m1 0h2m5 0h5m1 0h6m2 0h1m1 0h1m1 0h3m2 0h1m6 0h5m1 0h3m1 0h2m1 0h2m2 0h3m1 0h5m1 0h1m2 0h1m1 0h1m1 0h2m1 0h2m2 0h1m1 0h2m1 0h2m2 0h1m4 0h5m-170 1h4m1 0h2m1 0h2m4 0h2m5 0h1m1 0h1m3 0h1m1 0h1m5 0h1m3 0h2m1 0h2m3 0h1m3 0h1m2 0h5m1 0h1m1 0h1m2 0h3m1 0h1m1 0h3m3 0h1m1 0h2m1 0h1m2 0h1m2 0h1m2 0h4m1 0h1m4 0h1m4 0h2m1 0h1m1 0h1m2 0h4m2 0h1m1 0h1m1 0h3m1 0h2m1 0h2m1 0h3m3 0h1m1 0h1m1 0h3m1 0h1m1 0h2m1 0h2m1 0h1m1 0h1m1 0h1m1 0h2m2 0h3m1 0h1m-170 1h5m2 0h2m4 0h2m1 0h1m1 0h1m2 0h2m3 0h1m5 0h3m1 0h2m2 0h1m1 0h2m1 0h1m1 0h2m1 0h1m1 0h2m2 0h6m1 0h5m2 0h1m1 0h1m2 0h1m1 0h1m3 0h1m1 0h6m2 0h1m3 0h1m2 0h1m4 0h1m1 0h1m6 0h2m1 0h1m1 0h3m2 0h1m2 0h1m1 0h1m1 0h4m1 0h1m1 0h2m5 0h2m8 0h1m5 0h3m1 0h2m1 0h1m2 0h2m-172 1h1m1 0h1m3 0h4m2 0h2m2 0h2m3 0h2m2 0h1m1 0h3m2 0h3m2 0h3m1 0h2m2 0h4m1 0h1m1 0h2m1 0h1m2 0h2m2 0h2m1 0h4m2 0h6m3 0h2m2 0h2m2 0h1m2 0h1m2 0h2m1 0h2m1 0h1m3 0h1m1 0h1m1 0h3m1 0h2m8 0h2m4 0h5m2 0h2m1 0h2m1 0h1m3 0h1m2 0h1m2 0h1m2 0h1m3 0h1m1 0h1m3 0h2m1 0h1m1 0h2m1 0h1m-173 1h2m2 0h1m3 0h1m1 0h1m1 0h3m2 0h3m2 0h1m1 0h2m2 0h3m1 0h2m1 0h1m1 0h1m1 0h8m4 0h2m1 0h1m2 0h2m1 0h4m2 0h5m2 0h1m3 0h2m2 0h1m1 0h1m1 0h3m1 0h2m2 0h2m3 0h1m2 0h3m2 0h1m1 0h1m1 0h4m1 0h1m1 0h1m1 0h1m1 0h1m1 0h2m1 0h1m4 0h4m1 0h1m2 0h1m2 0h4m1 0h1m4 0h1m1 0h4m2 0h1m2 0h2m1 0h3m2 0h1m-169 1h1m2 0h4m1 0h2m1 0h2m1 0h2m3 0h1m2 0h2m1 0h4m1 0h4m2 0h1m1 0h1m4 0h4m1 0h1m3 0h2m1 0h3m1 0h1m2 0h1m3 0h1m1 0h2m1 0h1m1 0h1m1 0h1m2 0h2m2 0h2m1 0h2m1 0h3m1 0h3m4 0h2m1 0h2m2 0h1m5 0h1m1 0h1m2 0h1m1 0h1m2 0h5m4 0h1m1 0h1m3 0h2m3 0h2m1 0h1m3 0h1m3 0h2m2 0h1m2 0h2m1 0h3m-168 1h2m1 0h2m1 0h1m1 0h1m1 0h1m3 0h1m1 0h3m1 0h1m1 0h1m1 0h1m1 0h4m1 0h1m1 0h1m1 0h3m1 0h2m1 0h4m1 0h7m1 0h2m1 0h2m1 0h2m2 0h1m1 0h1m1 0h1m1 0h1m5 0h1m6 0h1m1 0h1m2 0h1m1 0h1m3 0h1m3 0h1m2 0h5m3 0h3m2 0h1m1 0h4m1 0h1m1 0h1m2 0h1m2 0h3m1 0h1m2 0h2m1 0h1m2 0h2m3 0h2m4 0h2m3 0h3m1 0h2m1 0h3m-169 1h1m3 0h8m2 0h1m1 0h2m4 0h2m3 0h1m4 0h1m1 0h1m1 0h1m1 0h4m1 0h2m8 0h2m2 0h2m1 0h4m2 0h3m3 0h1m1 0h3m2 0h4m6 0h3m2 0h3m2 0h1m8 0h3m1 0h1m1 0h3m1 0h1m1 0h1m2 0h1m4 0h3m4 0h1m1 0h3m4 0h1m2 0h1m8 0h2m1 0h1m1 0h1m1 0h1m2 0h1m1 0h1m2 0h1m-172 1h1m2 0h1m2 0h2m1 0h1m1 0h1m1 0h1m2 0h3m1 0h3m2 0h1m1 0h1m1 0h1m1 0h2m1 0h1m3 0h1m1 0h1m1 0h4m5 0h1m1 0h2m1 0h1m2 0h4m2 0h2m2 0h2m1 0h4m3 0h1m3 0h2m1 0h1m2 0h1m2 0h1m1 0h2m1 0h1m1 0h4m1 0h3m2 0h1m2 0h1m1 0h2m1 0h1m1 0h2m1 0h2m1 0h2m1 0h1m2 0h1m3 0h1m5 0h4m6 0h1m1 0h2m1 0h1m1 0h2m3 0h3m1 0h1m3 0h1m-173 1h2m1 0h2m1 0h6m1 0h1m1 0h3m3 0h3m2 0h1m1 0h1m1 0h4m1 0h2m3 0h1m1 0h2m3 0h4m1 0h1m2 0h1m1 0h1m2 0h4m1 0h1m4 0h7m1 0h1m3 0h1m3 0h2m1 0h1m6 0h3m4 0h2m1 0h1m3 0h2m1 0h3m1 0h1m2 0h1m1 0h1m1 0h3m1 0h2m4 0h1m1 0h1m1 0h1m1 0h2m2 0h2m1 0h1m3 0h2m1 0h1m2 0h1m1 0h5m2 0h3m3 0h1m-172 1h1m2 0h2m2 0h1m3 0h1m2 0h2m2 0h1m2 0h3m1 0h3m1 0h1m1 0h1m1 0h1m1 0h1m2 0h1m1 0h1m4 0h1m1 0h1m4 0h2m2 0h3m1 0h1m2 0h2m2 0h2m2 0h1m2 0h1m4 0h3m5 0h2m1 0h2m1 0h1m4 0h1m1 0h1m1 0h2m1 0h2m2 0h1m1 0h2m2 0h1m2 0h3m1 0h1m4 0h1m1 0h4m1 0h1m1 0h4m2 0h1m1 0h1m3 0h3m1 0h1m2 0h1m4 0h2m1 0h2m5 0h1m-172 1h1m1 0h5m1 0h1m1 0h1m1 0h1m2 0h1m1 0h1m6 0h1m1 0h1m1 0h2m1 0h1m1 0h1m1 0h1m6 0h3m5 0h3m3 0h1m3 0h3m4 0h1m4 0h1m3 0h2m1 0h1m1 0h1m1 0h1m3 0h4m1 0h1m5 0h1m1 0h7m1 0h6m7 0h1m2 0h1m2 0h1m1 0h1m1 0h2m1 0h1m1 0h3m1 0h1m2 0h1m1 0h1m2 0h1m2 0h1m2 0h1m3 0h1m1 0h1m1 0h2m3 0h1m1 0h1m2 0h1m-173 1h6m1 0h1m1 0h2m1 0h1m1 0h1m2 0h1m1 0h1m2 0h2m2 0h1m1 0h1m1 0h1m5 0h1m4 0h1m3 0h4m1 0h1m1 0h1m2 0h1m2 0h3m2 0h1m1 0h1m6 0h2m3 0h1m1 0h2m1 0h2m1 0h1m3 0h2m1 0h1m1 0h1m1 0h1m1 0h1m2 0h1m3 0h5m1 0h1m1 0h4m2 0h3m1 0h2m1 0h1m1 0h2m4 0h1m1 0h2m1 0h1m1 0h2m2 0h1m1 0h2m2 0h2m1 0h2m1 0h2m5 0h3m1 0h2m1 0h1m-166 1h1m3 0h1m1 0h1m1 0h1m1 0h1m1 0h1m2 0h1m6 0h1m3 0h1m3 0h1m3 0h1m1 0h1m7 0h3m4 0h2m1 0h2m6 0h1m3 0h4m2 0h2m1 0h2m3 0h2m1 0h2m1 0h2m1 0h1m2 0h6m4 0h2m2 0h1m1 0h4m3 0h3m1 0h2m2 0h1m4 0h1m1 0h1m1 0h1m1 0h3m2 0h2m2 0h2m2 0h2m2 0h2m6 0h1m1 0h4m-171 1h1m1 0h2m3 0h7m1 0h2m2 0h1m2 0h1m3 0h10m4 0h1m1 0h1m1 0h1m4 0h1m2 0h1m3 0h1m2 0h3m1 0h1m1 0h1m1 0h2m2 0h1m1 0h3m3 0h1m4 0h1m3 0h3m1 0h1m1 0h2m3 0h1m1 0h1m3 0h2m4 0h2m1 0h1m1 0h1m1 0h3m2 0h1m4 0h2m1 0h2m1 0h2m1 0h2m3 0h1m1 0h3m1 0h3m3 0h1m1 0h1m2 0h2m2 0h3m4 0h3m-169 1h3m1 0h1m2 0h2m10 0h2m1 0h1m1 0h2m4 0h3m1 0h1m7 0h3m1 0h1m2 0h1m4 0h1m1 0h4m2 0h3m1 0h1m1 0h5m1 0h1m1 0h2m2 0h1m1 0h1m2 0h1m1 0h1m1 0h1m1 0h1m1 0h4m4 0h1m1 0h2m4 0h1m1 0h1m1 0h3m4 0h6m1 0h1m1 0h1m1 0h2m1 0h2m2 0h1m3 0h1m1 0h1m1 0h2m1 0h1m4 0h3m3 0h2m4 0h3m-172 1h1m1 0h1m1 0h1m1 0h2m2 0h1m1 0h2m1 0h1m2 0h1m2 0h1m2 0h1m2 0h1m1 0h1m1 0h2m1 0h4m1 0h1m1 0h2m1 0h6m1 0h1m3 0h2m2 0h3m2 0h3m1 0h2m1 0h1m3 0h4m4 0h2m1 0h1m2 0h1m1 0h1m1 0h1m1 0h1m4 0h1m3 0h2m1 0h3m5 0h3m1 0h1m1 0h1m7 0h1m1 0h3m2 0h3m2 0h1m1 0h2m8 0h2m1 0h3m4 0h6m-170 1h1m1 0h1m1 0h3m2 0h1m1 0h1m1 0h1m4 0h1m3 0h4m2 0h4m2 0h3m1 0h4m1 0h1m2 0h4m3 0h2m3 0h1m1 0h1m3 0h1m1 0h3m3 0h2m1 0h7m1 0h1m2 0h1m1 0h2m3 0h1m3 0h1m2 0h1m2 0h1m4 0h1m2 0h2m2 0h3m2 0h1m1 0h5m2 0h1m4 0h3m1 0h1m1 0h1m3 0h4m4 0h2m3 0h2m4 0h1m1 0h5m1 0h1m-172 1h1m2 0h1m3 0h1m2 0h8m2 0h1m1 0h3m1 0h4m1 0h1m1 0h1m1 0h1m1 0h2m1 0h2m1 0h1m2 0h1m5 0h1m1 0h1m1 0h1m1 0h1m1 0h4m2 0h2m1 0h3m2 0h1m1 0h3m1 0h2m1 0h1m3 0h1m1 0h4m1 0h1m1 0h1m3 0h1m2 0h2m2 0h1m2 0h1m3 0h1m1 0h2m1 0h1m1 0h1m1 0h1m2 0h1m1 0h1m2 0h3m1 0h1m1 0h3m4 0h3m1 0h3m2 0h2m1 0h1m3 0h3m1 0h2m5 0h2m-171 1h1m2 0h2m1 0h4m1 0h1m1 0h2m1 0h1m1 0h6m2 0h1m1 0h2m1 0h4m4 0h2m3 0h1m1 0h1m1 0h2m1 0h1m1 0h1m5 0h3m3 0h2m1 0h1m1 0h1m1 0h2m2 0h2m1 0h2m3 0h1m1 0h4m5 0h2m1 0h1m5 0h1m5 0h2m1 0h1m3 0h2m5 0h2m1 0h1m1 0h1m1 0h1m1 0h2m1 0h3m4 0h1m2 0h1m2 0h1m1 0h2m3 0h1m1 0h1m1 0h1m2 0h1m1 0h1m4 0h1m-172 1h1m2 0h2m4 0h3m2 0h2m1 0h1m3 0h1m2 0h1m1 0h2m1 0h1m2 0h1m1 0h1m1 0h1m3 0h1m1 0h2m2 0h2m4 0h1m1 0h1m1 0h1m2 0h1m1 0h1m2 0h1m1 0h1m1 0h1m2 0h1m1 0h7m1 0h2m3 0h1m1 0h4m2 0h8m5 0h2m3 0h1m2 0h3m1 0h1m1 0h1m1 0h4m1 0h1m1 0h1m1 0h3m2 0h1m3 0h2m1 0h1m1 0h2m3 0h1m1 0h2m1 0h4m3 0h1m3 0h2m1 0h1m-168 1h6m3 0h1m1 0h1m1 0h1m1 0h2m1 0h1m1 0h9m2 0h2m6 0h1m2 0h3m2 0h7m1 0h3m4 0h2m1 0h1m2 0h1m1 0h2m3 0h8m1 0h2m1 0h14m3 0h7m2 0h1m2 0h1m1 0h1m2 0h5m2 0h1m1 0h7m2 0h12m2 0h2m1 0h1m3 0h7m-169 1h3m3 0h1m5 0h1m1 0h1m1 0h2m3 0h2m3 0h3m1 0h3m2 0h6m3 0h5m1 0h1m3 0h2m2 0h1m2 0h1m2 0h1m2 0h1m1 0h1m3 0h2m1 0h1m1 0h1m3 0h1m1 0h4m2 0h1m2 0h4m9 0h1m3 0h5m2 0h1m3 0h1m1 0h2m1 0h2m1 0h3m1 0h2m3 0h3m2 0h3m1 0h1m5 0h2m5 0h3m3 0h4m-172 1h5m1 0h1m1 0h1m6 0h1m2 0h1m2 0h2m1 0h1m1 0h1m1 0h1m2 0h1m1 0h1m5 0h2m1 0h1m3 0h4m1 0h2m1 0h1m1 0h1m1 0h2m1 0h1m2 0h1m2 0h1m1 0h1m2 0h1m1 0h2m4 0h1m1 0h1m1 0h3m1 0h1m3 0h1m2 0h2m2 0h1m2 0h2m4 0h1m1 0h1m1 0h1m1 0h2m3 0h2m1 0h1m1 0h3m2 0h1m1 0h3m2 0h1m1 0h1m1 0h2m3 0h1m2 0h2m8 0h1m1 0h1m1 0h3m1 0h1m1 0h2m2 0h1m-173 1h1m2 0h2m3 0h1m2 0h1m1 0h2m1 0h1m1 0h1m3 0h3m3 0h2m3 0h2m1 0h1m2 0h2m1 0h3m1 0h1m1 0h3m1 0h1m3 0h1m3 0h1m3 0h2m1 0h2m1 0h1m1 0h2m1 0h2m3 0h1m3 0h4m3 0h1m1 0h3m1 0h1m1 0h1m1 0h1m3 0h4m3 0h2m2 0h3m1 0h1m1 0h1m2 0h1m1 0h1m2 0h1m2 0h1m1 0h2m3 0h1m1 0h1m2 0h1m6 0h1m1 0h5m1 0h1m3 0h1m3 0h1m2 0h1m-172 1h1m1 0h1m1 0h6m1 0h1m4 0h1m4 0h1m1 0h6m3 0h3m1 0h1m1 0h2m5 0h5m1 0h6m1 0h2m1 0h1m2 0h1m1 0h1m2 0h2m1 0h1m7 0h5m2 0h5m1 0h4m1 0h4m1 0h1m2 0h9m1 0h2m2 0h3m2 0h5m2 0h1m1 0h1m1 0h6m4 0h2m3 0h2m3 0h3m1 0h1m1 0h1m1 0h5m1 0h1m1 0h1m-172 1h1m1 0h1m1 0h1m1 0h1m2 0h1m4 0h1m1 0h1m1 0h3m1 0h3m2 0h2m3 0h1m1 0h4m1 0h3m2 0h2m3 0h2m2 0h2m4 0h1m5 0h2m1 0h3m1 0h2m1 0h1m1 0h1m3 0h1m1 0h1m2 0h1m1 0h1m4 0h3m1 0h4m4 0h1m4 0h1m4 0h1m2 0h1m3 0h1m2 0h1m1 0h1m2 0h4m3 0h1m1 0h2m1 0h3m2 0h4m3 0h1m3 0h1m1 0h1m1 0h1m1 0h1m1 0h5m-167 1h3m1 0h3m1 0h1m2 0h3m7 0h2m5 0h3m1 0h2m2 0h1m1 0h1m4 0h3m4 0h2m1 0h1m2 0h2m11 0h1m1 0h2m3 0h1m1 0h2m3 0h3m3 0h1m4 0h4m2 0h8m1 0h2m2 0h3m2 0h2m1 0h2m2 0h1m2 0h1m1 0h2m2 0h2m4 0h1m2 0h1m1 0h2m2 0h2m2 0h1m1 0h1m1 0h1m1 0h1m1 0h4m2 0h1m-172 1h1m2 0h2m1 0h1m3 0h1m2 0h4m1 0h2m1 0h1m1 0h1m1 0h1m3 0h1m1 0h1m1 0h2m1 0h1m3 0h1m1 0h1m1 0h2m3 0h2m2 0h1m1 0h1m2 0h1m3 0h1m1 0h1m1 0h2m3 0h2m2 0h6m2 0h1m1 0h1m1 0h1m2 0h3m1 0h1m2 0h1m2 0h2m2 0h3m1 0h1m3 0h2m3 0h1m1 0h1m1 0h2m4 0h3m3 0h1m2 0h2m3 0h1m2 0h1m1 0h2m3 0h1m1 0h1m1 0h4m3 0h3m6 0h1m-173 1h1m3 0h3m5 0h1m1 0h1m4 0h1m2 0h1m2 0h5m3 0h1m2 0h2m1 0h1m1 0h1m1 0h1m1 0h2m1 0h1m1 0h6m1 0h1m3 0h3m2 0h2m3 0h3m3 0h1m2 0h10m1 0h3m2 0h1m1 0h1m1 0h1m1 0h7m1 0h1m1 0h1m2 0h3m2 0h1m1 0h2m1 0h2m1 0h2m4 0h1m2 0h5m2 0h2m1 0h4m4 0h9m1 0h1m4 0h1m-171 1h1m6 0h1m5 0h2m1 0h2m3 0h2m1 0h1m3 0h5m2 0h1m2 0h1m1 0h1m1 0h2m2 0h2m2 0h2m2 0h2m2 0h1m1 0h3m3 0h4m1 0h1m1 0h1m2 0h3m2 0h1m1 0h6m7 0h1m1 0h2m1 0h1m2 0h1m1 0h1m2 0h1m1 0h2m1 0h1m1 0h1m2 0h1m3 0h1m2 0h1m1 0h1m2 0h4m1 0h3m1 0h1m1 0h1m1 0h1m1 0h2m1 0h1m3 0h1m1 0h2m1 0h1m1 0h1m1 0h1m1 0h1m1 0h5m1 0h1m-172 1h3m2 0h2m1 0h1m1 0h1m1 0h1m3 0h4m1 0h1m2 0h1m4 0h1m1 0h3m4 0h2m1 0h3m2 0h1m2 0h1m2 0h1m1 0h1m3 0h3m2 0h1m2 0h2m2 0h2m1 0h2m1 0h1m1 0h1m2 0h3m1 0h2m1 0h4m3 0h1m1 0h2m1 0h1m2 0h1m5 0h2m1 0h2m2 0h5m1 0h1m4 0h1m1 0h1m1 0h1m2 0h1m3 0h1m1 0h2m5 0h2m1 0h1m1 0h2m4 0h3m4 0h1m2 0h1m2 0h1m-169 1h1m5 0h1m1 0h1m1 0h3m6 0h1m1 0h3m2 0h1m3 0h2m2 0h2m2 0h2m1 0h6m1 0h3m2 0h1m3 0h1m3 0h1m1 0h2m1 0h1m1 0h2m3 0h2m5 0h4m3 0h2m1 0h1m1 0h2m2 0h1m3 0h1m1 0h2m1 0h1m1 0h1m3 0h2m1 0h1m1 0h3m3 0h1m1 0h1m1 0h1m5 0h3m1 0h1m1 0h1m2 0h1m2 0h1m5 0h1m1 0h2m2 0h1m2 0h2m-165 1h7m1 0h1m5 0h3m2 0h1m1 0h4m1 0h2m2 0h1m1 0h1m1 0h1m1 0h1m2 0h2m2 0h1m2 0h2m1 0h1m3 0h2m2 0h1m1 0h1m1 0h1m1 0h1m1 0h2m1 0h1m1 0h3m1 0h2m3 0h1m2 0h6m1 0h3m3 0h1m1 0h2m1 0h1m3 0h1m1 0h1m5 0h2m1 0h3m2 0h1m1 0h1m2 0h5m4 0h1m2 0h2m5 0h4m6 0h3m3 0h5m2 0h2m1 0h2m-172 1h4m3 0h1m1 0h7m1 0h3m2 0h1m2 0h1m1 0h1m3 0h1m2 0h3m1 0h4m1 0h1m2 0h1m3 0h1m2 0h1m2 0h2m4 0h1m5 0h3m2 0h1m1 0h1m1 0h1m2 0h1m1 0h4m1 0h2m3 0h3m2 0h1m2 0h1m3 0h2m3 0h1m6 0h4m1 0h1m1 0h1m1 0h1m2 0h6m1 0h8m1 0h3m1 0h3m2 0h1m1 0h3m8 0h7m-172 1h1m4 0h2m1 0h1m2 0h2m4 0h2m1 0h1m1 0h2m2 0h4m1 0h2m2 0h1m1 0h1m7 0h1m1 0h1m1 0h2m2 0h3m1 0h1m2 0h2m1 0h3m1 0h1m1 0h3m2 0h1m3 0h1m3 0h1m1 0h2m2 0h3m1 0h1m1 0h1m1 0h4m1 0h1m2 0h1m2 0h2m4 0h2m1 0h4m1 0h1m1 0h1m1 0h2m1 0h2m1 0h4m3 0h3m3 0h2m1 0h1m1 0h1m2 0h2m3 0h1m1 0h1m5 0h1m1 0h2m1 0h2m-171 1h1m1 0h1m2 0h1m3 0h1m2 0h1m2 0h4m1 0h3m3 0h4m1 0h4m1 0h1m1 0h1m1 0h2m1 0h4m1 0h1m4 0h8m1 0h1m1 0h1m1 0h3m1 0h2m3 0h1m1 0h1m4 0h5m1 0h1m1 0h1m1 0h1m1 0h1m3 0h2m2 0h6m2 0h2m6 0h1m2 0h1m4 0h1m8 0h2m3 0h4m8 0h2m3 0h1m4 0h2m1 0h1m3 0h2m-173 1h8m3 0h2m1 0h1m4 0h1m3 0h1m1 0h2m1 0h1m1 0h1m4 0h1m7 0h3m3 0h1m1 0h2m1 0h1m1 0h1m2 0h2m1 0h2m1 0h4m3 0h1m3 0h3m1 0h1m2 0h2m1 0h2m3 0h1m1 0h1m1 0h1m3 0h4m1 0h1m3 0h1m3 0h1m1 0h3m2 0h2m1 0h1m1 0h3m1 0h2m1 0h2m1 0h1m2 0h2m1 0h2m2 0h4m3 0h1m1 0h2m9 0h1m2 0h2m1 0h2m-172 1h2m5 0h2m2 0h4m5 0h4m1 0h3m2 0h4m1 0h1m1 0h2m4 0h4m1 0h2m2 0h4m1 0h1m2 0h3m2 0h1m2 0h2m1 0h2m4 0h2m1 0h1m1 0h6m1 0h2m1 0h2m1 0h2m2 0h1m1 0h1m1 0h1m1 0h1m1 0h2m1 0h2m1 0h2m1 0h6m1 0h1m1 0h2m1 0h6m1 0h1m2 0h1m1 0h2m2 0h2m1 0h1m2 0h1m2 0h2m2 0h2m6 0h1m1 0h2m1 0h1m1 0h1m-172 1h1m1 0h1m2 0h1m1 0h4m1 0h1m1 0h3m1 0h1m2 0h1m2 0h1m1 0h1m3 0h5m1 0h4m1 0h1m2 0h4m1 0h1m4 0h1m4 0h1m1 0h1m2 0h2m1 0h1m1 0h3m1 0h3m1 0h1m1 0h1m2 0h1m3 0h1m2 0h2m1 0h1m1 0h6m1 0h2m6 0h4m3 0h1m1 0h4m2 0h2m1 0h2m1 0h3m1 0h1m3 0h2m4 0h1m2 0h2m7 0h1m2 0h4m2 0h3m3 0h1m-170 1h2m2 0h1m3 0h2m1 0h2m3 0h2m4 0h2m1 0h1m3 0h1m1 0h2m6 0h3m4 0h1m5 0h1m1 0h6m4 0h4m2 0h4m2 0h6m2 0h1m1 0h1m1 0h3m1 0h3m1 0h1m3 0h1m5 0h1m5 0h1m1 0h4m3 0h2m2 0h1m1 0h3m1 0h1m3 0h2m2 0h1m5 0h1m5 0h4m1 0h2m3 0h1m2 0h3m1 0h1m-172 1h3m1 0h4m1 0h3m2 0h1m4 0h1m2 0h2m2 0h2m3 0h1m1 0h1m1 0h1m1 0h7m1 0h3m1 0h4m1 0h2m4 0h1m3 0h2m1 0h1m2 0h1m1 0h3m1 0h3m3 0h1m1 0h2m1 0h2m2 0h1m3 0h1m1 0h1m1 0h5m6 0h1m1 0h1m1 0h1m2 0h1m1 0h2m1 0h1m1 0h4m1 0h1m4 0h1m5 0h1m1 0h1m4 0h1m2 0h2m2 0h1m2 0h1m2 0h1m1 0h1m1 0h2m2 0h1m2 0h2m-173 1h4m4 0h2m1 0h4m3 0h1m3 0h2m2 0h1m1 0h2m2 0h1m2 0h1m2 0h1m4 0h2m1 0h1m1 0h1m1 0h3m1 0h4m2 0h3m2 0h2m1 0h2m1 0h4m2 0h1m3 0h3m1 0h1m1 0h8m1 0h3m1 0h1m1 0h1m1 0h1m3 0h1m1 0h1m1 0h1m1 0h3m2 0h3m1 0h1m2 0h1m1 0h2m1 0h3m2 0h3m1 0h1m4 0h2m1 0h4m3 0h1m2 0h5m4 0h2m-168 1h3m2 0h1m1 0h4m1 0h1m1 0h2m4 0h1m4 0h3m3 0h4m3 0h4m4 0h1m1 0h1m1 0h5m1 0h1m3 0h2m2 0h1m6 0h3m1 0h2m3 0h2m6 0h2m1 0h5m1 0h2m3 0h1m2 0h2m3 0h1m1 0h6m1 0h1m1 0h1m5 0h1m1 0h2m1 0h2m2 0h1m2 0h1m5 0h1m1 0h1m1 0h2m1 0h1m1 0h1m1 0h4m2 0h1m2 0h1m1 0h3m1 0h1m-169 1h1m2 0h2m1 0h2m3 0h1m3 0h4m4 0h1m1 0h2m1 0h1m1 0h1m4 0h1m1 0h1m2 0h2m1 0h3m3 0h4m1 0h1m1 0h1m2 0h1m2 0h5m2 0h5m1 0h1m1 0h3m2 0h1m3 0h3m5 0h1m1 0h1m2 0h1m1 0h2m1 0h1m1 0h2m2 0h1m3 0h1m1 0h1m1 0h1m1 0h1m1 0h1m2 0h3m6 0h1m3 0h1m2 0h1m2 0h1m2 0h1m1 0h2m2 0h1m1 0h2m3 0h2m3 0h1m-170 1h2m1 0h1m2 0h3m1 0h1m1 0h2m3 0h1m2 0h2m2 0h1m1 0h3m1 0h2m4 0h5m8 0h5m3 0h1m1 0h2m1 0h1m7 0h2m6 0h2m1 0h2m3 0h1m2 0h5m1 0h1m1 0h2m1 0h1m7 0h3m1 0h1m6 0h1m1 0h9m4 0h1m3 0h2m5 0h3m2 0h5m2 0h1m1 0h1m4 0h1m2 0h1m-168 1h2m2 0h2m1 0h1m3 0h3m5 0h1m3 0h3m3 0h1m4 0h2m2 0h6m1 0h3m2 0h3m3 0h5m1 0h1m1 0h2m1 0h1m1 0h1m1 0h2m1 0h1m3 0h3m1 0h1m2 0h4m3 0h1m5 0h1m3 0h1m1 0h1m1 0h1m5 0h1m1 0h1m1 0h2m2 0h1m2 0h1m2 0h1m1 0h1m2 0h3m1 0h2m3 0h2m2 0h2m2 0h1m2 0h1m1 0h1m1 0h1m3 0h2m4 0h8m-173 1h1m1 0h1m1 0h1m1 0h1m1 0h1m1 0h4m1 0h5m1 0h1m1 0h1m1 0h1m3 0h1m2 0h1m1 0h1m4 0h1m1 0h1m5 0h3m1 0h1m1 0h1m2 0h1m4 0h2m3 0h3m1 0h1m2 0h1m1 0h1m7 0h3m1 0h1m1 0h2m2 0h5m1 0h1m2 0h1m3 0h4m1 0h10m6 0h4m1 0h1m1 0h4m1 0h2m5 0h1m1 0h4m1 0h1m4 0h1m1 0h1m1 0h2m2 0h2m3 0h2m-170 1h2m5 0h1m3 0h2m1 0h2m2 0h2m1 0h1m3 0h1m4 0h2m1 0h2m1 0h1m1 0h2m2 0h2m1 0h1m1 0h2m2 0h5m7 0h3m1 0h1m1 0h1m3 0h3m4 0h1m1 0h2m1 0h1m2 0h1m2 0h1m1 0h1m2 0h1m3 0h1m1 0h1m3 0h2m2 0h2m3 0h3m1 0h1m1 0h1m1 0h1m2 0h1m1 0h1m2 0h1m3 0h2m2 0h1m2 0h1m2 0h1m3 0h1m1 0h4m1 0h3m2 0h1m1 0h1m1 0h2m1 0h1m-170 1h1m1 0h3m2 0h2m3 0h1m4 0h1m4 0h5m4 0h1m2 0h1m2 0h2m1 0h2m4 0h10m2 0h1m1 0h1m1 0h4m2 0h1m2 0h1m5 0h6m1 0h4m1 0h3m1 0h1m1 0h6m2 0h1m2 0h5m1 0h1m4 0h1m2 0h1m3 0h2m1 0h1m4 0h1m1 0h5m4 0h2m1 0h1m1 0h1m2 0h2m1 0h2m2 0h1m1 0h1m1 0h6m2 0h1m-165 1h2m2 0h1m5 0h1m1 0h1m3 0h1m3 0h8m5 0h1m1 0h2m1 0h2m4 0h1m3 0h2m2 0h3m5 0h3m2 0h4m2 0h2m3 0h1m1 0h1m1 0h1m6 0h1m1 0h4m1 0h1m1 0h5m3 0h1m2 0h3m1 0h3m1 0h1m1 0h1m2 0h2m1 0h2m1 0h1m1 0h1m3 0h2m2 0h3m4 0h1m2 0h1m3 0h2m2 0h3m3 0h2m2 0h1m-173 1h7m1 0h1m1 0h1m1 0h5m2 0h1m4 0h1m1 0h1m1 0h2m4 0h6m1 0h1m5 0h1m1 0h2m1 0h1m1 0h1m1 0h1m2 0h2m1 0h1m1 0h1m2 0h4m1 0h2m2 0h5m1 0h1m1 0h1m1 0h2m1 0h1m1 0h1m2 0h5m1 0h2m2 0h1m1 0h3m1 0h1m1 0h2m1 0h4m5 0h3m1 0h1m3 0h1m1 0h1m1 0h1m1 0h1m1 0h1m4 0h2m1 0h2m1 0h1m2 0h1m3 0h3m2 0h2m1 0h1m1 0h1m1 0h1m1 0h1m-173 1h1m5 0h1m1 0h2m1 0h1m1 0h1m1 0h1m1 0h1m2 0h2m2 0h1m3 0h1m1 0h1m2 0h2m1 0h1m1 0h1m4 0h2m3 0h2m1 0h2m3 0h1m1 0h3m1 0h4m1 0h2m1 0h1m1 0h4m3 0h2m3 0h2m2 0h2m4 0h6m1 0h3m1 0h2m1 0h1m3 0h1m1 0h1m3 0h2m2 0h2m1 0h1m3 0h2m1 0h1m1 0h1m1 0h1m3 0h1m1 0h1m1 0h2m2 0h1m2 0h1m2 0h2m1 0h1m2 0h2m1 0h2m3 0h2m1 0h2m-173 1h1m1 0h3m1 0h1m1 0h2m2 0h3m2 0h1m2 0h1m1 0h8m1 0h1m1 0h1m1 0h2m1 0h2m1 0h1m5 0h1m2 0h1m1 0h6m3 0h1m4 0h2m1 0h1m1 0h2m1 0h1m1 0h1m2 0h6m1 0h2m1 0h3m3 0h2m1 0h3m1 0h3m2 0h8m1 0h1m5 0h1m2 0h2m1 0h2m2 0h1m1 0h7m1 0h1m1 0h2m1 0h1m5 0h2m1 0h1m4 0h2m1 0h6m2 0h1m-173 1h1m1 0h3m1 0h1m2 0h1m3 0h1m1 0h3m1 0h2m1 0h3m1 0h2m1 0h1m2 0h4m1 0h2m3 0h1m1 0h2m2 0h1m1 0h1m3 0h3m1 0h4m1 0h1m2 0h1m1 0h1m1 0h2m3 0h3m1 0h2m2 0h1m1 0h2m2 0h6m1 0h2m2 0h2m1 0h1m1 0h1m1 0h2m1 0h2m1 0h5m1 0h2m2 0h1m2 0h1m1 0h1m1 0h7m1 0h2m1 0h2m2 0h1m2 0h1m1 0h2m1 0h1m2 0h1m1 0h2m2 0h2m1 0h2m1 0h2m-170 1h1m1 0h3m1 0h1m2 0h1m1 0h1m1 0h2m1 0h1m2 0h4m1 0h1m2 0h1m1 0h1m1 0h1m1 0h2m6 0h1m1 0h1m1 0h4m2 0h2m2 0h1m1 0h4m1 0h2m1 0h4m2 0h2m1 0h1m1 0h2m1 0h2m1 0h1m1 0h1m1 0h1m2 0h2m2 0h1m1 0h1m2 0h2m4 0h1m4 0h4m1 0h2m1 0h3m1 0h2m1 0h2m1 0h1m1 0h1m1 0h1m2 0h1m1 0h4m1 0h1m3 0h1m2 0h2m1 0h1m1 0h1m3 0h4m2 0h1m1 0h1m3 0h1m1 0h2m-173 1h1m5 0h1m2 0h1m1 0h1m2 0h1m2 0h2m2 0h1m1 0h1m1 0h2m2 0h3m1 0h1m2 0h1m2 0h1m4 0h4m2 0h2m1 0h1m2 0h3m1 0h1m4 0h1m1 0h2m2 0h1m2 0h2m1 0h1m1 0h2m2 0h3m2 0h2m4 0h1m1 0h2m1 0h1m2 0h2m1 0h1m1 0h1m3 0h1m2 0h1m3 0h3m1 0h2m2 0h2m2 0h2m2 0h2m3 0h7m1 0h2m3 0h1m1 0h4m2 0h2m1 0h1m1 0h2m1 0h2m1 0h2m-173 1h7m2 0h1m3 0h1m1 0h6m1 0h1m2 0h1m2 0h1m1 0h2m3 0h2m3 0h2m4 0h1m2 0h4m4 0h1m1 0h1m1 0h1m2 0h1m1 0h2m1 0h1m3 0h4m2 0h1m1 0h1m2 0h5m1 0h2m4 0h2m3 0h1m3 0h5m1 0h2m3 0h1m5 0h1m2 0h3m1 0h1m1 0h2m1 0h2m4 0h3m1 0h1m1 0h2m5 0h2m1 0h2m3 0h2m2 0h7"/></svg>
